<svg width="784" height="513" viewBox="0 0 784 513" fill="none" xmlns="http://www.w3.org/2000/svg">
<path d="M336.366 495.53C395.003 497.435 445.607 459.099 461.631 405.405C469.175 407.867 477.232 409.198 485.598 409.198C528.234 409.198 562.797 374.634 562.798 331.998C562.798 326.267 562.172 320.683 560.988 315.308C571.712 319.145 583.263 321.236 595.3 321.236C651.69 321.236 697.403 275.39 697.403 218.836C697.403 214.583 697.142 210.392 696.64 206.275C739.241 195.626 770.798 157.097 770.798 111.197C770.797 58.5478 729.28 15.5979 677.198 13.2966V13.197H148.398L148.412 13.2371C148.407 13.2371 148.403 13.2361 148.398 13.2361C73.7293 13.2361 13.1981 73.7666 13.1979 148.435C13.1979 202.069 44.4277 248.409 89.695 270.261C89.518 272.105 89.3985 273.966 89.3376 275.843C87.7754 323.921 125.484 364.162 173.562 365.724C188.278 366.203 202.26 363.001 214.623 356.95C214.366 359.627 214.193 362.33 214.104 365.055C211.836 434.847 266.575 493.262 336.366 495.53Z" fill="#F9F6EC" fill-opacity="0.15"/>
<g filter="url(#filter0_f_1992_2237)">
<path d="M336.366 499.492C396.317 501.44 447.874 461.322 462.658 405.733C469.905 407.985 477.61 409.198 485.598 409.198C528.234 409.198 562.797 374.634 562.797 331.998C562.797 326.267 562.172 320.683 560.988 315.308C571.712 319.145 583.263 321.236 595.3 321.236C651.69 321.236 697.403 275.389 697.403 218.836C697.403 214.583 697.142 210.391 696.64 206.275C739.241 195.626 770.797 157.098 770.797 111.198C770.797 58.5484 729.28 15.5977 677.198 13.2965V13.1978H148.398L148.411 13.2369C148.407 13.2369 148.402 13.2359 148.398 13.2359C73.7291 13.2359 13.1978 73.7672 13.1978 148.436C13.198 202.069 44.4278 248.409 89.6949 270.261C89.5179 272.105 89.3985 273.966 89.3375 275.843C87.7756 323.921 125.484 364.162 173.562 365.724C188.468 366.209 202.619 362.917 215.099 356.713C214.575 360.755 214.239 364.859 214.104 369.017C211.836 438.808 266.575 497.224 336.366 499.492Z" fill="#F9F6EC" fill-opacity="0.15"/>
<path d="M336.366 499.492L336.223 503.887V503.887L336.366 499.492ZM462.658 405.733L458.408 404.603L459.586 400.173L463.963 401.533L462.658 405.733ZM485.598 409.198L485.598 413.596H485.598V409.198ZM562.797 331.998H567.195V331.998H562.797ZM560.988 315.308L556.693 316.255L554.982 308.488L562.469 311.167L560.988 315.308ZM595.3 321.236V325.634V325.634V321.236ZM697.403 218.836H701.801V218.836H697.403ZM696.64 206.275L692.275 206.807L691.804 202.951L695.574 202.008L696.64 206.275ZM770.797 111.198H775.195V111.198L770.797 111.198ZM677.198 13.2964L677.004 17.69L672.8 17.5043V13.2964H677.198ZM677.198 13.1978V8.79999H681.596V13.1978H677.198ZM148.398 13.1978L144.216 14.5571L142.344 8.79999H148.398V13.1978ZM148.411 13.2369L152.593 11.8776L154.464 17.6353L148.41 17.6347L148.411 13.2369ZM148.398 13.2359V8.83807V8.83807V13.2359ZM13.1978 148.436L8.8 148.436V148.436H13.1978ZM89.6949 270.261L91.6068 266.301L94.3654 267.632L94.0726 270.682L89.6949 270.261ZM89.3375 275.843L84.942 275.701L84.942 275.701L89.3375 275.843ZM173.562 365.724L173.419 370.12V370.12L173.562 365.724ZM215.099 356.713L213.142 352.775L220.52 349.107L219.461 357.279L215.099 356.713ZM214.104 369.017L209.709 368.874V368.874L214.104 369.017ZM336.366 499.492L336.509 495.096C394.369 496.976 444.138 458.258 458.408 404.603L462.658 405.733L466.908 406.863C451.61 464.386 398.266 505.903 336.223 503.887L336.366 499.492ZM462.658 405.733L463.963 401.533C470.792 403.656 478.057 404.8 485.598 404.8V409.198V413.596C477.163 413.596 469.018 412.315 461.353 409.933L462.658 405.733ZM485.598 409.198L485.598 404.8C525.806 404.8 558.4 372.205 558.4 331.998H562.797H567.195C567.195 377.063 530.663 413.595 485.598 413.596L485.598 409.198ZM562.797 331.998H558.4C558.4 326.588 557.81 321.321 556.693 316.255L560.988 315.308L565.283 314.362C566.535 320.045 567.195 325.946 567.195 331.998H562.797ZM560.988 315.308L562.469 311.167C572.725 314.837 583.775 316.838 595.3 316.838V321.236V325.634C582.75 325.634 570.698 323.453 559.506 319.449L560.988 315.308ZM595.3 321.236V316.838C649.249 316.838 693.005 272.973 693.005 218.836H697.403H701.801C701.801 277.806 654.131 325.634 595.3 325.634V321.236ZM697.403 218.836H693.005C693.005 214.763 692.755 210.749 692.275 206.807L696.64 206.275L701.006 205.743C701.529 210.034 701.801 214.403 701.801 218.836H697.403ZM696.64 206.275L695.574 202.008C736.264 191.837 766.399 155.032 766.4 111.198H770.797L775.195 111.198C775.195 159.164 742.219 199.415 697.707 210.542L696.64 206.275ZM770.797 111.198H766.4C766.4 60.9124 726.745 19.8878 677.004 17.69L677.198 13.2964L677.392 8.90289C731.814 11.3076 775.195 56.1845 775.195 111.198H770.797ZM677.198 13.2964H672.8V13.1978H677.198H681.596V13.2964H677.198ZM677.198 13.1978V17.5957H148.398V13.1978V8.79999H677.198V13.1978ZM148.398 13.1978L152.581 11.8385L152.593 11.8776L148.411 13.2369L144.228 14.5962L144.216 14.5571L148.398 13.1978ZM148.411 13.2369L148.41 17.6347C148.326 17.6347 148.251 17.6323 148.187 17.6291C148.124 17.6259 148.07 17.6218 148.028 17.6182C148.007 17.6164 147.989 17.6146 147.973 17.613C147.957 17.6115 147.943 17.61 147.933 17.6089C147.923 17.6078 147.914 17.6068 147.909 17.6062C147.906 17.6059 147.904 17.6057 147.903 17.6055C147.902 17.6054 147.901 17.6054 147.901 17.6053C147.901 17.6053 147.9 17.6053 147.9 17.6053C147.899 17.6052 147.903 17.6056 147.907 17.606C147.912 17.6066 147.92 17.6075 147.93 17.6086C147.94 17.6096 147.953 17.611 147.968 17.6125C147.983 17.614 148.002 17.6158 148.022 17.6175C148.063 17.6211 148.116 17.6251 148.178 17.6282C148.24 17.6313 148.314 17.6338 148.398 17.6338V13.2359V8.83807C148.483 8.83807 148.558 8.84048 148.621 8.84369C148.684 8.84686 148.738 8.85095 148.78 8.85458C148.801 8.85641 148.82 8.85818 148.836 8.85974C148.852 8.8613 148.865 8.86273 148.876 8.86386C148.886 8.86499 148.895 8.86594 148.9 8.86655C148.903 8.86685 148.905 8.8671 148.906 8.86725C148.907 8.86734 148.907 8.8674 148.908 8.86746C148.908 8.86749 148.908 8.86752 148.908 8.86752C148.909 8.86765 148.906 8.86722 148.901 8.86673C148.897 8.86621 148.889 8.8653 148.879 8.86423C148.869 8.86316 148.856 8.86179 148.841 8.86029C148.826 8.85876 148.807 8.85706 148.787 8.85526C148.746 8.85175 148.693 8.84772 148.631 8.8446C148.569 8.84146 148.495 8.83905 148.411 8.83905L148.411 13.2369ZM148.398 13.2359V17.6338C76.158 17.6338 17.5957 76.1961 17.5957 148.436H13.1978H8.8C8.8 71.3383 71.3003 8.83807 148.398 8.83807V13.2359ZM13.1978 148.436H17.5957C17.5959 200.318 47.8018 245.154 91.6068 266.301L89.6949 270.261L87.783 274.222C41.0538 251.664 8.80017 203.821 8.8 148.436L13.1978 148.436ZM89.6949 270.261L94.0726 270.682C93.9045 272.432 93.791 274.201 93.733 275.986L89.3375 275.843L84.942 275.701C85.0059 273.732 85.1312 271.778 85.3172 269.841L89.6949 270.261ZM89.3375 275.843L93.733 275.986C92.25 321.636 128.055 359.845 173.705 361.329L173.562 365.724L173.419 370.12C122.914 368.479 83.3012 326.206 84.942 275.701L89.3375 275.843ZM173.562 365.724L173.705 361.329C187.865 361.789 201.297 358.663 213.142 352.775L215.099 356.713L217.057 360.652C203.942 367.171 189.07 370.628 173.419 370.12L173.562 365.724ZM215.099 356.713L219.461 357.279C218.954 361.182 218.63 365.145 218.5 369.16L214.104 369.017L209.709 368.874C209.848 364.574 210.196 360.329 210.738 356.148L215.099 356.713ZM214.104 369.017L218.5 369.16C216.311 436.524 269.145 492.907 336.509 495.096L336.366 499.492L336.223 503.887C264.004 501.541 207.362 441.093 209.709 368.874L214.104 369.017Z" fill="#F9FEFE" fill-opacity="0.15"/>
</g>
<defs>
<filter id="filter0_f_1992_2237" x="-1.23978e-05" y="-1.23978e-05" width="783.995" height="512.758" filterUnits="userSpaceOnUse" color-interpolation-filters="sRGB">
<feFlood flood-opacity="0" result="BackgroundImageFix"/>
<feBlend mode="normal" in="SourceGraphic" in2="BackgroundImageFix" result="shape"/>
<feGaussianBlur stdDeviation="4.4" result="effect1_foregroundBlur_1992_2237"/>
</filter>
</defs>
</svg>
