<svg width="353" height="354" viewBox="0 0 353 354" fill="none" xmlns="http://www.w3.org/2000/svg">
<path d="M365.901 13.1938C425.165 13.1938 473.208 61.2372 473.208 120.501C473.208 122.271 473.163 124.03 473.078 125.779C473.122 125.779 473.166 125.779 473.209 125.779C532.473 125.779 580.516 173.822 580.516 233.086C580.516 289.986 536.229 336.541 480.245 340.165V340.393H97.6321V340.387C97.3395 340.39 97.0465 340.393 96.7532 340.393C50.6048 340.393 13.1936 302.983 13.1936 256.834C13.1936 210.686 50.6048 173.275 96.7532 173.275C108.579 173.275 119.832 175.733 130.028 180.165C125.947 170.77 123.537 160.462 123.184 149.602C121.685 103.478 157.861 64.8724 203.985 63.3735C227.218 62.6186 248.542 71.4234 264.179 86.2427C278.475 43.7778 318.616 13.194 365.901 13.1938Z" fill="url(#paint0_linear_1557_8973)"/>
<path d="M365.901 13.1938V8.796V8.796V13.1938ZM473.208 120.501L477.606 120.501V120.501H473.208ZM473.078 125.779L468.686 125.566L468.462 130.182L473.084 130.177L473.078 125.779ZM473.209 125.779V121.381V121.381V125.779ZM580.516 233.086L584.914 233.086V233.086H580.516ZM480.245 340.165L479.961 335.776L475.848 336.042V340.165H480.245ZM480.245 340.393V344.791H484.643V340.393H480.245ZM97.6321 340.393H93.2342V344.791H97.6321V340.393ZM97.6321 340.387H102.03V335.944L97.5867 335.99L97.6321 340.387ZM96.7532 340.393V344.791H96.7532L96.7532 340.393ZM13.1936 256.834H8.79576V256.834H13.1936ZM96.7532 173.275L96.7532 168.877H96.7532V173.275ZM130.028 180.165L128.275 184.198L138.506 188.644L134.061 178.412L130.028 180.165ZM123.184 149.602L118.788 149.745V149.745L123.184 149.602ZM203.985 63.3735L203.842 58.978H203.842L203.985 63.3735ZM264.179 86.2427L261.154 89.4347L266.15 94.1703L268.347 87.6459L264.179 86.2427ZM365.901 13.1938V17.5917C422.736 17.5917 468.81 63.6661 468.81 120.501H473.208H477.606C477.606 58.8083 427.594 8.796 365.901 8.796V13.1938ZM473.208 120.501L468.81 120.501C468.81 122.196 468.767 123.884 468.686 125.566L473.078 125.779L477.471 125.992C477.559 124.176 477.606 122.346 477.606 120.501L473.208 120.501ZM473.078 125.779L473.084 130.177C473.124 130.177 473.158 130.177 473.209 130.177V125.779V121.381C473.173 121.381 473.12 121.381 473.073 121.381L473.078 125.779ZM473.209 125.779V130.177C530.044 130.177 576.118 176.251 576.118 233.086H580.516H584.914C584.914 171.393 534.902 121.381 473.209 121.381V125.779ZM580.516 233.086L576.118 233.086C576.118 287.653 533.647 332.301 479.961 335.776L480.245 340.165L480.529 344.553C538.812 340.781 584.914 292.32 584.914 233.086L580.516 233.086ZM480.245 340.165H475.848V340.393H480.245H484.643V340.165H480.245ZM480.245 340.393V335.995H97.6321V340.393V344.791H480.245V340.393ZM97.6321 340.393H102.03V340.387H97.6321H93.2342V340.393H97.6321ZM97.6321 340.387L97.5867 335.99C97.293 335.993 97.021 335.995 96.7532 335.995L96.7532 340.393L96.7532 344.791C97.072 344.791 97.3859 344.788 97.6774 344.785L97.6321 340.387ZM96.7532 340.393V335.995C53.0336 335.995 17.5915 300.554 17.5914 256.834H13.1936H8.79576C8.79578 305.412 48.176 344.791 96.7532 344.791V340.393ZM13.1936 256.834H17.5914C17.5914 213.115 53.0336 177.673 96.7532 177.673V173.275V168.877C48.1759 168.877 8.79576 208.257 8.79576 256.834H13.1936ZM96.7532 173.275L96.7532 177.673C107.965 177.673 118.621 180.002 128.275 184.198L130.028 180.165L131.781 176.131C121.042 171.464 109.194 168.877 96.7532 168.877L96.7532 173.275ZM130.028 180.165L134.061 178.412C130.198 169.518 127.914 159.755 127.579 149.459L123.184 149.602L118.788 149.745C119.16 161.168 121.696 172.021 125.994 181.917L130.028 180.165ZM123.184 149.602L127.579 149.459C126.16 105.763 160.431 69.1891 204.127 67.7691L203.985 63.3735L203.842 58.978C155.29 60.5558 117.211 101.193 118.788 149.745L123.184 149.602ZM203.985 63.3735L204.127 67.7691C226.139 67.0539 246.335 75.3904 261.154 89.4347L264.179 86.2427L267.204 83.0506C250.75 67.4563 228.297 58.1834 203.842 58.978L203.985 63.3735ZM264.179 86.2427L268.347 87.6459C282.059 46.9161 320.561 17.5918 365.901 17.5917V13.1938V8.796C316.671 8.79611 274.891 40.6394 260.011 84.8395L264.179 86.2427Z" fill="#F9FEFE"/>
<g filter="url(#filter0_f_1557_8973)">
<path d="M365.901 13.1938C425.165 13.1938 473.208 61.2372 473.208 120.501C473.208 122.271 473.163 124.03 473.078 125.779C473.122 125.779 473.166 125.779 473.209 125.779C532.473 125.779 580.516 173.822 580.516 233.086C580.516 289.986 536.229 336.541 480.245 340.165V340.393H97.6321V340.387C97.3395 340.39 97.0465 340.393 96.7532 340.393C50.6048 340.393 13.1936 302.983 13.1936 256.834C13.1936 210.686 50.6048 173.275 96.7532 173.275C108.579 173.275 119.832 175.733 130.028 180.165C125.947 170.77 123.537 160.462 123.184 149.602C121.685 103.478 157.861 64.8724 203.985 63.3735C227.218 62.6186 248.542 71.4234 264.179 86.2427C278.475 43.7778 318.616 13.194 365.901 13.1938Z" fill="url(#paint1_linear_1557_8973)"/>
<path d="M365.901 13.1938V8.796V8.796V13.1938ZM473.208 120.501L477.606 120.501V120.501H473.208ZM473.078 125.779L468.686 125.566L468.462 130.182L473.084 130.177L473.078 125.779ZM473.209 125.779V121.381V121.381V125.779ZM580.516 233.086L584.914 233.086V233.086H580.516ZM480.245 340.165L479.961 335.776L475.848 336.042V340.165H480.245ZM480.245 340.393V344.791H484.643V340.393H480.245ZM97.6321 340.393H93.2342V344.791H97.6321V340.393ZM97.6321 340.387H102.03V335.944L97.5867 335.99L97.6321 340.387ZM96.7532 340.393V344.791H96.7532L96.7532 340.393ZM13.1936 256.834H8.79576V256.834H13.1936ZM96.7532 173.275L96.7532 168.877H96.7532V173.275ZM130.028 180.165L128.275 184.198L138.506 188.644L134.061 178.412L130.028 180.165ZM123.184 149.602L118.788 149.745V149.745L123.184 149.602ZM203.985 63.3735L203.842 58.978H203.842L203.985 63.3735ZM264.179 86.2427L261.154 89.4347L266.15 94.1703L268.347 87.6459L264.179 86.2427ZM365.901 13.1938V17.5917C422.736 17.5917 468.81 63.6661 468.81 120.501H473.208H477.606C477.606 58.8083 427.594 8.796 365.901 8.796V13.1938ZM473.208 120.501L468.81 120.501C468.81 122.196 468.767 123.884 468.686 125.566L473.078 125.779L477.471 125.992C477.559 124.176 477.606 122.346 477.606 120.501L473.208 120.501ZM473.078 125.779L473.084 130.177C473.124 130.177 473.158 130.177 473.209 130.177V125.779V121.381C473.173 121.381 473.12 121.381 473.073 121.381L473.078 125.779ZM473.209 125.779V130.177C530.044 130.177 576.118 176.251 576.118 233.086H580.516H584.914C584.914 171.393 534.902 121.381 473.209 121.381V125.779ZM580.516 233.086L576.118 233.086C576.118 287.653 533.647 332.301 479.961 335.776L480.245 340.165L480.529 344.553C538.812 340.781 584.914 292.32 584.914 233.086L580.516 233.086ZM480.245 340.165H475.848V340.393H480.245H484.643V340.165H480.245ZM480.245 340.393V335.995H97.6321V340.393V344.791H480.245V340.393ZM97.6321 340.393H102.03V340.387H97.6321H93.2342V340.393H97.6321ZM97.6321 340.387L97.5867 335.99C97.293 335.993 97.021 335.995 96.7532 335.995L96.7532 340.393L96.7532 344.791C97.072 344.791 97.3859 344.788 97.6774 344.785L97.6321 340.387ZM96.7532 340.393V335.995C53.0336 335.995 17.5915 300.554 17.5914 256.834H13.1936H8.79576C8.79578 305.412 48.176 344.791 96.7532 344.791V340.393ZM13.1936 256.834H17.5914C17.5914 213.115 53.0336 177.673 96.7532 177.673V173.275V168.877C48.1759 168.877 8.79576 208.257 8.79576 256.834H13.1936ZM96.7532 173.275L96.7532 177.673C107.965 177.673 118.621 180.002 128.275 184.198L130.028 180.165L131.781 176.131C121.042 171.464 109.194 168.877 96.7532 168.877L96.7532 173.275ZM130.028 180.165L134.061 178.412C130.198 169.518 127.914 159.755 127.579 149.459L123.184 149.602L118.788 149.745C119.16 161.168 121.696 172.021 125.994 181.917L130.028 180.165ZM123.184 149.602L127.579 149.459C126.16 105.763 160.431 69.1891 204.127 67.7691L203.985 63.3735L203.842 58.978C155.29 60.5558 117.211 101.193 118.788 149.745L123.184 149.602ZM203.985 63.3735L204.127 67.7691C226.139 67.0539 246.335 75.3904 261.154 89.4347L264.179 86.2427L267.204 83.0506C250.75 67.4563 228.297 58.1834 203.842 58.978L203.985 63.3735ZM264.179 86.2427L268.347 87.6459C282.059 46.9161 320.561 17.5918 365.901 17.5917V13.1938V8.796C316.671 8.79611 274.891 40.6394 260.011 84.8395L264.179 86.2427Z" fill="#F9FEFE"/>
</g>
<defs>
<filter id="filter0_f_1557_8973" x="-3.8147e-05" y="0.000205994" width="593.71" height="353.587" filterUnits="userSpaceOnUse" color-interpolation-filters="sRGB">
<feFlood flood-opacity="0" result="BackgroundImageFix"/>
<feBlend mode="normal" in="SourceGraphic" in2="BackgroundImageFix" result="shape"/>
<feGaussianBlur stdDeviation="4.39785" result="effect1_foregroundBlur_1557_8973"/>
</filter>
<linearGradient id="paint0_linear_1557_8973" x1="148.051" y1="-118.806" x2="375.136" y2="340.393" gradientUnits="userSpaceOnUse">
<stop offset="0.355769" stop-color="#F9F6EC"/>
<stop offset="0.798077" stop-color="#B2D9E7"/>
<stop offset="1" stop-color="#6CB4D0"/>
</linearGradient>
<linearGradient id="paint1_linear_1557_8973" x1="148.051" y1="-118.806" x2="375.136" y2="340.393" gradientUnits="userSpaceOnUse">
<stop offset="0.355769" stop-color="#F9F6EC"/>
<stop offset="0.798077" stop-color="#B2D9E7"/>
<stop offset="1" stop-color="#6CB4D0"/>
</linearGradient>
</defs>
</svg>
