<svg width="639" height="513" viewBox="0 0 639 513" fill="none" xmlns="http://www.w3.org/2000/svg">
<path fill-rule="evenodd" clip-rule="evenodd" d="M191.168 495.53C249.805 497.435 300.409 459.1 316.433 405.406C323.977 407.868 332.034 409.198 340.4 409.198C383.037 409.198 417.6 374.634 417.6 331.998C417.6 326.267 416.975 320.683 415.79 315.308C426.514 319.145 438.065 321.236 450.103 321.236C506.492 321.236 552.205 275.39 552.205 218.837C552.205 214.584 551.944 210.392 551.442 206.276C594.044 195.627 625.6 157.099 625.6 111.198C625.6 58.5487 584.082 15.5989 532 13.2977V13.1981H3.20026L3.21295 13.2371C3.20872 13.2371 3.20448 13.2361 3.20026 13.2361C-71.4686 13.2361 -132 73.7675 -132 148.436C-132 202.07 -100.77 248.41 -55.5029 270.263C-55.6799 272.106 -55.7993 273.967 -55.8603 275.844C-57.4224 323.922 -19.7138 364.163 28.3643 365.725C43.0803 366.204 57.0617 363.001 69.4249 356.95C69.1677 359.627 68.9949 362.331 68.9063 365.056C66.6388 434.847 121.377 493.262 191.168 495.53Z" fill="#F9F6EC" fill-opacity="0.15"/>
<g filter="url(#filter0_f_1652_1239)">
<path fill-rule="evenodd" clip-rule="evenodd" d="M191.168 499.492C251.12 501.44 302.677 461.322 317.46 405.733C324.707 407.985 332.412 409.198 340.4 409.198C383.036 409.198 417.599 374.635 417.6 331.999C417.6 326.268 416.974 320.684 415.79 315.309C426.514 319.146 438.065 321.236 450.103 321.236C506.492 321.236 552.205 275.39 552.205 218.836C552.205 214.584 551.944 210.392 551.442 206.276C594.044 195.627 625.6 157.098 625.6 111.198C625.599 58.5485 584.082 15.5987 532 13.2974V13.1978H3.2002L3.21289 13.2369C3.20866 13.2369 3.20442 13.2359 3.2002 13.2359C-71.4686 13.2359 -132 73.7673 -132 148.436C-132 202.07 -100.77 248.41 -55.5029 270.262C-55.6799 272.106 -55.7994 273.967 -55.8604 275.843C-57.4225 323.921 -19.7138 364.163 28.3643 365.725C43.2697 366.209 57.4214 362.918 69.9014 356.714C69.3772 360.756 69.0413 364.861 68.9062 369.018C66.6387 438.809 121.377 497.224 191.168 499.492Z" fill="#F9F6EC" fill-opacity="0.15"/>
<path d="M191.168 499.492L191.025 503.887V503.887L191.168 499.492ZM317.46 405.733L313.21 404.603L314.388 400.173L318.765 401.533L317.46 405.733ZM340.4 409.198L340.4 413.596H340.4V409.198ZM417.6 331.999H421.997V331.999L417.6 331.999ZM415.79 315.309L411.495 316.256L409.784 308.489L417.272 311.168L415.79 315.309ZM450.103 321.236V325.634V325.634V321.236ZM552.205 218.836H556.603V218.836H552.205ZM551.442 206.276L547.077 206.808L546.607 202.952L550.376 202.009L551.442 206.276ZM625.6 111.198H629.997V111.198H625.6ZM532 13.2974L531.806 17.691L527.602 17.5052V13.2974H532ZM532 13.1978V8.79996H536.398V13.1978H532ZM3.2002 13.1978L-0.9823 14.5571L-2.85338 8.79996H3.2002V13.1978ZM3.21289 13.2369L7.39539 11.8776L9.26665 17.6353L3.21248 17.6347L3.21289 13.2369ZM3.2002 13.2359V8.83804V8.83804V13.2359ZM-132 148.436H-136.398V148.436H-132ZM-55.5029 270.262L-53.591 266.302L-50.8324 267.633L-51.1252 270.683L-55.5029 270.262ZM-55.8604 275.843L-60.2559 275.701V275.701L-55.8604 275.843ZM28.3643 365.725L28.2214 370.121V370.121L28.3643 365.725ZM69.9014 356.714L67.9438 352.776L75.3224 349.109L74.2627 357.28L69.9014 356.714ZM68.9062 369.018L64.5107 368.875V368.875L68.9062 369.018ZM191.168 499.492L191.311 495.096C249.172 496.976 298.941 458.258 313.21 404.603L317.46 405.733L321.71 406.863C306.412 464.387 253.068 505.903 191.025 503.887L191.168 499.492ZM317.46 405.733L318.765 401.533C325.594 403.656 332.86 404.8 340.4 404.8V409.198V413.596C331.965 413.596 323.82 412.315 316.155 409.933L317.46 405.733ZM340.4 409.198L340.4 404.8C380.608 404.8 413.202 372.206 413.202 331.999L417.6 331.999L421.997 331.999C421.997 377.064 385.465 413.595 340.4 413.596L340.4 409.198ZM417.6 331.999H413.202C413.202 326.589 412.612 321.322 411.495 316.256L415.79 315.309L420.085 314.363C421.337 320.045 421.997 325.947 421.997 331.999H417.6ZM415.79 315.309L417.272 311.168C427.527 314.837 438.577 316.838 450.103 316.838V321.236V325.634C437.552 325.634 425.501 323.454 414.309 319.45L415.79 315.309ZM450.103 321.236V316.838C504.051 316.838 547.807 272.973 547.807 218.836H552.205H556.603C556.603 277.807 508.933 325.634 450.103 325.634V321.236ZM552.205 218.836H547.807C547.807 214.764 547.558 210.75 547.077 206.808L551.442 206.276L555.808 205.744C556.331 210.035 556.603 214.404 556.603 218.836H552.205ZM551.442 206.276L550.376 202.009C591.066 191.838 621.202 155.032 621.202 111.198H625.6H629.997C629.997 159.164 597.021 199.416 552.509 210.543L551.442 206.276ZM625.6 111.198H621.202C621.202 60.9125 581.547 19.8888 531.806 17.691L532 13.2974L532.194 8.90387C586.616 11.3085 629.997 56.1846 629.997 111.198H625.6ZM532 13.2974H527.602V13.1978H532H536.398V13.2974H532ZM532 13.1978V17.5957H3.2002V13.1978V8.79996H532V13.1978ZM3.2002 13.1978L7.38269 11.8385L7.39539 11.8776L3.21289 13.2369L-0.969604 14.5962L-0.9823 14.5571L3.2002 13.1978ZM3.21289 13.2369L3.21248 17.6347C3.12782 17.6347 3.05267 17.6323 2.98938 17.6291C2.92625 17.6259 2.87222 17.6218 2.83046 17.6182C2.8094 17.6164 2.7907 17.6146 2.77492 17.613C2.75917 17.6115 2.74565 17.61 2.73514 17.6089C2.72472 17.6078 2.71625 17.6068 2.71103 17.6062C2.70836 17.6059 2.70618 17.6057 2.7048 17.6055C2.70412 17.6054 2.70354 17.6054 2.70316 17.6053C2.70282 17.6053 2.7025 17.6053 2.70248 17.6053C2.70158 17.6052 2.70522 17.6056 2.70949 17.606C2.7142 17.6066 2.72215 17.6075 2.73207 17.6086C2.74207 17.6096 2.75508 17.611 2.77031 17.6125C2.78558 17.614 2.80377 17.6158 2.82433 17.6175C2.86507 17.6211 2.91806 17.6251 2.98016 17.6282C3.04243 17.6313 3.11655 17.6338 3.2002 17.6338V13.2359V8.83804C3.2849 8.83804 3.36008 8.84048 3.4234 8.84369C3.48656 8.84686 3.54062 8.85095 3.58241 8.85458C3.6035 8.85638 3.62222 8.85818 3.63802 8.85974C3.65378 8.8613 3.66731 8.86273 3.67784 8.86386C3.68828 8.86499 3.69676 8.86594 3.70201 8.86655C3.70468 8.86685 3.70688 8.8671 3.70825 8.86725C3.70895 8.86734 3.70953 8.8674 3.70992 8.86746C3.71027 8.86749 3.71057 8.86752 3.7106 8.86752C3.71153 8.86765 3.7079 8.86722 3.70364 8.86673C3.69896 8.86621 3.69101 8.8653 3.68112 8.86423C3.67113 8.86316 3.65814 8.86179 3.64293 8.86026C3.62767 8.85876 3.6095 8.85706 3.58897 8.85526C3.54826 8.85175 3.4953 8.84772 3.43323 8.8446C3.37099 8.84146 3.29691 8.83905 3.2133 8.83902L3.21289 13.2369ZM3.2002 13.2359V17.6338C-69.0398 17.6338 -127.602 76.1961 -127.602 148.436H-132H-136.398C-136.398 71.3384 -73.8975 8.83804 3.2002 8.83804V13.2359ZM-132 148.436H-127.602C-127.602 200.319 -97.3962 245.155 -53.591 266.302L-55.5029 270.262L-57.4148 274.223C-104.144 251.664 -136.398 203.821 -136.398 148.436H-132ZM-55.5029 270.262L-51.1252 270.683C-51.2933 272.433 -51.4068 274.201 -51.4648 275.986L-55.8604 275.843L-60.2559 275.701C-60.1919 273.732 -60.0666 271.778 -59.8806 269.842L-55.5029 270.262ZM-55.8604 275.843L-51.4648 275.986C-52.9481 321.637 -17.1434 359.846 28.5071 361.33L28.3643 365.725L28.2214 370.121C-22.2842 368.48 -61.8969 326.206 -60.2559 275.701L-55.8604 275.843ZM28.3643 365.725L28.5071 361.33C42.6673 361.79 56.099 358.664 67.9438 352.776L69.9014 356.714L71.859 360.653C58.7438 367.172 43.8721 370.629 28.2214 370.121L28.3643 365.725ZM69.9014 356.714L74.2627 357.28C73.7566 361.183 73.4322 365.146 73.3018 369.161L68.9062 369.018L64.5107 368.875C64.6505 364.575 64.9979 360.33 65.54 356.149L69.9014 356.714ZM68.9062 369.018L73.3018 369.161C71.1131 436.524 123.947 492.907 191.311 495.096L191.168 499.492L191.025 503.887C118.807 501.541 62.1643 441.094 64.5107 368.875L68.9062 369.018Z" fill="#F9FEFE" fill-opacity="0.15"/>
</g>
<defs>
<filter id="filter0_f_1652_1239" x="-145.198" y="-1.23978e-05" width="783.995" height="512.758" filterUnits="userSpaceOnUse" color-interpolation-filters="sRGB">
<feFlood flood-opacity="0" result="BackgroundImageFix"/>
<feBlend mode="normal" in="SourceGraphic" in2="BackgroundImageFix" result="shape"/>
<feGaussianBlur stdDeviation="4.4" result="effect1_foregroundBlur_1652_1239"/>
</filter>
</defs>
</svg>
