<svg width="965" height="554" viewBox="0 0 965 554" fill="none" xmlns="http://www.w3.org/2000/svg">
<g filter="url(#filter0_f_1512_2303)">
<path d="M465.266 16.4971V10.9998V10.9998V16.4971ZM623.172 121.275L618.111 123.42L620.925 130.063L626.583 125.587L623.172 121.275ZM779.494 197.362L773.997 197.342L773.977 202.856L779.491 202.86L779.494 197.362ZM948.382 366.362H953.879V366.362H948.382ZM753.312 533.361L754.153 527.929L747.814 526.947V533.361H753.312ZM753.312 535.362V540.86H758.809V535.362H753.312ZM140.862 535.362V529.865H140.336L139.82 529.965L140.862 535.362ZM120.947 537.26V542.757H120.947L120.947 537.26ZM16.4973 432.812H11V432.812L16.4973 432.812ZM116.889 328.438L117.099 333.932L123.694 333.68L122.254 327.239L116.889 328.438ZM113.353 300.496L107.858 300.675V300.675L113.353 300.496ZM257.921 146.218L257.743 140.723H257.743L257.921 146.218ZM298.009 150.313L296.717 155.657L302.141 156.969L303.371 151.525L298.009 150.313ZM465.266 16.4971V21.9944C533.908 21.9944 592.839 63.7849 618.111 123.42L623.172 121.275L628.234 119.13C601.307 55.5884 538.491 10.9998 465.266 10.9998V16.4971ZM623.172 121.275L626.583 125.587C642.092 113.317 661.682 105.994 682.997 105.994V100.497V94.9998C659.118 94.9998 637.142 103.213 619.761 116.964L623.172 121.275ZM682.997 100.497V105.994C733.257 105.994 774 146.738 774 196.997H779.497H784.995C784.995 140.666 739.329 94.9998 682.997 94.9998V100.497ZM779.497 196.997H774C774 197.214 773.998 196.99 773.997 197.342L779.494 197.362L784.992 197.383C784.992 197.347 784.992 197.31 784.993 197.241C784.994 197.18 784.995 197.092 784.995 196.997H779.497ZM779.494 197.362L779.491 202.86C869.741 202.918 942.885 276.099 942.885 366.362H948.382H953.879C953.879 270.029 875.817 191.928 779.498 191.865L779.494 197.362ZM948.382 366.362H942.885C942.885 456.662 869.682 529.865 779.382 529.865V535.362V540.86C875.754 540.86 953.879 462.734 953.879 366.362H948.382ZM779.382 535.362V529.865C770.799 529.865 762.374 529.202 754.153 527.929L753.312 533.361L752.471 538.794C761.245 540.152 770.232 540.86 779.382 540.86V535.362ZM753.312 533.361H747.814V535.362H753.312H758.809V533.361H753.312ZM753.312 535.362V529.865H140.862V535.362V540.86H753.312V535.362ZM140.862 535.362L139.82 529.965C133.714 531.143 127.405 531.762 120.947 531.762L120.947 537.26L120.947 542.757C128.109 542.757 135.116 542.07 141.904 540.76L140.862 535.362ZM120.947 537.26V531.762C66.2972 531.762 21.9948 487.461 21.9946 432.811L16.4973 432.812L11 432.812C11.0002 493.533 60.2251 542.757 120.947 542.757V537.26ZM16.4973 432.812H21.9946C21.9946 379.45 64.2346 335.951 117.099 333.932L116.889 328.438L116.679 322.945C57.933 325.189 11 373.519 11 432.812H16.4973ZM116.889 328.438L122.254 327.239C120.31 318.55 119.147 309.552 118.847 300.318L113.353 300.496L107.858 300.675C108.181 310.6 109.432 320.282 111.524 329.638L116.889 328.438ZM113.353 300.496L118.847 300.318C116.264 220.828 178.61 154.295 258.1 151.712L257.921 146.218L257.743 140.723C172.184 143.503 105.078 215.116 107.858 300.675L113.353 300.496ZM257.921 146.218L258.1 151.712C271.423 151.279 284.373 152.672 296.717 155.657L298.009 150.313L299.301 144.97C286.006 141.755 272.066 140.258 257.743 140.723L257.921 146.218ZM298.009 150.313L303.371 151.525C320.135 77.3499 386.269 21.9944 465.266 21.9944V16.4971V10.9998C380.999 10.9998 310.515 70.0445 292.647 149.102L298.009 150.313Z" fill="#F9FEFE" fill-opacity="0.25"/>
</g>
<path d="M465.266 16.4971C536.199 16.4971 597.073 59.6867 623.172 121.275C639.617 108.265 660.4 100.497 682.997 100.497C736.293 100.497 779.497 143.702 779.497 196.997C779.497 197.119 779.495 197.241 779.494 197.362C872.779 197.423 948.382 273.064 948.382 366.362C948.382 459.698 872.718 535.362 779.382 535.362C770.516 535.362 761.809 534.677 753.312 533.361V535.362H140.862C134.415 536.607 127.757 537.26 120.947 537.26C63.2612 537.26 16.4975 490.497 16.4973 432.812C16.4973 376.485 61.0838 330.57 116.889 328.438C114.871 319.416 113.664 310.076 113.353 300.496C110.671 217.972 175.397 148.899 257.921 146.218C271.744 145.769 285.189 147.213 298.009 150.313C315.325 73.6972 383.634 16.4971 465.266 16.4971Z" fill="url(#paint0_radial_1512_2303)" fill-opacity="0.25"/>
<defs>
<filter id="filter0_f_1512_2303" x="0" y="0" width="964.879" height="553.757" filterUnits="userSpaceOnUse" color-interpolation-filters="sRGB">
<feFlood flood-opacity="0" result="BackgroundImageFix"/>
<feBlend mode="normal" in="SourceGraphic" in2="BackgroundImageFix" result="shape"/>
<feGaussianBlur stdDeviation="5.5" result="effect1_foregroundBlur_1512_2303"/>
</filter>
<radialGradient id="paint0_radial_1512_2303" cx="0" cy="0" r="1" gradientTransform="matrix(344.5 403.5 -475.151 324.863 320.997 104.862)" gradientUnits="userSpaceOnUse">
<stop stop-color="#F9F6EC"/>
</radialGradient>
</defs>
</svg>
