<svg width="401" height="509" viewBox="0 0 401 509" fill="none" xmlns="http://www.w3.org/2000/svg">
<path fill-rule="evenodd" clip-rule="evenodd" d="M-46.832 13.266C11.8049 11.3607 62.4092 49.6969 78.4326 103.391C85.9774 100.929 94.0337 99.598 102.4 99.598C145.037 99.5982 179.6 134.162 179.6 176.798C179.6 182.528 178.974 188.112 177.79 193.487C188.514 189.65 200.065 187.56 212.103 187.56C268.492 187.56 314.205 233.406 314.205 289.96C314.205 294.213 313.944 298.404 313.442 302.521C356.043 313.17 387.599 351.698 387.6 397.598C387.6 450.247 346.082 493.198 294 495.499V495.598H-234.8L-234.787 495.559C-234.791 495.559 -234.796 495.56 -234.8 495.56C-309.469 495.56 -370 435.029 -370 360.36C-370 306.726 -338.77 260.387 -293.503 238.535C-293.68 236.691 -293.799 234.829 -293.86 232.953C-295.422 184.875 -257.714 144.634 -209.636 143.072C-194.919 142.593 -180.938 145.795 -168.574 151.847C-168.831 149.17 -169.005 146.467 -169.094 143.741C-171.361 73.9495 -116.623 15.5338 -46.832 13.266Z" fill="url(#paint0_linear_1512_2724)"/>
<path d="M-46.832 13.266L-46.9749 8.87046V8.87046L-46.832 13.266ZM78.4326 103.391L74.2184 104.649L75.5084 108.971L79.7968 107.572L78.4326 103.391ZM102.4 99.598L102.4 95.2002H102.4V99.598ZM179.6 176.798H183.997V176.798H179.6ZM177.79 193.487L173.495 192.54L171.784 200.306L179.271 197.628L177.79 193.487ZM212.103 187.56V183.162V183.162V187.56ZM314.205 289.96H318.603V289.96H314.205ZM313.442 302.521L309.077 301.988L308.607 305.845L312.376 306.787L313.442 302.521ZM387.6 397.598H391.997V397.598L387.6 397.598ZM294 495.499L293.806 491.106L289.602 491.292V495.499H294ZM294 495.598V499.996H298.398V495.598H294ZM-234.8 495.598L-238.982 494.239L-240.853 499.996H-234.8V495.598ZM-234.787 495.559L-230.605 496.918L-228.733 491.161L-234.788 491.161L-234.787 495.559ZM-234.8 495.56V499.958V499.958V495.56ZM-370 360.36H-374.398V360.36H-370ZM-293.503 238.535L-291.591 242.495L-288.832 241.163L-289.125 238.114L-293.503 238.535ZM-293.86 232.953L-298.256 233.095L-298.256 233.095L-293.86 232.953ZM-209.636 143.072L-209.779 138.676V138.676L-209.636 143.072ZM-168.574 151.847L-170.508 155.797L-163.445 159.254L-164.197 151.426L-168.574 151.847ZM-169.094 143.741L-173.489 143.883V143.883L-169.094 143.741ZM-46.832 13.266L-46.6892 17.6615C9.90189 15.8227 58.752 52.8208 74.2184 104.649L78.4326 103.391L82.6468 102.133C66.0665 46.573 13.7079 6.89872 -46.9749 8.87046L-46.832 13.266ZM78.4326 103.391L79.7968 107.572C86.9066 105.252 94.5027 103.996 102.4 103.996V99.598V95.2002C93.5646 95.2002 85.0482 96.6064 77.0685 99.2101L78.4326 103.391ZM102.4 99.598L102.4 103.996C142.608 103.996 175.202 136.591 175.202 176.798H179.6H183.997C183.997 131.733 147.466 95.2004 102.4 95.2002L102.4 99.598ZM179.6 176.798L175.202 176.798C175.202 182.208 174.612 187.474 173.495 192.54L177.79 193.487L182.085 194.433C183.337 188.751 183.997 182.849 183.997 176.798H179.6ZM177.79 193.487L179.271 197.628C189.527 193.958 200.577 191.958 212.103 191.958V187.56V183.162C199.552 183.162 187.501 185.342 176.309 189.346L177.79 193.487ZM212.103 187.56V191.958C266.051 191.958 309.807 235.823 309.807 289.96H314.205H318.603C318.603 230.99 270.933 183.162 212.103 183.162V187.56ZM314.205 289.96L309.807 289.96C309.807 294.033 309.558 298.047 309.077 301.988L313.442 302.521L317.808 303.053C318.331 298.762 318.603 294.393 318.603 289.96H314.205ZM313.442 302.521L312.376 306.787C353.066 316.958 383.202 353.764 383.202 397.598H387.6L391.997 397.598C391.997 349.632 359.021 309.381 314.509 298.254L313.442 302.521ZM387.6 397.598H383.202C383.202 447.883 343.547 488.908 293.806 491.106L294 495.499L294.194 499.893C348.617 497.488 391.997 452.611 391.997 397.598H387.6ZM294 495.499H289.602V495.598H294H298.398V495.499H294ZM294 495.598V491.2H-234.8V495.598V499.996H294V495.598ZM-234.8 495.598L-230.617 496.957L-230.605 496.918L-234.787 495.559L-238.97 494.2L-238.982 494.239L-234.8 495.598ZM-234.787 495.559L-234.788 491.161C-234.872 491.161 -234.947 491.164 -235.011 491.167C-235.074 491.17 -235.128 491.174 -235.17 491.178C-235.191 491.179 -235.209 491.181 -235.225 491.183C-235.241 491.184 -235.254 491.186 -235.265 491.187C-235.275 491.188 -235.284 491.189 -235.289 491.19C-235.292 491.19 -235.294 491.19 -235.295 491.19C-235.296 491.19 -235.296 491.19 -235.297 491.19C-235.297 491.191 -235.298 491.191 -235.298 491.191C-235.298 491.191 -235.295 491.19 -235.291 491.19C-235.286 491.189 -235.278 491.188 -235.268 491.187C-235.258 491.186 -235.245 491.185 -235.23 491.183C-235.214 491.182 -235.196 491.18 -235.176 491.178C-235.135 491.175 -235.082 491.171 -235.02 491.168C-234.958 491.164 -234.883 491.162 -234.8 491.162V495.56V499.958C-234.715 499.958 -234.64 499.955 -234.577 499.952C-234.513 499.949 -234.459 499.945 -234.418 499.941C-234.396 499.939 -234.378 499.938 -234.362 499.936C-234.346 499.935 -234.333 499.933 -234.322 499.932C-234.312 499.931 -234.303 499.93 -234.298 499.929C-234.295 499.929 -234.293 499.929 -234.292 499.929C-234.291 499.928 -234.29 499.928 -234.29 499.928C-234.29 499.928 -234.289 499.928 -234.289 499.928C-234.288 499.928 -234.292 499.929 -234.296 499.929C-234.301 499.93 -234.309 499.931 -234.319 499.932C-234.329 499.933 -234.342 499.934 -234.357 499.936C-234.372 499.937 -234.391 499.939 -234.411 499.941C-234.452 499.944 -234.505 499.948 -234.567 499.951C-234.629 499.954 -234.703 499.957 -234.787 499.957L-234.787 495.559ZM-234.8 495.56V491.162C-307.04 491.162 -365.602 432.6 -365.602 360.36H-370H-374.398C-374.398 437.457 -311.898 499.958 -234.8 499.958V495.56ZM-370 360.36H-365.602C-365.602 308.478 -335.396 263.642 -291.591 242.495L-293.503 238.535L-295.415 234.574C-342.144 257.132 -374.398 304.975 -374.398 360.36H-370ZM-293.503 238.535L-289.125 238.114C-289.293 236.364 -289.407 234.595 -289.465 232.81L-293.86 232.953L-298.256 233.095C-298.192 235.064 -298.067 237.018 -297.881 238.955L-293.503 238.535ZM-293.86 232.953L-289.465 232.81C-290.948 187.159 -255.143 148.95 -209.493 147.467L-209.636 143.072L-209.779 138.676C-260.284 140.317 -299.897 182.59 -298.256 233.095L-293.86 232.953ZM-209.636 143.072L-209.493 147.467C-195.512 147.013 -182.242 150.053 -170.508 155.797L-168.574 151.847L-166.641 147.897C-179.634 141.537 -194.327 138.174 -209.779 138.676L-209.636 143.072ZM-168.574 151.847L-164.197 151.426C-164.445 148.842 -164.613 146.231 -164.698 143.598L-169.094 143.741L-173.489 143.883C-173.398 146.702 -173.218 149.497 -172.952 152.268L-168.574 151.847ZM-169.094 143.741L-164.698 143.598C-166.887 76.2342 -114.053 19.8504 -46.6892 17.6615L-46.832 13.266L-46.9749 8.87046C-119.194 11.2171 -175.836 71.6647 -173.489 143.883L-169.094 143.741Z" fill="#F9FEFE"/>
<g filter="url(#filter0_f_1512_2724)">
<path fill-rule="evenodd" clip-rule="evenodd" d="M-46.832 13.266C11.8049 11.3607 62.4092 49.6969 78.4326 103.391C85.9774 100.929 94.0337 99.598 102.4 99.598C145.037 99.5982 179.6 134.162 179.6 176.798C179.6 182.528 178.974 188.112 177.79 193.487C188.514 189.65 200.065 187.56 212.103 187.56C268.492 187.56 314.205 233.406 314.205 289.96C314.205 294.213 313.944 298.404 313.442 302.521C356.043 313.17 387.599 351.698 387.6 397.598C387.6 450.247 346.082 493.198 294 495.499V495.598H-234.8L-234.787 495.559C-234.791 495.559 -234.796 495.56 -234.8 495.56C-309.469 495.56 -370 435.029 -370 360.36C-370 306.726 -338.77 260.387 -293.503 238.535C-293.68 236.691 -293.799 234.829 -293.86 232.953C-295.422 184.875 -257.714 144.634 -209.636 143.072C-194.919 142.593 -180.938 145.795 -168.574 151.847C-168.831 149.17 -169.005 146.467 -169.094 143.741C-171.361 73.9495 -116.623 15.5338 -46.832 13.266Z" fill="url(#paint1_linear_1512_2724)"/>
<path d="M-46.832 13.266L-46.9749 8.87046V8.87046L-46.832 13.266ZM78.4326 103.391L74.2184 104.649L75.5084 108.971L79.7968 107.572L78.4326 103.391ZM102.4 99.598L102.4 95.2002H102.4V99.598ZM179.6 176.798H183.997V176.798H179.6ZM177.79 193.487L173.495 192.54L171.784 200.306L179.271 197.628L177.79 193.487ZM212.103 187.56V183.162V183.162V187.56ZM314.205 289.96H318.603V289.96H314.205ZM313.442 302.521L309.077 301.988L308.607 305.845L312.376 306.787L313.442 302.521ZM387.6 397.598H391.997V397.598L387.6 397.598ZM294 495.499L293.806 491.106L289.602 491.292V495.499H294ZM294 495.598V499.996H298.398V495.598H294ZM-234.8 495.598L-238.982 494.239L-240.853 499.996H-234.8V495.598ZM-234.787 495.559L-230.605 496.918L-228.733 491.161L-234.788 491.161L-234.787 495.559ZM-234.8 495.56V499.958V499.958V495.56ZM-370 360.36H-374.398V360.36H-370ZM-293.503 238.535L-291.591 242.495L-288.832 241.163L-289.125 238.114L-293.503 238.535ZM-293.86 232.953L-298.256 233.095L-298.256 233.095L-293.86 232.953ZM-209.636 143.072L-209.779 138.676V138.676L-209.636 143.072ZM-168.574 151.847L-170.508 155.797L-163.445 159.254L-164.197 151.426L-168.574 151.847ZM-169.094 143.741L-173.489 143.883V143.883L-169.094 143.741ZM-46.832 13.266L-46.6892 17.6615C9.90189 15.8227 58.752 52.8208 74.2184 104.649L78.4326 103.391L82.6468 102.133C66.0665 46.573 13.7079 6.89872 -46.9749 8.87046L-46.832 13.266ZM78.4326 103.391L79.7968 107.572C86.9066 105.252 94.5027 103.996 102.4 103.996V99.598V95.2002C93.5646 95.2002 85.0482 96.6064 77.0685 99.2101L78.4326 103.391ZM102.4 99.598L102.4 103.996C142.608 103.996 175.202 136.591 175.202 176.798H179.6H183.997C183.997 131.733 147.466 95.2004 102.4 95.2002L102.4 99.598ZM179.6 176.798L175.202 176.798C175.202 182.208 174.612 187.474 173.495 192.54L177.79 193.487L182.085 194.433C183.337 188.751 183.997 182.849 183.997 176.798H179.6ZM177.79 193.487L179.271 197.628C189.527 193.958 200.577 191.958 212.103 191.958V187.56V183.162C199.552 183.162 187.501 185.342 176.309 189.346L177.79 193.487ZM212.103 187.56V191.958C266.051 191.958 309.807 235.823 309.807 289.96H314.205H318.603C318.603 230.99 270.933 183.162 212.103 183.162V187.56ZM314.205 289.96L309.807 289.96C309.807 294.033 309.558 298.047 309.077 301.988L313.442 302.521L317.808 303.053C318.331 298.762 318.603 294.393 318.603 289.96H314.205ZM313.442 302.521L312.376 306.787C353.066 316.958 383.202 353.764 383.202 397.598H387.6L391.997 397.598C391.997 349.632 359.021 309.381 314.509 298.254L313.442 302.521ZM387.6 397.598H383.202C383.202 447.883 343.547 488.908 293.806 491.106L294 495.499L294.194 499.893C348.617 497.488 391.997 452.611 391.997 397.598H387.6ZM294 495.499H289.602V495.598H294H298.398V495.499H294ZM294 495.598V491.2H-234.8V495.598V499.996H294V495.598ZM-234.8 495.598L-230.617 496.957L-230.605 496.918L-234.787 495.559L-238.97 494.2L-238.982 494.239L-234.8 495.598ZM-234.787 495.559L-234.788 491.161C-234.872 491.161 -234.947 491.164 -235.011 491.167C-235.074 491.17 -235.128 491.174 -235.17 491.178C-235.191 491.179 -235.209 491.181 -235.225 491.183C-235.241 491.184 -235.254 491.186 -235.265 491.187C-235.275 491.188 -235.284 491.189 -235.289 491.19C-235.292 491.19 -235.294 491.19 -235.295 491.19C-235.296 491.19 -235.296 491.19 -235.297 491.19C-235.297 491.191 -235.298 491.191 -235.298 491.191C-235.298 491.191 -235.295 491.19 -235.291 491.19C-235.286 491.189 -235.278 491.188 -235.268 491.187C-235.258 491.186 -235.245 491.185 -235.23 491.183C-235.214 491.182 -235.196 491.18 -235.176 491.178C-235.135 491.175 -235.082 491.171 -235.02 491.168C-234.958 491.164 -234.883 491.162 -234.8 491.162V495.56V499.958C-234.715 499.958 -234.64 499.955 -234.577 499.952C-234.513 499.949 -234.459 499.945 -234.418 499.941C-234.396 499.939 -234.378 499.938 -234.362 499.936C-234.346 499.935 -234.333 499.933 -234.322 499.932C-234.312 499.931 -234.303 499.93 -234.298 499.929C-234.295 499.929 -234.293 499.929 -234.292 499.929C-234.291 499.928 -234.29 499.928 -234.29 499.928C-234.29 499.928 -234.289 499.928 -234.289 499.928C-234.288 499.928 -234.292 499.929 -234.296 499.929C-234.301 499.93 -234.309 499.931 -234.319 499.932C-234.329 499.933 -234.342 499.934 -234.357 499.936C-234.372 499.937 -234.391 499.939 -234.411 499.941C-234.452 499.944 -234.505 499.948 -234.567 499.951C-234.629 499.954 -234.703 499.957 -234.787 499.957L-234.787 495.559ZM-234.8 495.56V491.162C-307.04 491.162 -365.602 432.6 -365.602 360.36H-370H-374.398C-374.398 437.457 -311.898 499.958 -234.8 499.958V495.56ZM-370 360.36H-365.602C-365.602 308.478 -335.396 263.642 -291.591 242.495L-293.503 238.535L-295.415 234.574C-342.144 257.132 -374.398 304.975 -374.398 360.36H-370ZM-293.503 238.535L-289.125 238.114C-289.293 236.364 -289.407 234.595 -289.465 232.81L-293.86 232.953L-298.256 233.095C-298.192 235.064 -298.067 237.018 -297.881 238.955L-293.503 238.535ZM-293.86 232.953L-289.465 232.81C-290.948 187.159 -255.143 148.95 -209.493 147.467L-209.636 143.072L-209.779 138.676C-260.284 140.317 -299.897 182.59 -298.256 233.095L-293.86 232.953ZM-209.636 143.072L-209.493 147.467C-195.512 147.013 -182.242 150.053 -170.508 155.797L-168.574 151.847L-166.641 147.897C-179.634 141.537 -194.327 138.174 -209.779 138.676L-209.636 143.072ZM-168.574 151.847L-164.197 151.426C-164.445 148.842 -164.613 146.231 -164.698 143.598L-169.094 143.741L-173.489 143.883C-173.398 146.702 -173.218 149.497 -172.952 152.268L-168.574 151.847ZM-169.094 143.741L-164.698 143.598C-166.887 76.2342 -114.053 19.8504 -46.6892 17.6615L-46.832 13.266L-46.9749 8.87046C-119.194 11.2171 -175.836 71.6647 -173.489 143.883L-169.094 143.741Z" fill="#F9FEFE"/>
</g>
<defs>
<filter id="filter0_f_1512_2724" x="-383.198" y="4.86374e-05" width="783.995" height="508.796" filterUnits="userSpaceOnUse" color-interpolation-filters="sRGB">
<feFlood flood-opacity="0" result="BackgroundImageFix"/>
<feBlend mode="normal" in="SourceGraphic" in2="BackgroundImageFix" result="shape"/>
<feGaussianBlur stdDeviation="4.4" result="effect1_foregroundBlur_1512_2724"/>
</filter>
<linearGradient id="paint0_linear_1512_2724" x1="-303.427" y1="-187.456" x2="255.947" y2="405.328" gradientUnits="userSpaceOnUse">
<stop stop-color="#DAFFF6"/>
<stop offset="0.6" stop-color="#A2EED8"/>
<stop offset="1" stop-color="#18A18C"/>
</linearGradient>
<linearGradient id="paint1_linear_1512_2724" x1="-201.6" y1="13.198" x2="233.717" y2="420.17" gradientUnits="userSpaceOnUse">
<stop stop-color="#DAFFF6"/>
<stop offset="0.6" stop-color="#A2EED8"/>
<stop offset="1" stop-color="#18A18C"/>
</linearGradient>
</defs>
</svg>
