<svg width="491" height="443" viewBox="0 0 491 443" fill="none" xmlns="http://www.w3.org/2000/svg">
<g filter="url(#filter0_f_1512_2709)">
<path d="M91.415 13.198V8.80015V8.80015V13.198ZM217.914 96.571L213.873 98.3057L216.116 103.533L220.61 100.046L217.914 96.571ZM265.2 80.3982V76.0003V76.0003V80.3982ZM342.4 157.598L346.798 157.598V157.598H342.4ZM342.397 157.89L338 157.874L337.983 162.285L342.395 162.288L342.397 157.89ZM477.508 293.09H481.906V293.09H477.508ZM342.308 428.29V432.688V432.688V428.29ZM321.451 426.689L322.124 422.343L317.053 421.558V426.689H321.451ZM321.451 428.29V432.688H325.849V428.29H321.451ZM-168.505 428.29V423.892H-168.926L-169.339 423.972L-168.505 428.29ZM-184.441 429.808L-184.441 434.206H-184.441V429.808ZM-268 346.25H-272.398V346.25L-268 346.25ZM-187.687 262.752L-187.519 267.146L-182.242 266.945L-183.395 261.792L-187.687 262.752ZM-190.516 240.397L-194.911 240.54V240.54L-190.516 240.397ZM-74.8613 116.974L-75.0042 112.579V112.579L-74.8613 116.974ZM-42.7812 120.253L-43.8154 124.527L-39.4785 125.576L-38.4922 121.225L-42.7812 120.253ZM91.415 13.198V17.5958C146.333 17.5959 193.496 50.8327 213.873 98.3057L217.914 96.571L221.955 94.8364C200.241 44.2475 149.974 8.80023 91.415 8.80015V13.198ZM217.914 96.571L220.61 100.046C232.93 90.4856 248.395 84.796 265.2 84.796V80.3982V76.0003C246.374 76.0003 229.026 82.3821 215.218 93.0965L217.914 96.571ZM265.2 80.3982V84.796C305.408 84.7961 338.003 117.391 338.003 157.598H342.4H346.798C346.798 112.533 310.265 76.0005 265.2 76.0003V80.3982ZM342.4 157.598L338.003 157.598C338.003 157.857 338.001 157.472 338 157.874L342.397 157.89L346.795 157.907C346.795 157.886 346.796 157.863 346.796 157.807C346.797 157.759 346.798 157.682 346.798 157.598L342.4 157.598ZM342.397 157.89L342.395 162.288C414.595 162.335 473.11 220.879 473.11 293.09H477.508H481.906C481.906 216.023 419.456 153.543 342.4 153.493L342.397 157.89ZM477.508 293.09H473.11C473.11 365.33 414.548 423.892 342.308 423.892V428.29V432.688C419.405 432.688 481.906 370.187 481.906 293.09H477.508ZM342.308 428.29V423.892C335.441 423.892 328.701 423.362 322.124 422.343L321.451 426.689L320.778 431.035C327.798 432.122 334.988 432.688 342.308 432.688V428.29ZM321.451 426.689H317.053V428.29H321.451H325.849V426.689H321.451ZM321.451 428.29V423.892H-168.505V428.29V432.688H321.451V428.29ZM-168.505 428.29L-169.339 423.972C-174.224 424.915 -179.273 425.41 -184.441 425.41V429.808V434.206C-178.71 434.206 -173.103 433.657 -167.671 432.608L-168.505 428.29ZM-184.441 429.808L-184.441 425.41C-228.161 425.41 -263.602 389.969 -263.602 346.25L-268 346.25L-272.398 346.25C-272.398 394.827 -233.018 434.206 -184.441 434.206L-184.441 429.808ZM-268 346.25H-263.602C-263.602 303.561 -229.81 268.762 -187.519 267.146L-187.687 262.752L-187.854 258.357C-234.851 260.152 -272.398 298.816 -272.398 346.25H-268ZM-187.687 262.752L-183.395 261.792C-184.949 254.84 -185.88 247.642 -186.12 240.254L-190.516 240.397L-194.911 240.54C-194.653 248.481 -193.652 256.227 -191.978 263.712L-187.687 262.752ZM-190.516 240.397L-186.12 240.254C-188.186 176.663 -138.31 123.436 -74.7185 121.37L-74.8613 116.974L-75.0042 112.579C-143.451 114.803 -197.135 172.093 -194.911 240.54L-190.516 240.397ZM-74.8613 116.974L-74.7185 121.37C-64.0567 121.023 -53.6928 122.138 -43.8154 124.527L-42.7812 120.253L-41.7471 115.978C-52.3866 113.404 -63.5421 112.206 -75.0042 112.579L-74.8613 116.974ZM-42.7812 120.253L-38.4922 121.225C-25.0437 61.8907 28.0175 17.5958 91.415 17.5958V13.198V8.80015C23.8196 8.80015 -32.7335 56.0271 -47.0703 119.281L-42.7812 120.253Z" fill="#F9FEFE"/>
</g>
<path d="M91.415 13.198V8.80015V8.80015V13.198ZM217.914 96.571L213.873 98.3057L216.116 103.533L220.61 100.046L217.914 96.571ZM265.2 80.3982V76.0003V76.0003V80.3982ZM342.4 157.598L346.798 157.598V157.598H342.4ZM342.397 157.89L338 157.874L337.983 162.285L342.395 162.288L342.397 157.89ZM477.508 293.09H481.906V293.09H477.508ZM342.308 428.29V432.688V432.688V428.29ZM321.451 426.689L322.124 422.343L317.053 421.558V426.689H321.451ZM321.451 428.29V432.688H325.849V428.29H321.451ZM-168.505 428.29V423.892H-168.926L-169.339 423.972L-168.505 428.29ZM-184.441 429.808L-184.441 434.206H-184.441V429.808ZM-268 346.25H-272.398V346.25L-268 346.25ZM-187.687 262.752L-187.519 267.146L-182.242 266.945L-183.395 261.792L-187.687 262.752ZM-190.516 240.397L-194.911 240.54V240.54L-190.516 240.397ZM-74.8613 116.974L-75.0042 112.579V112.579L-74.8613 116.974ZM-42.7812 120.253L-43.8154 124.527L-39.4785 125.576L-38.4922 121.225L-42.7812 120.253ZM91.415 13.198V17.5958C146.333 17.5959 193.496 50.8327 213.873 98.3057L217.914 96.571L221.955 94.8364C200.241 44.2475 149.974 8.80023 91.415 8.80015V13.198ZM217.914 96.571L220.61 100.046C232.93 90.4856 248.395 84.796 265.2 84.796V80.3982V76.0003C246.374 76.0003 229.026 82.3821 215.218 93.0965L217.914 96.571ZM265.2 80.3982V84.796C305.408 84.7961 338.003 117.391 338.003 157.598H342.4H346.798C346.798 112.533 310.265 76.0005 265.2 76.0003V80.3982ZM342.4 157.598L338.003 157.598C338.003 157.857 338.001 157.472 338 157.874L342.397 157.89L346.795 157.907C346.795 157.886 346.796 157.863 346.796 157.807C346.797 157.759 346.798 157.682 346.798 157.598L342.4 157.598ZM342.397 157.89L342.395 162.288C414.595 162.335 473.11 220.879 473.11 293.09H477.508H481.906C481.906 216.023 419.456 153.543 342.4 153.493L342.397 157.89ZM477.508 293.09H473.11C473.11 365.33 414.548 423.892 342.308 423.892V428.29V432.688C419.405 432.688 481.906 370.187 481.906 293.09H477.508ZM342.308 428.29V423.892C335.441 423.892 328.701 423.362 322.124 422.343L321.451 426.689L320.778 431.035C327.798 432.122 334.988 432.688 342.308 432.688V428.29ZM321.451 426.689H317.053V428.29H321.451H325.849V426.689H321.451ZM321.451 428.29V423.892H-168.505V428.29V432.688H321.451V428.29ZM-168.505 428.29L-169.339 423.972C-174.224 424.915 -179.273 425.41 -184.441 425.41V429.808V434.206C-178.71 434.206 -173.103 433.657 -167.671 432.608L-168.505 428.29ZM-184.441 429.808L-184.441 425.41C-228.161 425.41 -263.602 389.969 -263.602 346.25L-268 346.25L-272.398 346.25C-272.398 394.827 -233.018 434.206 -184.441 434.206L-184.441 429.808ZM-268 346.25H-263.602C-263.602 303.561 -229.81 268.762 -187.519 267.146L-187.687 262.752L-187.854 258.357C-234.851 260.152 -272.398 298.816 -272.398 346.25H-268ZM-187.687 262.752L-183.395 261.792C-184.949 254.84 -185.88 247.642 -186.12 240.254L-190.516 240.397L-194.911 240.54C-194.653 248.481 -193.652 256.227 -191.978 263.712L-187.687 262.752ZM-190.516 240.397L-186.12 240.254C-188.186 176.663 -138.31 123.436 -74.7185 121.37L-74.8613 116.974L-75.0042 112.579C-143.451 114.803 -197.135 172.093 -194.911 240.54L-190.516 240.397ZM-74.8613 116.974L-74.7185 121.37C-64.0567 121.023 -53.6928 122.138 -43.8154 124.527L-42.7812 120.253L-41.7471 115.978C-52.3866 113.404 -63.5421 112.206 -75.0042 112.579L-74.8613 116.974ZM-42.7812 120.253L-38.4922 121.225C-25.0437 61.8907 28.0175 17.5958 91.415 17.5958V13.198V8.80015C23.8196 8.80015 -32.7335 56.0271 -47.0703 119.281L-42.7812 120.253Z" fill="#F9F6EC"/>
<defs>
<filter id="filter0_f_1512_2709" x="-281.198" y="4.86374e-05" width="771.903" height="443.006" filterUnits="userSpaceOnUse" color-interpolation-filters="sRGB">
<feFlood flood-opacity="0" result="BackgroundImageFix"/>
<feBlend mode="normal" in="SourceGraphic" in2="BackgroundImageFix" result="shape"/>
<feGaussianBlur stdDeviation="4.4" result="effect1_foregroundBlur_1512_2709"/>
</filter>
</defs>
</svg>
