<svg width="594" height="354" viewBox="0 0 594 354" fill="none" xmlns="http://www.w3.org/2000/svg">
<g filter="url(#filter0_f_1652_1317)">
<path d="M365.901 340.393V344.791V344.791V340.393ZM473.208 233.085L477.606 233.085V233.085H473.208ZM473.078 227.808L468.686 228.021L468.462 223.404L473.083 223.41L473.078 227.808ZM473.209 227.808L473.209 232.206H473.209V227.808ZM580.516 120.5L584.914 120.5V120.5H580.516ZM480.244 13.4221L479.96 17.8107L475.846 17.5445V13.4221H480.244ZM480.244 13.1935V8.79568H484.642V13.1935H480.244ZM97.632 13.1935H93.2341V8.79568H97.632V13.1935ZM97.632 13.1994H102.03V17.6428L97.5866 17.597L97.632 13.1994ZM96.7531 13.1935V8.79568H96.7531L96.7531 13.1935ZM13.1935 96.7521H8.79564V96.7521H13.1935ZM96.7531 180.312L96.7531 184.71H96.7531V180.312ZM130.027 173.422L128.275 169.389L138.506 164.942L134.061 175.174L130.027 173.422ZM123.184 203.985L118.788 203.842V203.842L123.184 203.985ZM203.984 290.213L203.842 294.609H203.842L203.984 290.213ZM264.179 267.344L261.154 264.152L266.15 259.416L268.347 265.941L264.179 267.344ZM365.901 340.393V335.995C422.736 335.995 468.81 289.921 468.81 233.085H473.208H477.606C477.606 294.778 427.594 344.791 365.901 344.791V340.393ZM473.208 233.085L468.81 233.085C468.81 231.391 468.767 229.702 468.686 228.021L473.078 227.808L477.471 227.595C477.559 229.41 477.606 231.241 477.606 233.085L473.208 233.085ZM473.078 227.808L473.083 223.41C473.124 223.41 473.158 223.41 473.209 223.41V227.808V232.206C473.173 232.206 473.12 232.206 473.073 232.206L473.078 227.808ZM473.209 227.808L473.209 223.41C530.044 223.41 576.118 177.335 576.118 120.5H580.516H584.914C584.914 182.193 534.902 232.205 473.209 232.206L473.209 227.808ZM580.516 120.5L576.118 120.5C576.118 65.9337 533.646 21.2854 479.96 17.8107L480.244 13.4221L480.528 9.03339C538.811 12.8056 584.913 61.2662 584.914 120.5L580.516 120.5ZM480.244 13.4221H475.846V13.1935H480.244H484.642V13.4221H480.244ZM480.244 13.1935V17.5914H97.632V13.1935V8.79568H480.244V13.1935ZM97.632 13.1935H102.03V13.1994H97.632H93.2341V13.1935H97.632ZM97.632 13.1994L97.5866 17.597C97.2929 17.594 97.0209 17.5914 96.753 17.5914L96.7531 13.1935L96.7531 8.79568C97.0719 8.79568 97.3858 8.7988 97.6773 8.80179L97.632 13.1994ZM96.7531 13.1935V17.5914C53.0335 17.5914 17.5914 53.0327 17.5913 96.7521H13.1935H8.79564C8.79567 48.1748 48.1759 8.79568 96.7531 8.79568V13.1935ZM13.1935 96.7521H17.5913C17.5913 140.472 53.0335 175.914 96.7531 175.914V180.312V184.71C48.1758 184.71 8.79564 145.329 8.79564 96.7521H13.1935ZM96.7531 180.312L96.753 175.914C107.965 175.914 118.621 173.584 128.275 169.389L130.027 173.422L131.78 177.455C121.042 182.122 109.194 184.709 96.7531 184.71L96.7531 180.312ZM130.027 173.422L134.061 175.174C130.198 184.069 127.914 193.831 127.579 204.127L123.184 203.985L118.788 203.842C119.159 192.418 121.696 181.565 125.994 171.67L130.027 173.422ZM123.184 203.985L127.579 204.127C126.159 247.824 160.431 284.398 204.127 285.818L203.984 290.213L203.842 294.609C155.29 293.031 117.211 252.393 118.788 203.842L123.184 203.985ZM203.984 290.213L204.127 285.818C226.138 286.533 246.335 278.196 261.154 264.152L264.179 267.344L267.204 270.536C250.75 286.13 228.297 295.403 203.842 294.609L203.984 290.213ZM264.179 267.344L268.347 265.941C282.059 306.67 320.561 335.995 365.901 335.995V340.393V344.791C316.671 344.791 274.891 312.947 260.011 268.747L264.179 267.344Z" fill="#F9FEFE"/>
</g>
<path d="M365.901 340.393V344.791V344.791V340.393ZM473.208 233.085L477.606 233.085V233.085H473.208ZM473.078 227.808L468.686 228.021L468.462 223.404L473.083 223.41L473.078 227.808ZM473.209 227.808L473.209 232.206H473.209V227.808ZM580.516 120.5L584.914 120.5V120.5H580.516ZM480.244 13.4221L479.96 17.8107L475.846 17.5445V13.4221H480.244ZM480.244 13.1935V8.79568H484.642V13.1935H480.244ZM97.632 13.1935H93.2341V8.79568H97.632V13.1935ZM97.632 13.1994H102.03V17.6428L97.5866 17.597L97.632 13.1994ZM96.7531 13.1935V8.79568H96.7531L96.7531 13.1935ZM13.1935 96.7521H8.79564V96.7521H13.1935ZM96.7531 180.312L96.7531 184.71H96.7531V180.312ZM130.027 173.422L128.275 169.389L138.506 164.942L134.061 175.174L130.027 173.422ZM123.184 203.985L118.788 203.842V203.842L123.184 203.985ZM203.984 290.213L203.842 294.609H203.842L203.984 290.213ZM264.179 267.344L261.154 264.152L266.15 259.416L268.347 265.941L264.179 267.344ZM365.901 340.393V335.995C422.736 335.995 468.81 289.921 468.81 233.085H473.208H477.606C477.606 294.778 427.594 344.791 365.901 344.791V340.393ZM473.208 233.085L468.81 233.085C468.81 231.391 468.767 229.702 468.686 228.021L473.078 227.808L477.471 227.595C477.559 229.41 477.606 231.241 477.606 233.085L473.208 233.085ZM473.078 227.808L473.083 223.41C473.124 223.41 473.158 223.41 473.209 223.41V227.808V232.206C473.173 232.206 473.12 232.206 473.073 232.206L473.078 227.808ZM473.209 227.808L473.209 223.41C530.044 223.41 576.118 177.335 576.118 120.5H580.516H584.914C584.914 182.193 534.902 232.205 473.209 232.206L473.209 227.808ZM580.516 120.5L576.118 120.5C576.118 65.9337 533.646 21.2854 479.96 17.8107L480.244 13.4221L480.528 9.03339C538.811 12.8056 584.913 61.2662 584.914 120.5L580.516 120.5ZM480.244 13.4221H475.846V13.1935H480.244H484.642V13.4221H480.244ZM480.244 13.1935V17.5914H97.632V13.1935V8.79568H480.244V13.1935ZM97.632 13.1935H102.03V13.1994H97.632H93.2341V13.1935H97.632ZM97.632 13.1994L97.5866 17.597C97.2929 17.594 97.0209 17.5914 96.753 17.5914L96.7531 13.1935L96.7531 8.79568C97.0719 8.79568 97.3858 8.7988 97.6773 8.80179L97.632 13.1994ZM96.7531 13.1935V17.5914C53.0335 17.5914 17.5914 53.0327 17.5913 96.7521H13.1935H8.79564C8.79567 48.1748 48.1759 8.79568 96.7531 8.79568V13.1935ZM13.1935 96.7521H17.5913C17.5913 140.472 53.0335 175.914 96.7531 175.914V180.312V184.71C48.1758 184.71 8.79564 145.329 8.79564 96.7521H13.1935ZM96.7531 180.312L96.753 175.914C107.965 175.914 118.621 173.584 128.275 169.389L130.027 173.422L131.78 177.455C121.042 182.122 109.194 184.709 96.7531 184.71L96.7531 180.312ZM130.027 173.422L134.061 175.174C130.198 184.069 127.914 193.831 127.579 204.127L123.184 203.985L118.788 203.842C119.159 192.418 121.696 181.565 125.994 171.67L130.027 173.422ZM123.184 203.985L127.579 204.127C126.159 247.824 160.431 284.398 204.127 285.818L203.984 290.213L203.842 294.609C155.29 293.031 117.211 252.393 118.788 203.842L123.184 203.985ZM203.984 290.213L204.127 285.818C226.138 286.533 246.335 278.196 261.154 264.152L264.179 267.344L267.204 270.536C250.75 286.13 228.297 295.403 203.842 294.609L203.984 290.213ZM264.179 267.344L268.347 265.941C282.059 306.67 320.561 335.995 365.901 335.995V340.393V344.791C316.671 344.791 274.891 312.947 260.011 268.747L264.179 267.344Z" fill="#F9FEFE"/>
<defs>
<filter id="filter0_f_1652_1317" x="-3.8147e-05" y="2.28882e-05" width="593.709" height="353.586" filterUnits="userSpaceOnUse" color-interpolation-filters="sRGB">
<feFlood flood-opacity="0" result="BackgroundImageFix"/>
<feBlend mode="normal" in="SourceGraphic" in2="BackgroundImageFix" result="shape"/>
<feGaussianBlur stdDeviation="4.39785" result="effect1_foregroundBlur_1652_1317"/>
</filter>
</defs>
</svg>
