<svg width="315" height="266" viewBox="0 0 315 266" fill="none" xmlns="http://www.w3.org/2000/svg">
<g clip-path="url(#clip0_1557_5300)">
<path d="M235.331 192.338C166.507 223.744 117.219 221.97 109.925 221.777C94.8418 221.378 74.5722 213.7 66.0781 207.513L61.9264 199.492L60.4537 192.812L61.2135 183.737L62.1229 178.306L58.3369 175.304L53.9227 169.651L50.4799 163L48.0083 155.349L47.6956 147.077L51.2956 136.78L46.6356 120.589L50.5698 98.9565L58.994 88.3949L68.3501 81.0717L69.982 77.9946L73.0227 69.9715L79.8818 60.22L88.3747 54.5838L97.6847 51.0052L108.629 51.5419L112.21 46.9597L120.183 39.3602L128.791 34.9047L139.781 31.6968L153.257 37.1244L163.427 45.751L168.244 44.994L182.884 42.1292L191.844 41.7083L206.339 49.5848L217.28 64.0138L228.314 70.9534L236.636 81.2809L238.279 93.081L244.617 102.451L248.937 108.401L251.139 117.927L250.19 127.596L245.78 136.328L252.314 145.596L255.096 154.326L256.61 163.961L254.191 174.143L244.527 187.578L235.331 192.338Z" fill="url(#paint0_linear_1557_5300)"/>
<path d="M247.805 140.24C255.494 148.961 256.38 161.599 255.862 166.828C259.269 166.222 267.534 164.458 273.336 162.249C288.657 158.783 291.809 137.556 291.517 130.762C288.611 113.166 276.5 113.73 273.45 114.068C272.212 104.39 266.934 94.2897 264.45 90.4491C262.553 88.7021 257.512 84.7133 252.519 82.7338C247.526 80.7542 240.133 82.4471 237.062 83.541C237.127 85.9047 237.71 91.887 239.515 96.9063C252.996 108.383 250.828 123.876 248.059 130.187C247.266 132.169 246.104 136.954 247.805 140.24Z" fill="url(#paint1_linear_1557_5300)"/>
<path d="M20.7009 196.521C29.1353 207.832 51.1772 203.484 61.1439 199.897C60.4958 198.645 60.8266 191.296 61.073 187.779L61.1378 178.319C59.3649 176.012 55.0767 170.443 52.1069 166.623C43.6726 155.311 47.6697 142.874 50.7225 138.069C50.5085 136.857 49.4918 133.2 47.1371 128.267C17.2006 129.375 21.0525 151.194 21.3308 157.003C5.93746 169.436 10.158 182.382 20.7009 196.521Z" fill="url(#paint2_linear_1557_5300)"/>
<path d="M131.396 108.467L141.241 114.802C141.364 114.881 141.517 114.894 141.652 114.837L146.597 112.742C146.681 112.706 146.752 112.645 146.8 112.567L151.447 105.034C152.504 103.082 154.675 99.0972 154.907 98.7787C155.197 98.3806 157.307 94.3115 157.3 93.8189C157.295 93.4341 158.014 91.066 158.399 89.8492C158.417 89.7923 158.423 89.7336 158.417 89.6742C158.297 88.4623 158.014 86.0926 157.777 85.6346C157.534 85.1651 153.897 82.9301 152.109 81.8713C149.321 79.8412 143.193 75.5721 140.974 74.736C138.92 73.9622 136.862 72.0573 135.905 71.0061C135.778 70.8664 135.579 70.8177 135.403 70.8883L131.479 72.468C131.417 72.4926 131.363 72.5301 131.319 72.5788C130.291 73.7006 128.25 75.8649 127.79 76.1026C127.204 76.4064 122.22 86.4272 122.031 87.021C121.885 87.4808 118.467 92.4533 116.613 95.1179C116.506 95.2722 116.508 95.4774 116.619 95.6293L121.506 102.328C121.539 102.374 121.582 102.413 121.63 102.443L131.396 108.467Z" fill="url(#paint3_linear_1557_5300)"/>
<ellipse cx="205.115" cy="152.25" rx="14.3188" ry="8.81159" transform="rotate(-9.22545 205.115 152.25)" fill="#ED9E9F"/>
<ellipse cx="98.3815" cy="171.28" rx="14.3188" ry="8.81159" transform="rotate(-9.22545 98.3815 171.28)" fill="#ED9E9F"/>
<path d="M61.0357 199.208C49.0028 205.437 30.574 204.673 23.6951 199.188C18.4132 194.976 -0.923669 171.995 21.722 156.801" stroke="white" stroke-width="4.4058" stroke-linecap="round"/>
<path d="M46.9345 127.875C36.4516 127.431 16.7723 132.573 21.9176 156.699" stroke="white" stroke-width="4.4058" stroke-linecap="round"/>
<path d="M61.7608 182.4C54.0571 214.48 90.2001 221.884 110.019 221.48C124.878 222.554 169.083 219.236 227.027 197.381C272.103 178.953 253.75 148.285 246.873 138.792C245.82 137.338 245.7 135.422 246.521 133.826C258.272 110.991 243.152 101.204 238.62 94.9316C238.098 94.2085 237.965 93.2935 238.035 92.4042C239.469 74.3898 223.094 68.0327 218.097 65.3398C217.486 65.0102 217.011 64.4616 216.674 63.8544C199.528 33.0148 176.622 41.609 167.929 45.5626C166.283 46.3111 164.373 45.9308 163.059 44.689C136.119 19.2279 117.923 41.2392 112.131 49.2048C111.227 50.4488 109.745 51.1254 108.208 51.0627C79.5553 49.8928 71.4391 71.3908 69.2962 79.257C68.9812 80.4137 68.235 81.4196 67.2236 82.0633C38.3422 100.445 46.9807 126.678 50.426 135.53C50.9703 136.929 50.7673 138.498 50.1174 139.851C48.3999 143.426 45.9147 151.352 50.5604 161.718C53.9938 169.378 57.2944 173.617 59.6187 175.902C61.2812 177.536 62.3052 180.134 61.7608 182.4Z" stroke="white" stroke-width="4.4058" stroke-linecap="round"/>
<path d="M238.235 82.9334C248.175 79.773 269.112 81.4377 273.342 113.38" stroke="white" stroke-width="4.4058" stroke-linecap="round"/>
<path d="M273.538 113.279C282.156 111.877 294.618 119.979 290.967 140.721C289.477 149.181 281.663 165.877 256.739 166.126" stroke="white" stroke-width="4.4058" stroke-linecap="round"/>
<path d="M129.459 74.0534C131.4 70.7596 135.722 69.7941 138.879 71.9492L156.68 84.1001C159.553 86.0615 160.414 89.9146 158.649 92.9122L147.71 111.482C145.77 114.776 141.447 115.741 138.29 113.586L120.489 101.436C117.616 99.4747 116.755 95.6216 118.521 92.6239L129.459 74.0534Z" stroke="white" stroke-width="4.4058"/>
<path d="M142.658 153.804C135.769 157.47 146.307 161.186 152.438 162.586C154.045 161.036 168.345 151.117 158.191 150.345C158.191 150.345 153.33 150.29 150.317 150.945C147.197 151.624 142.658 153.804 142.658 153.804Z" fill="black"/>
<path d="M152.438 162.586C146.307 161.186 135.769 157.47 142.658 153.804C142.658 153.804 147.197 151.624 150.317 150.945C153.33 150.29 158.191 150.345 158.191 150.345C168.345 151.117 154.045 161.036 152.438 162.586ZM152.438 162.586L154.496 172.589" stroke="black" stroke-width="4.4058" stroke-linecap="round"/>
<path d="M142.125 159.25C142.284 159.481 146.453 160.938 149.777 162.064C151.207 162.549 152.783 162.257 153.951 161.301L155.857 159.743C156.073 159.567 156.272 159.37 156.451 159.156L159.319 155.719C159.664 155.306 159.886 154.805 159.961 154.272C160.177 152.742 159.148 151.318 157.634 151.011C156.368 150.754 155.209 150.498 155.014 150.39C154.69 150.211 150.517 151.077 148.092 151.616C147.791 151.682 147.498 151.782 147.218 151.911L144.393 153.211C142.791 153.949 141.766 155.574 141.881 157.334C141.944 158.297 142.027 159.107 142.125 159.25Z" fill="black"/>
<path d="M203.802 117.301C199.534 119.629 190.119 126.763 183.98 137.764C183.531 138.568 184.489 139.373 185.252 138.856C191.376 134.704 199.904 130.85 212.125 132.521" stroke="black" stroke-width="4.4058" stroke-linecap="round"/>
<path d="M95.8213 139.046C99.8704 137.479 110.678 137.575 122.715 149.63C123.305 150.221 122.795 151.198 121.97 151.074C112.445 149.643 102 148.907 90.9504 156.813" stroke="black" stroke-width="4.4058" stroke-linecap="round"/>
<path d="M133.912 173.647C144.11 183.703 151.417 176.773 154.229 171.968C159.825 175.001 169.332 177.218 175.008 165.712" stroke="black" stroke-width="4.4058" stroke-linecap="round"/>
</g>
<defs>
<linearGradient id="paint0_linear_1557_5300" x1="101.385" y1="47.8499" x2="291.306" y2="166.474" gradientUnits="userSpaceOnUse">
<stop stop-color="#F3ECDB"/>
<stop offset="0.523107" stop-color="#F2E4C9"/>
</linearGradient>
<linearGradient id="paint1_linear_1557_5300" x1="224.048" y1="111.991" x2="300.378" y2="131.299" gradientUnits="userSpaceOnUse">
<stop offset="0.442304" stop-color="#E1BD8D"/>
<stop offset="1" stop-color="#C39960"/>
</linearGradient>
<linearGradient id="paint2_linear_1557_5300" x1="0.153479" y1="166.497" x2="71.2212" y2="195.412" gradientUnits="userSpaceOnUse">
<stop offset="0.442304" stop-color="#E1BD8D"/>
<stop offset="1" stop-color="#C39960"/>
</linearGradient>
<linearGradient id="paint3_linear_1557_5300" x1="118.389" y1="79.2326" x2="150.83" y2="97.0923" gradientUnits="userSpaceOnUse">
<stop stop-color="#F3ECDB"/>
<stop offset="0.538925" stop-color="#A2EED8"/>
<stop offset="1" stop-color="#18A18C"/>
</linearGradient>
<clipPath id="clip0_1557_5300">
<rect width="304" height="211.478" fill="white" transform="translate(-24 57.6288) rotate(-10.9276)"/>
</clipPath>
</defs>
</svg>
