<svg width="687" height="492" viewBox="0 0 687 492" fill="none" xmlns="http://www.w3.org/2000/svg">
<g filter="url(#filter0_f_250_2316)">
<path d="M331.013 16C458.039 16 561.013 118.975 561.013 246C561.013 373.025 458.039 476 331.013 476C203.988 476 101.013 373.025 101.013 246C101.013 118.975 203.988 16 331.013 16Z" fill="url(#paint0_linear_250_2316)" stroke="white" stroke-width="10"/>
<mask id="mask0_250_2316" style="mask-type:alpha" maskUnits="userSpaceOnUse" x="106" y="21" width="451" height="450">
<path d="M331.013 26C452.516 26 551.013 124.497 551.013 246C551.013 367.503 452.516 466 331.013 466C209.511 466 111.013 367.503 111.013 246C111.013 124.497 209.511 26 331.013 26Z" fill="url(#paint1_linear_250_2316)" stroke="white" stroke-width="10"/>
</mask>
<g mask="url(#mask0_250_2316)">
<path d="M289.496 506.64C229.575 514.2 135.013 506.64 135.013 506.64L119.513 369C119.513 369 185.818 337.671 228.901 325.637C282.716 310.606 314.674 368.339 368.734 354.368C438.115 336.437 437.893 257.007 497.247 214.306C534.689 187.37 600.457 159 600.457 159L693.013 230.108C668.154 275.119 652.759 337.778 600.457 379.507C548.073 421.303 487.925 406.562 440.648 431.222C393.371 455.883 349.761 499.036 289.496 506.64Z" fill="url(#paint2_linear_250_2316)"/>
<path opacity="0.15" d="M161.856 189.367C111.493 195.291 32.0134 189.367 32.0134 189.367V102.142C32.0134 102.142 74.715 56.9846 110.926 47.5563C156.158 35.7795 183.019 81.0123 228.456 70.066C286.771 56.0176 286.584 -6.2138 336.472 -39.6688C367.942 -60.7729 423.22 -83 423.22 -83L501.013 -27.2885C480.119 7.97675 467.179 57.0679 423.22 89.762C379.191 122.508 328.636 110.959 288.9 130.28C249.164 149.6 212.509 183.41 161.856 189.367Z" fill="url(#paint3_linear_250_2316)"/>
<path opacity="0.73" d="M421.513 126.5C421.18 107.167 485.513 85 485.513 85H500.013L537.013 137.5C525.347 171.667 522.013 222 503.013 227C484.013 232 480.013 228 421.513 249C363.013 270 371.905 296.032 331.513 306C263.351 322.821 161.013 249 161.013 249C161.013 249 214.013 209 273.513 223.5C333.013 238 379.513 219.5 408.013 189.5C436.513 159.5 421.847 145.833 421.513 126.5Z" fill="#FAC575"/>
<path d="M243.513 126.5C200.824 144.671 130.013 118 125.013 118L135.013 100.5L219.013 40C247.18 31.6667 305.113 15 311.513 15C317.913 15 365.847 22.6667 389.013 26.5C365.68 35.6667 311.513 59.5 311.513 59.5C311.513 59.5 277.815 111.899 243.513 126.5Z" fill="url(#paint4_linear_250_2316)"/>
<path d="M278.513 353C217.562 351.478 167.513 370.333 125.013 381.5C156.347 408.333 221.013 463.4 229.013 469C239.013 476 298.013 465.5 332.513 462C360.113 459.2 365.513 427 393.513 426C421.513 425 420.279 436.898 452.513 436C489.175 434.978 541.347 414.667 536.513 394C531.68 373.333 507.513 354.5 522.013 324.5C536.513 294.5 568.013 294 591.013 282.5L569.013 190C559.847 199.5 536.513 218.5 536.513 218.5C536.513 218.5 478.847 261.167 452.513 282.5C426.18 303.833 432.116 356.179 393.513 374C352.064 393.135 324.152 354.14 278.513 353Z" fill="url(#paint5_linear_250_2316)"/>
<path d="M201.856 316.367C151.493 322.291 72.0134 316.367 72.0134 316.367V229.142C72.0134 229.142 114.715 183.985 150.926 174.556C196.158 162.779 223.019 208.012 268.456 197.066C326.771 183.018 326.584 120.786 376.472 87.3312C407.942 66.2271 463.22 44 463.22 44L541.013 99.7115C520.119 134.977 507.179 184.068 463.22 216.762C419.191 249.508 368.636 237.959 328.9 257.28C289.164 276.6 252.509 310.41 201.856 316.367Z" fill="url(#paint6_linear_250_2316)"/>
<path opacity="0.41" d="M328.856 518.367C278.493 524.291 199.013 518.367 199.013 518.367V431.142C199.013 431.142 241.715 385.985 277.926 376.556C323.158 364.779 350.019 410.012 395.456 399.066C453.771 385.018 453.584 322.786 503.472 289.331C534.942 268.227 590.22 246 590.22 246L668.013 301.712C647.119 336.977 634.179 386.068 590.22 418.762C546.191 451.508 495.636 439.959 455.9 459.28C416.164 478.6 379.509 512.41 328.856 518.367Z" fill="url(#paint7_linear_250_2316)"/>
<path d="M311.856 546.367C261.493 552.291 182.013 546.367 182.013 546.367V459.142C182.013 459.142 224.715 413.985 260.926 404.556C306.158 392.779 333.019 438.012 378.456 427.066C436.771 413.018 436.584 350.786 486.472 317.331C517.942 296.227 573.22 274 573.22 274L651.013 329.712C630.119 364.977 617.179 414.068 573.22 446.762C529.191 479.508 478.636 467.959 438.9 487.28C399.164 506.6 362.509 540.41 311.856 546.367Z" fill="url(#paint8_linear_250_2316)"/>
<path d="M311.856 546.367C261.493 552.291 182.013 546.367 182.013 546.367V459.142C182.013 459.142 224.715 413.985 260.926 404.556C306.158 392.779 333.019 438.012 378.456 427.066C436.771 413.018 436.584 350.786 486.472 317.331C517.942 296.227 573.22 274 573.22 274L651.013 329.712C630.119 364.977 617.179 414.068 573.22 446.762C529.191 479.508 478.636 467.959 438.9 487.28C399.164 506.6 362.509 540.41 311.856 546.367Z" fill="url(#paint9_linear_250_2316)"/>
<path opacity="0.73" d="M258.184 406.665C249.915 389.823 182.859 400.06 182.859 400.06L169.958 406.681L160.3 468.897C185.817 493.066 211.083 534.997 230.202 530.638C249.321 526.279 251.107 521 312.457 512.418C373.808 503.837 377.431 530.37 417.782 520.533C485.877 503.932 544.219 393.477 544.219 393.477C544.219 393.477 479.344 383.145 432.832 422.829C386.32 462.514 336.754 467.775 298.107 454.889C259.46 442.003 266.453 423.508 258.184 406.665Z" fill="url(#paint10_linear_250_2316)"/>
<path opacity="0.73" d="M90.7197 140.863C82.1889 123.51 14.8319 133.163 14.8319 133.163L1.93157 139.783L-7.01565 203.385C18.964 228.456 44.9112 271.714 64.098 267.487C83.2849 263.261 85.0172 257.876 146.652 249.848C208.286 241.821 212.262 269.042 252.748 259.467C321.071 243.31 378.413 130.907 378.413 130.907C378.413 130.907 312.996 119.519 266.681 159.587C220.366 199.654 170.549 204.426 131.495 190.749C92.4419 177.071 99.2505 158.215 90.7197 140.863Z" fill="#FAC575"/>
<path d="M-123.987 459.922C-123.987 459.922 23.1206 484.848 97.8574 459.922C154.848 440.915 146.991 405.805 199.499 383C308.045 335.855 453.161 394.563 548.616 371.436C644.071 348.309 632.581 292 632.581 292" stroke="#FAC575" stroke-width="2"/>
<path d="M43.1762 241.428C43.1762 241.428 133.904 247.489 172.126 213.813C201.273 188.133 189.354 154.78 215.1 125.944C268.321 66.3334 364.966 105.677 415.608 71.1805C466.249 36.6844 447.78 -16.9461 447.78 -16.9461" stroke="#FAC575" stroke-width="2"/>
<path d="M68.3861 265.5C68.3861 265.5 231.152 308.468 265.886 258.5C292.372 220.397 264.156 196.164 286.709 152.422C333.333 61.997 438.194 139.712 485.599 90.1002C533.004 40.4882 506.652 -49.9461 506.652 -49.9461" stroke="#FAC575" stroke-width="2"/>
</g>
<path fill-rule="evenodd" clip-rule="evenodd" d="M543.046 171.112C611.567 169.699 658.072 181.82 665.057 207.462C678.269 255.977 550.09 348.247 372.492 396.618C194.894 444.99 35.131 431.146 21.9169 382.631C14.8777 356.785 49.4126 322.416 110.076 288.627C111.391 295.081 113.166 302.052 114.19 305.937C80.0912 324.351 61.1836 341.204 64.4189 353.082C71.8131 380.227 192.047 371.117 332.97 332.735C473.893 294.352 582.14 241.23 574.747 214.085C572.992 207.644 564.884 203.246 551.654 200.794L551.514 200.5L543.046 171.112Z" fill="url(#paint11_linear_250_2316)"/>
<path d="M590.28 314.347C536.986 348.735 462.162 382.443 376.098 405.884C298.83 426.93 224.719 436.372 164.099 436.313L159.92 426.292C220.27 426.8 295.135 417.572 373.47 396.236C460.985 372.4 536.5 337.904 589.01 303.237L590.28 314.347ZM561.75 237.566C528.459 265.845 440.553 303.316 333.948 332.352C256.472 353.454 185.25 365.706 135.594 367.953L131.49 358.111C136.954 357.915 142.745 357.589 148.843 357.127C196.636 353.506 261.279 341.78 331.32 322.704C401.361 303.627 463.021 280.951 506.05 259.835C527.639 249.241 544.071 239.264 554.493 230.604C554.801 230.348 555.102 230.094 555.396 229.843L561.75 237.566Z" fill="white"/>
</g>
<g filter="url(#filter1_f_250_2316)">
<path fill-rule="evenodd" clip-rule="evenodd" d="M319.562 207.203C497.16 158.831 651.843 158.947 665.057 207.462C678.27 255.977 550.09 348.246 372.492 396.618C194.894 444.99 35.1309 431.145 21.9172 382.631C8.70446 334.116 141.964 255.575 319.562 207.203ZM574.747 214.085C567.353 186.94 447.119 196.051 306.196 234.434C165.273 272.816 57.0257 325.937 64.4191 353.082C71.813 380.227 192.047 371.117 332.97 332.734C473.893 294.352 582.141 241.23 574.747 214.085Z" fill="#D96E7C"/>
<path d="M553.957 166C585.461 166.024 612.161 169.09 631.987 175.387C651.562 181.604 665.882 191.468 669.881 206.147V206.148C673.837 220.676 666.997 237.244 653.803 253.799C640.43 270.579 619.639 288.504 593.108 306.25C539.998 341.774 463.041 377.138 373.807 401.442C284.572 425.747 199.692 434.462 135.288 430.949C103.116 429.195 75.8005 424.376 55.5361 416.767C35.56 409.265 21.0595 398.508 17.0928 383.945V383.944C13.0951 369.265 20.4361 353.501 34.1543 338.216C48.0491 322.734 69.5059 306.552 96.6465 290.556C150.992 258.525 229.147 226.647 318.248 202.379C407.35 178.111 490.875 165.953 553.957 166ZM548.68 205.351C534.735 203.08 515.062 202.843 490.923 204.672C442.727 208.324 377.762 220.124 307.511 239.258C237.259 258.392 175.283 281.168 131.892 302.461C110.159 313.126 93.3227 323.307 82.4561 332.335C77.0097 336.86 73.2951 340.907 71.1689 344.377C69.0422 347.848 68.8158 350.198 69.2432 351.768C69.6708 353.338 71.0577 355.249 74.6514 357.162C78.2435 359.075 83.4969 360.679 90.4854 361.817C104.43 364.088 124.104 364.324 148.243 362.495C196.439 358.843 261.405 347.044 331.656 327.91C401.907 308.776 463.884 286.001 507.274 264.707C529.008 254.042 545.844 243.861 556.711 234.832C562.157 230.307 565.872 226.26 567.998 222.79C570.125 219.319 570.35 216.969 569.923 215.399L569.831 215.101C569.313 213.59 567.884 211.799 564.515 210.005C560.922 208.092 555.668 206.489 548.68 205.351Z" stroke="white" stroke-width="10"/>
</g>
<path d="M553.957 166C585.461 166.024 612.161 169.09 631.987 175.387C651.562 181.604 665.882 191.468 669.881 206.147V206.148C673.837 220.676 666.997 237.244 653.803 253.799C640.43 270.579 619.639 288.504 593.108 306.25C539.998 341.774 463.041 377.138 373.807 401.442C284.572 425.747 199.692 434.462 135.288 430.949C103.116 429.195 75.8005 424.376 55.5361 416.767C35.56 409.265 21.0595 398.508 17.0928 383.945V383.944C13.0951 369.265 20.4361 353.501 34.1543 338.216C48.0491 322.734 69.5059 306.552 96.6465 290.556C150.992 258.525 229.147 226.647 318.248 202.379C407.35 178.111 490.875 165.953 553.957 166ZM548.68 205.351C534.735 203.08 515.062 202.843 490.923 204.672C442.727 208.324 377.762 220.124 307.511 239.258C237.259 258.392 175.283 281.168 131.892 302.461C110.159 313.126 93.3227 323.307 82.4561 332.335C77.0097 336.86 73.2951 340.907 71.1689 344.377C69.0422 347.848 68.8158 350.198 69.2432 351.768C69.6708 353.338 71.0577 355.249 74.6514 357.162C78.2435 359.075 83.4969 360.679 90.4854 361.817C104.43 364.088 124.104 364.324 148.243 362.495C196.439 358.843 261.405 347.044 331.656 327.91C401.907 308.776 463.884 286.001 507.274 264.707C529.008 254.042 545.844 243.861 556.711 234.832C562.157 230.307 565.872 226.26 567.998 222.79C570.125 219.319 570.35 216.969 569.923 215.399L569.831 215.101C569.313 213.59 567.884 211.799 564.515 210.005C560.922 208.092 555.668 206.489 548.68 205.351Z" fill="#D96E7C" stroke="white" stroke-width="10"/>
<path d="M331.013 16C458.039 16 561.013 118.975 561.013 246C561.013 373.025 458.039 476 331.013 476C203.988 476 101.013 373.025 101.013 246C101.013 118.975 203.988 16 331.013 16Z" fill="url(#paint12_linear_250_2316)" stroke="white" stroke-width="10"/>
<mask id="mask1_250_2316" style="mask-type:alpha" maskUnits="userSpaceOnUse" x="106" y="21" width="451" height="450">
<path d="M331.013 26C452.516 26 551.013 124.497 551.013 246C551.013 367.503 452.516 466 331.013 466C209.511 466 111.013 367.503 111.013 246C111.013 124.497 209.511 26 331.013 26Z" fill="url(#paint13_linear_250_2316)" stroke="white" stroke-width="10"/>
</mask>
<g mask="url(#mask1_250_2316)">
<path d="M289.496 506.64C229.575 514.2 135.013 506.64 135.013 506.64L119.513 369C119.513 369 185.818 337.671 228.901 325.637C282.716 310.606 314.674 368.339 368.734 354.368C438.115 336.437 437.893 257.007 497.247 214.306C534.689 187.37 600.457 159 600.457 159L693.013 230.108C668.154 275.119 652.759 337.778 600.457 379.507C548.073 421.303 487.925 406.562 440.648 431.222C393.371 455.883 349.761 499.036 289.496 506.64Z" fill="url(#paint14_linear_250_2316)"/>
<path opacity="0.15" d="M161.856 189.367C111.493 195.291 32.0134 189.367 32.0134 189.367V102.142C32.0134 102.142 74.715 56.9846 110.926 47.5563C156.158 35.7795 183.019 81.0123 228.456 70.066C286.771 56.0176 286.584 -6.2138 336.472 -39.6688C367.942 -60.7729 423.22 -83 423.22 -83L501.013 -27.2885C480.119 7.97675 467.179 57.0679 423.22 89.762C379.191 122.508 328.636 110.959 288.9 130.28C249.164 149.6 212.509 183.41 161.856 189.367Z" fill="url(#paint15_linear_250_2316)"/>
<path opacity="0.73" d="M421.513 126.5C421.18 107.167 485.513 85 485.513 85H500.013L537.013 137.5C525.347 171.667 522.013 222 503.013 227C484.013 232 480.013 228 421.513 249C363.013 270 371.905 296.032 331.513 306C263.351 322.821 161.013 249 161.013 249C161.013 249 214.013 209 273.513 223.5C333.013 238 379.513 219.5 408.013 189.5C436.513 159.5 421.847 145.833 421.513 126.5Z" fill="#FAC575"/>
<path d="M243.513 126.5C200.824 144.671 130.013 118 125.013 118L135.013 100.5L219.013 40C247.18 31.6667 305.113 15 311.513 15C317.913 15 365.847 22.6667 389.013 26.5C365.68 35.6667 311.513 59.5 311.513 59.5C311.513 59.5 277.815 111.899 243.513 126.5Z" fill="url(#paint16_linear_250_2316)"/>
<path d="M278.513 353C217.562 351.478 167.513 370.333 125.013 381.5C156.347 408.333 221.013 463.4 229.013 469C239.013 476 298.013 465.5 332.513 462C360.113 459.2 365.513 427 393.513 426C421.513 425 420.279 436.898 452.513 436C489.175 434.978 541.347 414.667 536.513 394C531.68 373.333 507.513 354.5 522.013 324.5C536.513 294.5 568.013 294 591.013 282.5L569.013 190C559.847 199.5 536.513 218.5 536.513 218.5C536.513 218.5 478.847 261.167 452.513 282.5C426.18 303.833 432.116 356.179 393.513 374C352.064 393.135 324.152 354.14 278.513 353Z" fill="url(#paint17_linear_250_2316)"/>
<path d="M201.856 316.367C151.493 322.291 72.0134 316.367 72.0134 316.367V229.142C72.0134 229.142 114.715 183.985 150.926 174.556C196.158 162.779 223.019 208.012 268.456 197.066C326.771 183.018 326.584 120.786 376.472 87.3312C407.942 66.2271 463.22 44 463.22 44L541.013 99.7115C520.119 134.977 507.179 184.068 463.22 216.762C419.191 249.508 368.636 237.959 328.9 257.28C289.164 276.6 252.509 310.41 201.856 316.367Z" fill="url(#paint18_linear_250_2316)"/>
<path opacity="0.41" d="M328.856 518.367C278.493 524.291 199.013 518.367 199.013 518.367V431.142C199.013 431.142 241.715 385.985 277.926 376.556C323.158 364.779 350.019 410.012 395.456 399.066C453.771 385.018 453.584 322.786 503.472 289.331C534.942 268.227 590.22 246 590.22 246L668.013 301.712C647.119 336.977 634.179 386.068 590.22 418.762C546.191 451.508 495.636 439.959 455.9 459.28C416.164 478.6 379.509 512.41 328.856 518.367Z" fill="url(#paint19_linear_250_2316)"/>
<path d="M311.856 546.367C261.493 552.291 182.013 546.367 182.013 546.367V459.142C182.013 459.142 224.715 413.985 260.926 404.556C306.158 392.779 333.019 438.012 378.456 427.066C436.771 413.018 436.584 350.786 486.472 317.331C517.942 296.227 573.22 274 573.22 274L651.013 329.712C630.119 364.977 617.179 414.068 573.22 446.762C529.191 479.508 478.636 467.959 438.9 487.28C399.164 506.6 362.509 540.41 311.856 546.367Z" fill="url(#paint20_linear_250_2316)"/>
<path d="M258.184 406.665C249.915 389.823 182.859 400.06 182.859 400.06L169.958 406.681L160.3 468.897C185.817 493.066 211.083 534.997 230.202 530.638C249.321 526.279 251.107 521 312.457 512.418C373.808 503.837 377.431 530.37 417.782 520.533C485.877 503.932 544.219 393.477 544.219 393.477C544.219 393.477 479.344 383.145 432.832 422.829C386.32 462.514 336.754 467.775 298.107 454.889C259.46 442.003 266.453 423.508 258.184 406.665Z" fill="url(#paint21_linear_250_2316)"/>
<path opacity="0.73" d="M90.7197 140.863C82.1889 123.51 14.8319 133.163 14.8319 133.163L1.93157 139.783L-7.01565 203.385C18.964 228.456 44.9112 271.714 64.098 267.487C83.2849 263.261 85.0172 257.876 146.652 249.848C208.286 241.821 212.262 269.042 252.748 259.467C321.071 243.31 378.413 130.907 378.413 130.907C378.413 130.907 312.996 119.519 266.681 159.587C220.366 199.654 170.549 204.426 131.495 190.749C92.4419 177.071 99.2505 158.215 90.7197 140.863Z" fill="#FAC575"/>
<path d="M-123.987 459.922C-123.987 459.922 23.1206 484.848 97.8574 459.922C154.848 440.915 146.991 405.805 199.499 383C308.045 335.855 453.161 394.563 548.616 371.436C644.071 348.309 632.581 292 632.581 292" stroke="#FAC575" stroke-width="2"/>
<path d="M43.1762 241.428C43.1762 241.428 133.904 247.489 172.126 213.813C201.273 188.133 189.354 154.78 215.1 125.944C268.321 66.3334 364.966 105.677 415.608 71.1805C466.249 36.6844 447.78 -16.9461 447.78 -16.9461" stroke="#FAC575" stroke-width="2"/>
<path d="M68.3861 265.5C68.3861 265.5 231.152 308.468 265.886 258.5C292.372 220.397 264.156 196.164 286.709 152.422C333.333 61.997 438.194 139.712 485.599 90.1002C533.004 40.4882 506.652 -49.9461 506.652 -49.9461" stroke="#FAC575" stroke-width="2"/>
</g>
<path fill-rule="evenodd" clip-rule="evenodd" d="M543.046 171.112C611.567 169.699 658.072 181.82 665.057 207.462C678.269 255.977 550.09 348.247 372.492 396.618C194.894 444.99 35.131 431.146 21.9169 382.631C14.8777 356.785 49.4126 322.416 110.076 288.627C111.391 295.081 113.166 302.052 114.19 305.937C80.0912 324.351 61.1836 341.204 64.4189 353.082C71.8131 380.227 192.047 371.117 332.97 332.735C473.893 294.352 582.14 241.23 574.747 214.085C572.992 207.644 564.884 203.246 551.654 200.794L551.514 200.5L543.046 171.112Z" fill="url(#paint22_linear_250_2316)"/>
<path d="M590.28 314.347C536.986 348.735 462.162 382.443 376.098 405.884C298.83 426.93 224.719 436.372 164.099 436.313L159.92 426.292C220.27 426.8 295.135 417.572 373.47 396.236C460.985 372.4 536.5 337.904 589.01 303.237L590.28 314.347ZM561.75 237.566C528.459 265.845 440.553 303.316 333.948 332.352C256.472 353.454 185.25 365.706 135.594 367.953L131.49 358.111C136.954 357.915 142.745 357.589 148.843 357.127C196.636 353.506 261.279 341.78 331.32 322.704C401.361 303.627 463.021 280.951 506.05 259.835C527.639 249.241 544.071 239.264 554.493 230.604C554.801 230.348 555.102 230.094 555.396 229.843L561.75 237.566Z" fill="white"/>
<defs>
<filter id="filter0_f_250_2316" x="10.0134" y="0" width="666.979" height="492" filterUnits="userSpaceOnUse" color-interpolation-filters="sRGB">
<feFlood flood-opacity="0" result="BackgroundImageFix"/>
<feBlend mode="normal" in="SourceGraphic" in2="BackgroundImageFix" result="shape"/>
<feGaussianBlur stdDeviation="5.5" result="effect1_foregroundBlur_250_2316"/>
</filter>
<filter id="filter1_f_250_2316" x="0" y="150" width="687.003" height="297.697" filterUnits="userSpaceOnUse" color-interpolation-filters="sRGB">
<feFlood flood-opacity="0" result="BackgroundImageFix"/>
<feBlend mode="normal" in="SourceGraphic" in2="BackgroundImageFix" result="shape"/>
<feGaussianBlur stdDeviation="5.5" result="effect1_foregroundBlur_250_2316"/>
</filter>
<linearGradient id="paint0_linear_250_2316" x1="209.513" y1="4.00001" x2="428.513" y2="330" gradientUnits="userSpaceOnUse">
<stop stop-color="#A4FEFB"/>
<stop offset="1" stop-color="#C9521F"/>
</linearGradient>
<linearGradient id="paint1_linear_250_2316" x1="214.913" y1="14.7556" x2="424.18" y2="326.267" gradientUnits="userSpaceOnUse">
<stop stop-color="#A4FEFB"/>
<stop offset="1" stop-color="#E48860"/>
</linearGradient>
<linearGradient id="paint2_linear_250_2316" x1="252.013" y1="290.5" x2="618.685" y2="461.786" gradientUnits="userSpaceOnUse">
<stop stop-color="#87E2DE"/>
<stop offset="0.959634" stop-color="#1C989A"/>
</linearGradient>
<linearGradient id="paint3_linear_250_2316" x1="242.448" y1="9.85257" x2="428.596" y2="174.848" gradientUnits="userSpaceOnUse">
<stop stop-color="#96A6CD"/>
<stop offset="0.959634" stop-color="#1C6E9A"/>
</linearGradient>
<linearGradient id="paint4_linear_250_2316" x1="207.013" y1="66" x2="429.513" y2="52.5" gradientUnits="userSpaceOnUse">
<stop stop-color="#CA3F3F"/>
<stop offset="0.721154" stop-color="#8B241B"/>
</linearGradient>
<linearGradient id="paint5_linear_250_2316" x1="209.513" y1="300.5" x2="508.013" y2="488" gradientUnits="userSpaceOnUse">
<stop stop-color="#CA3F3F"/>
<stop offset="0.959634" stop-color="#8B241B"/>
</linearGradient>
<linearGradient id="paint6_linear_250_2316" x1="282.448" y1="136.853" x2="468.596" y2="301.848" gradientUnits="userSpaceOnUse">
<stop stop-color="#CA3F3F"/>
<stop offset="0.697115" stop-color="#8B241B"/>
</linearGradient>
<linearGradient id="paint7_linear_250_2316" x1="409.448" y1="338.853" x2="595.596" y2="503.848" gradientUnits="userSpaceOnUse">
<stop stop-color="#A4B4B4"/>
<stop offset="0.959634" stop-color="#1C879A"/>
</linearGradient>
<linearGradient id="paint8_linear_250_2316" x1="392.448" y1="366.853" x2="578.596" y2="531.848" gradientUnits="userSpaceOnUse">
<stop stop-color="#CA643F"/>
<stop offset="0.959634" stop-color="#8B241B"/>
</linearGradient>
<linearGradient id="paint9_linear_250_2316" x1="392.448" y1="366.853" x2="578.596" y2="531.848" gradientUnits="userSpaceOnUse">
<stop stop-color="#5B91A2"/>
<stop offset="0.959634" stop-color="#091928"/>
</linearGradient>
<linearGradient id="paint10_linear_250_2316" x1="245.883" y1="367.716" x2="380.164" y2="606.074" gradientUnits="userSpaceOnUse">
<stop stop-color="#FAC575"/>
<stop offset="1" stop-color="#947445"/>
</linearGradient>
<linearGradient id="paint11_linear_250_2316" x1="570.014" y1="230" x2="202.514" y2="427.001" gradientUnits="userSpaceOnUse">
<stop stop-color="#E89E63"/>
<stop offset="1" stop-color="#FFC379"/>
</linearGradient>
<linearGradient id="paint12_linear_250_2316" x1="209.513" y1="4.00001" x2="428.513" y2="330" gradientUnits="userSpaceOnUse">
<stop stop-color="#A4F7FE"/>
<stop offset="1" stop-color="#A45D9E"/>
</linearGradient>
<linearGradient id="paint13_linear_250_2316" x1="214.913" y1="14.7556" x2="424.18" y2="326.267" gradientUnits="userSpaceOnUse">
<stop stop-color="#A4FEF8"/>
<stop offset="1" stop-color="#E460CA"/>
</linearGradient>
<linearGradient id="paint14_linear_250_2316" x1="252.013" y1="290.5" x2="618.685" y2="461.786" gradientUnits="userSpaceOnUse">
<stop stop-color="#87E2DE"/>
<stop offset="0.959634" stop-color="#1C989A"/>
</linearGradient>
<linearGradient id="paint15_linear_250_2316" x1="242.448" y1="9.85257" x2="428.596" y2="174.848" gradientUnits="userSpaceOnUse">
<stop stop-color="#05E6A3"/>
<stop offset="0.959634" stop-color="#1C9A85"/>
</linearGradient>
<linearGradient id="paint16_linear_250_2316" x1="207.013" y1="66" x2="429.513" y2="52.5" gradientUnits="userSpaceOnUse">
<stop stop-color="#A45D9E"/>
<stop offset="0.721154" stop-color="#873B79"/>
</linearGradient>
<linearGradient id="paint17_linear_250_2316" x1="209.513" y1="300.5" x2="508.013" y2="488" gradientUnits="userSpaceOnUse">
<stop stop-color="#A45D9E"/>
<stop offset="0.959634" stop-color="#873B79"/>
</linearGradient>
<linearGradient id="paint18_linear_250_2316" x1="282.448" y1="136.853" x2="468.596" y2="301.848" gradientUnits="userSpaceOnUse">
<stop stop-color="#A45D9E"/>
<stop offset="0.697115" stop-color="#873B79"/>
</linearGradient>
<linearGradient id="paint19_linear_250_2316" x1="409.448" y1="338.853" x2="595.596" y2="503.848" gradientUnits="userSpaceOnUse">
<stop stop-color="#A4B4B2"/>
<stop offset="0.959634" stop-color="#1C7D9A"/>
</linearGradient>
<linearGradient id="paint20_linear_250_2316" x1="392.448" y1="366.853" x2="578.596" y2="531.848" gradientUnits="userSpaceOnUse">
<stop stop-color="#479398"/>
<stop offset="0.959634" stop-color="#215D6C"/>
</linearGradient>
<linearGradient id="paint21_linear_250_2316" x1="245.883" y1="367.716" x2="380.164" y2="606.074" gradientUnits="userSpaceOnUse">
<stop stop-color="#FAC575"/>
<stop offset="1" stop-color="#947445"/>
</linearGradient>
<linearGradient id="paint22_linear_250_2316" x1="570.014" y1="230" x2="202.514" y2="427.001" gradientUnits="userSpaceOnUse">
<stop stop-color="#1893A1"/>
<stop offset="1" stop-color="#A2E4EE"/>
</linearGradient>
</defs>
</svg>
