<svg width="472" height="472" viewBox="0 0 472 472" fill="none" xmlns="http://www.w3.org/2000/svg">
<g filter="url(#filter0_df_1512_2492)">
<circle cx="236" cy="236" r="220" fill="url(#paint0_radial_1512_2492)" stroke="white" stroke-width="10"/>
<mask id="mask0_1512_2492" style="mask-type:alpha" maskUnits="userSpaceOnUse" x="21" y="21" width="430" height="430">
<circle cx="236" cy="236" r="215" fill="url(#paint1_radial_1512_2492)"/>
</mask>
<g mask="url(#mask0_1512_2492)">
<path d="M216.565 397.066C173.852 394.582 108.11 409.462 108.11 409.462C108.11 409.462 113.665 393.136 119.677 384.595C142.648 351.96 178.628 385.76 213.909 373.824C253.014 360.595 278.466 351.829 305.276 316.984C322.042 295.193 336.845 251.742 336.845 251.742C336.845 251.742 357.702 263.026 371.908 264.355C397.022 266.704 409.527 252.33 432.261 240.836C449.037 232.355 473.851 216 473.851 216L471.218 298.017C471.218 298.017 436.947 352.554 406.213 375.391C370.498 401.927 344.978 411.7 301.912 413.627C268.358 415.128 250.199 399.022 216.565 397.066Z" fill="#3A4F9E"/>
<path d="M-30.4109 297.305C-63.937 287.424 -107.788 310.467 -107.788 310.467C-107.788 310.467 -85.3962 352.644 -59.454 362.243C-33.9143 371.693 -17.3041 356.133 9.90657 355.059C38.9642 353.911 37.4185 345.077 59.5 364C68.4614 371.679 98.6983 365.155 108 372.419C130.252 389.795 144.935 373.108 173.158 372.419C201.449 371.728 239.146 364.425 265.565 354.281C303.321 339.783 325 295.134 325 295.134C325 295.134 244.436 354.55 210.648 340.724C176.859 326.898 153.423 323.02 119.635 309.194C85.8463 295.368 88.9643 332.488 55.4382 322.607L-30.4109 297.305Z" fill="url(#paint2_linear_1512_2492)"/>
<path d="M378.549 149.94C411.673 123.869 458.966 130.682 458.966 130.682C458.966 130.682 474.136 155.209 476.365 172.614C481.978 216.454 461.373 257.688 412.967 273.625C383.144 283.443 363.905 266.993 332.391 269.736C280.249 274.274 257.982 307.658 205.746 310.602C155.407 313.44 130.308 276.756 80.8436 286.321C62.4187 289.884 35.7055 301.77 35.7055 301.77C35.7055 301.77 43.5845 264.225 64.1969 251.359C95.3579 231.908 121.187 264.775 158.893 266.816C216.024 269.908 254.591 275.759 305.212 251.017C336.665 235.644 351.775 171.013 378.549 149.94Z" fill="url(#paint3_linear_1512_2492)"/>
<path d="M270.23 482.524C348.937 477.898 426.167 358.448 426.167 358.448C426.167 358.448 347.664 405.812 288.688 405.42C256.881 405.209 237.49 392.564 205.446 390.94C135.628 387.402 109.677 449.492 38.569 431.2C6.14105 422.858 -43.5641 353.751 -43.5426 392.776C-43.5287 417.942 -26.4367 432.713 -9.371 452.122C40.9403 509.343 82.2439 439.28 143.479 447.949C192.634 454.907 222.63 485.323 270.23 482.524Z" fill="url(#paint4_linear_1512_2492)"/>
<path d="M127.77 482.524C49.0635 477.898 -28.1672 358.448 -28.1672 358.448C-28.1672 358.448 50.336 405.812 109.312 405.42C141.119 405.209 160.51 392.564 192.554 390.94C262.372 387.402 288.323 449.492 359.431 431.2C391.859 422.858 441.564 353.751 441.543 392.776C441.529 417.942 424.437 432.713 407.371 452.122C357.06 509.343 315.756 439.28 254.521 447.949C205.366 454.907 175.37 485.323 127.77 482.524Z" fill="url(#paint5_linear_1512_2492)"/>
<path d="M220.291 -33.9779C298.854 -40.6148 392.319 66.6093 392.319 66.6093C392.319 66.6093 307.868 30.9165 249.549 39.7088C218.097 44.4506 200.706 59.7302 169.22 65.904C100.62 79.3553 66.0849 21.5972 -1.69067 49.8366C-32.5989 62.7148 -71.9484 138.2 -77.4885 99.57C-81.0612 74.6584 -66.2486 57.6029 -52.123 35.9597C-10.4797 -27.8466 40.3869 35.6148 99.7614 18.308C147.423 4.41544 172.779 -29.9642 220.291 -33.9779Z" fill="url(#paint6_linear_1512_2492)"/>
<path d="M79.2862 -13.6761C2.0419 2.11991 -57.3778 131.356 -57.3778 131.356C-57.3778 131.356 13.5743 73.2886 72.0047 65.2715C103.517 60.9478 124.511 70.7007 156.46 67.7413C226.069 61.2932 242.907 -3.86135 315.897 4.11089C349.182 7.74652 408.229 69.0647 402.646 30.4409C399.046 5.53329 380.023 -6.65068 360.366 -23.4299C302.413 -72.8964 271.516 2.33717 209.671 2.4835C160.026 2.60095 126.001 -23.229 79.2862 -13.6761Z" fill="url(#paint7_linear_1512_2492)"/>
<path d="M486.265 -21.1526C511.186 -45.6585 560.722 -45.9827 560.722 -45.9827C560.722 -45.9827 560.833 1.77012 542.468 22.4554C524.389 42.8197 502.408 36.916 477.898 48.783C451.724 61.4555 423.805 58.6247 413.238 85.7169C408.949 96.7117 402.785 74.9287 398 85.7169C386.554 111.525 367.282 128.297 342.059 140.981C316.777 153.696 280.083 165.007 252 168.5C211.865 173.492 153 140.981 153 140.981C153 140.981 270.766 158.787 294.061 130.677C317.357 102.568 336.205 88.1096 359.5 60.0001C382.795 31.8905 397.526 66.1045 422.448 41.5986L486.265 -21.1526Z" fill="url(#paint8_linear_1512_2492)"/>
<path d="M217.23 244.524C295.937 239.898 373.167 120.448 373.167 120.448C373.167 120.448 294.664 167.812 235.688 167.42C203.881 167.209 184.49 154.564 152.446 152.94C82.6284 149.402 56.6772 211.492 -14.431 193.2C-46.8589 184.858 -96.5641 115.751 -96.5426 154.776C-96.5287 179.942 -79.4367 194.713 -62.371 214.122C-12.0597 271.343 29.2439 201.28 90.4787 209.949C139.634 216.907 169.63 247.323 217.23 244.524Z" fill="url(#paint9_linear_1512_2492)"/>
<path d="M50 175.5C40.1835 173.736 26.5 165.5 26.5 165.5L50 113L87 77.0002C87 77.0002 115.533 81.8373 134 83.0002C152.123 84.1415 162.493 85.3456 180.5 83.0002C206.156 79.6586 218.511 69.2049 243.5 62.5002C253.792 59.7389 259.459 57.5568 270 56.0002C286.419 53.5756 295.968 54.5276 312.5 56.0002C327.496 57.336 350.5 62.5002 350.5 62.5002C350.5 62.5002 326.972 80.6453 312.5 93.0002C295.367 107.626 290.888 123.567 270 132C247.729 140.991 208.5 132 208.5 132C208.5 132 165.843 124.068 140.5 132C128.082 135.887 110.5 146.5 110.5 146.5C110.5 146.5 75.7878 180.134 50 175.5Z" fill="#3A4F9E"/>
<path d="M27.6914 181.469C16.5418 179.334 1 169.363 1 169.363L27.6914 105.803L69.716 62.2189C69.716 62.2189 102.124 68.075 123.099 69.4829C143.683 70.8646 155.461 72.3224 175.914 69.4829C205.054 65.4373 219.087 52.7814 247.469 44.6643C259.158 41.3213 265.595 38.6795 277.568 36.795C296.217 33.8596 307.063 35.0122 325.84 36.795C342.872 38.4122 369 44.6643 369 44.6643C369 44.6643 342.277 66.632 325.84 81.5896C306.38 99.2964 301.293 118.596 277.568 128.805C252.273 139.691 207.716 128.805 207.716 128.805C207.716 128.805 159.266 119.202 130.481 128.805C116.377 133.511 96.4074 146.36 96.4074 146.36C96.4074 146.36 56.9812 187.079 27.6914 181.469Z" stroke="#E3E8EA" stroke-width="2"/>
<path d="M15 281C15 281 43.0912 262.491 63.1877 256.588C107.208 243.656 134.179 279.386 179.276 271.7C224.049 264.07 239.924 228.698 284.413 219.388C320.081 211.923 344.822 236.289 377.503 219.388C423.329 195.689 373.67 104.881 435 95" stroke="#E3E8EA" stroke-width="2"/>
<path d="M-15.5 324C-15.5 324 14.1295 304.197 35.3266 297.881C81.7578 284.046 110.205 322.273 157.772 314.05C204.996 305.887 221.741 268.042 268.667 258.081C306.287 250.095 332.383 276.164 366.855 258.081C415.19 232.726 362.812 135.572 427.5 125" stroke="#E3E8EA" stroke-width="2"/>
</g>
</g>
<circle cx="236" cy="236" r="220" fill="url(#paint10_radial_1512_2492)" stroke="white" stroke-width="10"/>
<mask id="mask1_1512_2492" style="mask-type:alpha" maskUnits="userSpaceOnUse" x="21" y="21" width="430" height="430">
<circle cx="236" cy="236" r="215" fill="url(#paint11_radial_1512_2492)"/>
</mask>
<g mask="url(#mask1_1512_2492)">
<path d="M216.565 397.066C173.852 394.582 108.11 409.462 108.11 409.462C108.11 409.462 113.665 393.136 119.677 384.595C142.648 351.96 178.628 385.76 213.909 373.824C253.014 360.595 278.466 351.829 305.276 316.984C322.042 295.193 336.845 251.742 336.845 251.742C336.845 251.742 357.702 263.026 371.908 264.355C397.022 266.704 409.527 252.33 432.261 240.836C449.037 232.355 473.851 216 473.851 216L471.218 298.017C471.218 298.017 436.947 352.554 406.213 375.391C370.498 401.927 344.978 411.7 301.912 413.627C268.358 415.128 250.199 399.022 216.565 397.066Z" fill="#3A4F9E"/>
<path d="M-30.4109 297.305C-63.937 287.424 -107.788 310.467 -107.788 310.467C-107.788 310.467 -85.3962 352.644 -59.454 362.243C-33.9143 371.693 -17.3041 356.133 9.90657 355.059C38.9642 353.911 37.4185 345.077 59.5 364C68.4614 371.679 98.6983 365.155 108 372.419C130.252 389.795 144.935 373.108 173.158 372.419C201.449 371.728 239.146 364.425 265.565 354.281C303.321 339.783 325 295.134 325 295.134C325 295.134 244.436 354.55 210.648 340.724C176.859 326.898 153.423 323.02 119.635 309.194C85.8463 295.368 88.9643 332.488 55.4382 322.607L-30.4109 297.305Z" fill="url(#paint12_linear_1512_2492)"/>
<path d="M378.549 149.94C411.673 123.869 458.966 130.682 458.966 130.682C458.966 130.682 474.136 155.209 476.365 172.614C481.978 216.454 461.373 257.688 412.967 273.625C383.144 283.443 363.905 266.993 332.391 269.736C280.249 274.274 257.982 307.658 205.746 310.602C155.407 313.44 130.308 276.756 80.8436 286.321C62.4187 289.884 35.7055 301.77 35.7055 301.77C35.7055 301.77 43.5845 264.225 64.1969 251.359C95.3579 231.908 121.187 264.775 158.893 266.816C216.024 269.908 254.591 275.759 305.212 251.017C336.665 235.644 351.775 171.013 378.549 149.94Z" fill="url(#paint13_linear_1512_2492)"/>
<path d="M270.23 482.524C348.937 477.898 426.167 358.448 426.167 358.448C426.167 358.448 347.664 405.812 288.688 405.42C256.881 405.209 237.49 392.564 205.446 390.94C135.628 387.402 109.677 449.492 38.569 431.2C6.14105 422.858 -43.5641 353.751 -43.5426 392.776C-43.5287 417.942 -26.4367 432.713 -9.371 452.122C40.9403 509.343 82.2439 439.28 143.479 447.949C192.634 454.907 222.63 485.323 270.23 482.524Z" fill="url(#paint14_linear_1512_2492)"/>
<path d="M127.77 482.524C49.0635 477.898 -28.1672 358.448 -28.1672 358.448C-28.1672 358.448 50.336 405.812 109.312 405.42C141.119 405.209 160.51 392.564 192.554 390.94C262.372 387.402 288.323 449.492 359.431 431.2C391.859 422.858 441.564 353.751 441.543 392.776C441.529 417.942 424.437 432.713 407.371 452.122C357.06 509.343 315.756 439.28 254.521 447.949C205.366 454.907 175.37 485.323 127.77 482.524Z" fill="url(#paint15_linear_1512_2492)"/>
<path d="M220.291 -33.9779C298.854 -40.6148 392.319 66.6093 392.319 66.6093C392.319 66.6093 307.868 30.9165 249.549 39.7088C218.097 44.4506 200.706 59.7302 169.22 65.904C100.62 79.3553 66.0849 21.5972 -1.69067 49.8366C-32.5989 62.7148 -71.9484 138.2 -77.4885 99.57C-81.0612 74.6584 -66.2486 57.6029 -52.123 35.9597C-10.4797 -27.8466 40.3869 35.6148 99.7614 18.308C147.423 4.41544 172.779 -29.9642 220.291 -33.9779Z" fill="url(#paint16_linear_1512_2492)"/>
<path d="M79.2862 -13.6761C2.0419 2.11991 -57.3778 131.356 -57.3778 131.356C-57.3778 131.356 13.5743 73.2886 72.0047 65.2715C103.517 60.9478 124.511 70.7007 156.46 67.7413C226.069 61.2932 242.907 -3.86135 315.897 4.11089C349.182 7.74652 408.229 69.0647 402.646 30.4409C399.046 5.53329 380.023 -6.65068 360.366 -23.4299C302.413 -72.8964 271.516 2.33717 209.671 2.4835C160.026 2.60095 126.001 -23.229 79.2862 -13.6761Z" fill="url(#paint17_linear_1512_2492)"/>
<path d="M486.265 -21.1526C511.186 -45.6585 560.722 -45.9827 560.722 -45.9827C560.722 -45.9827 560.833 1.77012 542.468 22.4554C524.389 42.8197 502.408 36.916 477.898 48.783C451.724 61.4555 423.805 58.6247 413.238 85.7169C408.949 96.7117 402.785 74.9287 398 85.7169C386.554 111.525 367.282 128.297 342.059 140.981C316.777 153.696 280.083 165.007 252 168.5C211.865 173.492 153 140.981 153 140.981C153 140.981 270.766 158.787 294.061 130.677C317.357 102.568 336.205 88.1096 359.5 60.0001C382.795 31.8905 397.526 66.1045 422.448 41.5986L486.265 -21.1526Z" fill="url(#paint18_linear_1512_2492)"/>
<path d="M217.23 244.524C295.937 239.898 373.167 120.448 373.167 120.448C373.167 120.448 294.664 167.812 235.688 167.42C203.881 167.209 184.49 154.564 152.446 152.94C82.6284 149.402 56.6772 211.492 -14.431 193.2C-46.8589 184.858 -96.5641 115.751 -96.5426 154.776C-96.5287 179.942 -79.4367 194.713 -62.371 214.122C-12.0597 271.343 29.2439 201.28 90.4787 209.949C139.634 216.907 169.63 247.323 217.23 244.524Z" fill="url(#paint19_linear_1512_2492)"/>
<path d="M50 175.5C40.1835 173.736 26.5 165.5 26.5 165.5L50 113L87 77.0002C87 77.0002 115.533 81.8373 134 83.0002C152.123 84.1415 162.493 85.3456 180.5 83.0002C206.156 79.6586 218.511 69.2049 243.5 62.5002C253.792 59.7389 259.459 57.5568 270 56.0002C286.419 53.5756 295.968 54.5276 312.5 56.0002C327.496 57.336 350.5 62.5002 350.5 62.5002C350.5 62.5002 326.972 80.6453 312.5 93.0002C295.367 107.626 290.888 123.567 270 132C247.729 140.991 208.5 132 208.5 132C208.5 132 165.843 124.068 140.5 132C128.082 135.887 110.5 146.5 110.5 146.5C110.5 146.5 75.7878 180.134 50 175.5Z" fill="#3A4F9E"/>
<path d="M27.6914 181.469C16.5418 179.334 1 169.363 1 169.363L27.6914 105.803L69.716 62.2189C69.716 62.2189 102.124 68.075 123.099 69.4829C143.683 70.8646 155.461 72.3224 175.914 69.4829C205.054 65.4373 219.087 52.7814 247.469 44.6643C259.158 41.3213 265.595 38.6795 277.568 36.795C296.217 33.8596 307.063 35.0122 325.84 36.795C342.872 38.4122 369 44.6643 369 44.6643C369 44.6643 342.277 66.632 325.84 81.5896C306.38 99.2964 301.293 118.596 277.568 128.805C252.273 139.691 207.716 128.805 207.716 128.805C207.716 128.805 159.266 119.202 130.481 128.805C116.377 133.511 96.4074 146.36 96.4074 146.36C96.4074 146.36 56.9812 187.079 27.6914 181.469Z" stroke="#E3E8EA" stroke-width="2"/>
<path d="M15 281C15 281 43.0912 262.491 63.1877 256.588C107.208 243.656 134.179 279.386 179.276 271.7C224.049 264.07 239.924 228.698 284.413 219.388C320.081 211.923 344.822 236.289 377.503 219.388C423.329 195.689 373.67 104.881 435 95" stroke="#E3E8EA" stroke-width="2"/>
<path d="M-15.5 324C-15.5 324 14.1295 304.197 35.3266 297.881C81.7578 284.046 110.205 322.273 157.772 314.05C204.996 305.887 221.741 268.042 268.667 258.081C306.287 250.095 332.383 276.164 366.855 258.081C415.19 232.726 362.812 135.572 427.5 125" stroke="#E3E8EA" stroke-width="2"/>
</g>
<defs>
<filter id="filter0_df_1512_2492" x="0" y="0" width="472" height="472" filterUnits="userSpaceOnUse" color-interpolation-filters="sRGB">
<feFlood flood-opacity="0" result="BackgroundImageFix"/>
<feColorMatrix in="SourceAlpha" type="matrix" values="0 0 0 0 0 0 0 0 0 0 0 0 0 0 0 0 0 0 127 0" result="hardAlpha"/>
<feOffset dy="4"/>
<feGaussianBlur stdDeviation="2"/>
<feComposite in2="hardAlpha" operator="out"/>
<feColorMatrix type="matrix" values="0 0 0 0 0 0 0 0 0 0 0 0 0 0 0 0 0 0 0.25 0"/>
<feBlend mode="normal" in2="BackgroundImageFix" result="effect1_dropShadow_1512_2492"/>
<feBlend mode="normal" in="SourceGraphic" in2="effect1_dropShadow_1512_2492" result="shape"/>
<feGaussianBlur stdDeviation="5.5" result="effect2_foregroundBlur_1512_2492"/>
</filter>
<radialGradient id="paint0_radial_1512_2492" cx="0" cy="0" r="1" gradientUnits="userSpaceOnUse" gradientTransform="translate(128.5 110.5) rotate(72.949) scale(366.615)">
<stop stop-color="#95B5FF"/>
<stop offset="1" stop-color="#505C90"/>
</radialGradient>
<radialGradient id="paint1_radial_1512_2492" cx="0" cy="0" r="1" gradientUnits="userSpaceOnUse" gradientTransform="translate(133.278 116.078) rotate(72.949) scale(350.321)">
<stop stop-color="#95B5FF"/>
<stop offset="1" stop-color="#505C90"/>
</radialGradient>
<linearGradient id="paint2_linear_1512_2492" x1="100.136" y1="288.297" x2="66.0101" y2="399.348" gradientUnits="userSpaceOnUse">
<stop stop-color="#DDEEF9"/>
<stop offset="1" stop-color="#79A1BD"/>
</linearGradient>
<linearGradient id="paint3_linear_1512_2492" x1="265" y1="186.5" x2="383" y2="304.5" gradientUnits="userSpaceOnUse">
<stop stop-color="#414E82"/>
<stop offset="1" stop-color="#1A244B"/>
</linearGradient>
<linearGradient id="paint4_linear_1512_2492" x1="283" y1="334.5" x2="252" y2="476" gradientUnits="userSpaceOnUse">
<stop offset="0.54465" stop-color="#DDEEF9"/>
<stop offset="1" stop-color="#79A1BD"/>
</linearGradient>
<linearGradient id="paint5_linear_1512_2492" x1="115" y1="334.5" x2="146" y2="476" gradientUnits="userSpaceOnUse">
<stop offset="0.54465" stop-color="#DDEEF9"/>
<stop offset="1" stop-color="#79A1BD"/>
</linearGradient>
<linearGradient id="paint6_linear_1512_2492" x1="254.026" y1="110.716" x2="203.177" y2="-24.9222" gradientUnits="userSpaceOnUse">
<stop offset="0.54465" stop-color="#DDEEF9"/>
<stop offset="1" stop-color="#79A1BD"/>
</linearGradient>
<linearGradient id="paint7_linear_1512_2492" x1="87.741" y1="134.657" x2="98.2595" y2="-9.81617" gradientUnits="userSpaceOnUse">
<stop offset="0.54465" stop-color="#DDEEF9"/>
<stop offset="1" stop-color="#79A1BD"/>
</linearGradient>
<linearGradient id="paint8_linear_1512_2492" x1="366.86" y1="32.3819" x2="449.264" y2="114.275" gradientUnits="userSpaceOnUse">
<stop stop-color="#DDEEF9"/>
<stop offset="1" stop-color="#79A1BD"/>
</linearGradient>
<linearGradient id="paint9_linear_1512_2492" x1="230" y1="96.5" x2="190.465" y2="262.467" gradientUnits="userSpaceOnUse">
<stop offset="0.54465" stop-color="#414E82"/>
<stop offset="1" stop-color="#1A244B"/>
</linearGradient>
<radialGradient id="paint10_radial_1512_2492" cx="0" cy="0" r="1" gradientUnits="userSpaceOnUse" gradientTransform="translate(128.5 110.5) rotate(72.949) scale(366.615)">
<stop stop-color="#95B5FF"/>
<stop offset="1" stop-color="#505C90"/>
</radialGradient>
<radialGradient id="paint11_radial_1512_2492" cx="0" cy="0" r="1" gradientUnits="userSpaceOnUse" gradientTransform="translate(133.278 116.078) rotate(72.949) scale(350.321)">
<stop stop-color="#95B5FF"/>
<stop offset="1" stop-color="#505C90"/>
</radialGradient>
<linearGradient id="paint12_linear_1512_2492" x1="100.136" y1="288.297" x2="66.0101" y2="399.348" gradientUnits="userSpaceOnUse">
<stop stop-color="#DDEEF9"/>
<stop offset="1" stop-color="#79A1BD"/>
</linearGradient>
<linearGradient id="paint13_linear_1512_2492" x1="265" y1="186.5" x2="383" y2="304.5" gradientUnits="userSpaceOnUse">
<stop stop-color="#414E82"/>
<stop offset="1" stop-color="#1A244B"/>
</linearGradient>
<linearGradient id="paint14_linear_1512_2492" x1="283" y1="334.5" x2="252" y2="476" gradientUnits="userSpaceOnUse">
<stop offset="0.54465" stop-color="#DDEEF9"/>
<stop offset="1" stop-color="#79A1BD"/>
</linearGradient>
<linearGradient id="paint15_linear_1512_2492" x1="115" y1="334.5" x2="146" y2="476" gradientUnits="userSpaceOnUse">
<stop offset="0.54465" stop-color="#DDEEF9"/>
<stop offset="1" stop-color="#79A1BD"/>
</linearGradient>
<linearGradient id="paint16_linear_1512_2492" x1="254.026" y1="110.716" x2="203.177" y2="-24.9222" gradientUnits="userSpaceOnUse">
<stop offset="0.54465" stop-color="#DDEEF9"/>
<stop offset="1" stop-color="#79A1BD"/>
</linearGradient>
<linearGradient id="paint17_linear_1512_2492" x1="87.741" y1="134.657" x2="98.2595" y2="-9.81617" gradientUnits="userSpaceOnUse">
<stop offset="0.54465" stop-color="#DDEEF9"/>
<stop offset="1" stop-color="#79A1BD"/>
</linearGradient>
<linearGradient id="paint18_linear_1512_2492" x1="366.86" y1="32.3819" x2="449.264" y2="114.275" gradientUnits="userSpaceOnUse">
<stop stop-color="#DDEEF9"/>
<stop offset="1" stop-color="#79A1BD"/>
</linearGradient>
<linearGradient id="paint19_linear_1512_2492" x1="230" y1="96.5" x2="190.465" y2="262.467" gradientUnits="userSpaceOnUse">
<stop offset="0.54465" stop-color="#414E82"/>
<stop offset="1" stop-color="#1A244B"/>
</linearGradient>
</defs>
</svg>
