<svg width="472" height="472" viewBox="0 0 472 472" fill="none" xmlns="http://www.w3.org/2000/svg">
<g filter="url(#filter0_df_1512_2741)">
<circle cx="236" cy="236" r="220" fill="#FBE4AA" stroke="white" stroke-width="10"/>
<mask id="mask0_1512_2741" style="mask-type:alpha" maskUnits="userSpaceOnUse" x="21" y="21" width="430" height="430">
<circle cx="236" cy="236" r="210" fill="#FBF1AA" stroke="white" stroke-width="10"/>
</mask>
<g mask="url(#mask0_1512_2741)">
<path opacity="0.45" d="M305.352 112.089C368.21 106.773 462.969 76.7331 462.969 76.7331L505 142.394L462.969 166.386C462.969 166.386 403.972 204.001 361.393 215C306.034 229.301 272.161 215 214.984 215C163.28 215 133.213 225.502 82.5859 215C34.6377 205.053 -33 166.386 -33 166.386L32.849 66C32.849 66 135.82 105.565 205.177 112.089C244.126 115.753 266.37 115.385 305.352 112.089Z" fill="url(#paint0_linear_1512_2741)"/>
<path opacity="0.45" d="M305.352 352.089C368.21 346.773 462.969 316.733 462.969 316.733L505 382.394L462.969 406.386C462.969 406.386 403.972 444.001 361.393 455C306.034 469.301 272.161 455 214.984 455C163.28 455 133.213 465.502 82.5859 455C34.6377 445.053 -33 406.386 -33 406.386L32.849 306C32.849 306 135.82 345.565 205.177 352.089C244.126 355.753 266.37 355.385 305.352 352.089Z" fill="url(#paint1_linear_1512_2741)"/>
<path d="M206.5 72.5C161.421 68.2993 94 44.5 94 44.5L64 96.5C64 96.5 82.1163 108.352 94 115.5C121.471 132.023 135.638 145.326 166.5 154C205.788 165.042 230.19 154 271 154C307.905 154 329.505 162.142 365.5 154C400.178 146.156 448 115.5 448 115.5L401 36C401 36 327.839 67.3499 278 72.5C250.225 75.37 234.302 75.0908 206.5 72.5Z" fill="url(#paint2_linear_1512_2741)"/>
<path d="M291.352 309.089C354.21 303.773 448.969 273.733 448.969 273.733L491 339.394L448.969 363.386C448.969 363.386 389.972 401.001 347.393 412C292.034 426.301 258.161 412 200.984 412C149.28 412 119.213 422.502 68.5859 412C20.6377 402.053 -47 363.386 -47 363.386L18.849 263C18.849 263 121.82 302.565 191.177 309.089C230.126 312.753 252.37 312.385 291.352 309.089Z" fill="url(#paint3_linear_1512_2741)"/>
<path d="M112.5 227.5C74.8054 220.626 17 205 17 205V281C48.8333 295.5 81.5003 322.17 128 324.5C155.773 325.892 155.5 317.5 198.5 314.5C241.5 311.5 268.643 352.145 309.5 335.5C337.761 323.986 339.126 296.351 365.5 281C385.729 269.226 389.516 271.481 404.5 253.5C407 250.5 409.379 239.107 395.5 227.5C364.794 201.82 339.268 238.437 299.5 243C226.699 251.352 184.59 240.646 112.5 227.5Z" fill="url(#paint4_linear_1512_2741)"/>
<path d="M288.5 127.5C338.203 123.405 412 95 412 95L450 148.5C450 148.5 470 203.167 433 198C396 192.833 350.799 162.707 299.5 175.5C273.654 181.946 264.539 202.71 238 205C200.404 208.245 159.486 200.651 150.5 164C145.875 145.137 149.24 131.791 159 115C184.534 71.0744 237.864 131.672 288.5 127.5Z" fill="url(#paint5_linear_1512_2741)"/>
<path d="M214.5 423.5C189.5 418.667 149.86 359.222 120 385.5C111.218 393.228 103.19 398.806 103.5 410.5C103.912 426.047 134.5 435.5 134.5 435.5C166.667 442.333 232.4 456 238 456C243.6 456 293.667 448.667 318 445L390 399.5C363.167 410.667 337.337 431.61 299.5 435.5C266.152 438.928 239.5 428.333 214.5 423.5Z" fill="url(#paint6_linear_1512_2741)"/>
<path d="M358.413 81.5C328.553 107.778 288.913 48.3333 263.913 43.5C238.913 38.6667 212.261 28.0718 178.913 31.5C141.076 35.3896 115.246 56.3333 88.4128 67.5L160.413 22C184.746 18.3333 234.813 11 240.413 11C246.013 11 311.746 24.6667 343.913 31.5C343.913 31.5 374.501 40.953 374.913 56.5C375.223 68.1937 367.194 73.7719 358.413 81.5Z" fill="url(#paint7_linear_1512_2741)"/>
<path d="M27.4535 360.059C27.4535 360.059 146.857 327.858 167.944 336.214C189.032 344.569 207.625 359.186 235.609 359.869C283.998 361.05 300.374 311.747 342.239 296.685C384.105 281.623 407.037 295.633 434.104 291.039L463.095 247" stroke="#D3A34D" stroke-width="2.61468"/>
<path d="M6.09651 220.577C6.09651 220.577 80.7548 168.495 119.76 188.664C158.765 208.833 200.268 234.58 256.119 232.212C342.952 228.53 353.885 123.357 438.883 105.228C495.993 93.0474 546.296 153.774 588.202 113.108C603.498 98.2649 609.264 78.1284 615.767 66.0035" stroke="#D3A34D" stroke-width="2.91054"/>
<path d="M-45.4926 148.083C-45.4926 148.083 24.536 106.178 58.157 126.657C91.778 147.136 127.284 172.76 177.381 174.138C255.268 176.28 271.628 82.9045 348.779 72.0115C400.616 64.6927 441.803 122.151 481.826 88.4049C496.434 76.0875 502.851 58.4398 509.426 48.0033" stroke="#D3A34D" stroke-width="2.60934"/>
<path d="M124.744 362.082C132.082 372.378 118.299 379.045 111.136 384.15C103.973 389.254 93.6006 392.474 86.2627 382.178C78.9247 371.882 77.4003 351.97 84.563 346.865C91.7256 341.76 117.406 351.786 124.744 362.082Z" fill="url(#paint8_linear_1512_2741)"/>
<path d="M397 109.5C404.338 119.796 408.663 131.895 401.5 137C394.337 142.105 364.6 140.474 357.263 130.178C349.925 119.882 357.837 90.1049 365 85C372.163 79.8951 389.662 99.2041 397 109.5Z" fill="url(#paint9_linear_1512_2741)"/>
</g>
</g>
<circle cx="236" cy="236" r="220" fill="#FBE4AA" stroke="white" stroke-width="10"/>
<mask id="mask1_1512_2741" style="mask-type:alpha" maskUnits="userSpaceOnUse" x="21" y="21" width="430" height="430">
<circle cx="236" cy="236" r="210" fill="#FBF1AA" stroke="white" stroke-width="10"/>
</mask>
<g mask="url(#mask1_1512_2741)">
<path opacity="0.45" d="M305.352 112.089C368.21 106.773 462.969 76.7331 462.969 76.7331L505 142.394L462.969 166.386C462.969 166.386 403.972 204.001 361.393 215C306.034 229.301 272.161 215 214.984 215C163.28 215 133.213 225.502 82.5859 215C34.6377 205.053 -33 166.386 -33 166.386L32.849 66C32.849 66 135.82 105.565 205.177 112.089C244.126 115.753 266.37 115.385 305.352 112.089Z" fill="url(#paint10_linear_1512_2741)"/>
<path opacity="0.45" d="M305.352 352.089C368.21 346.773 462.969 316.733 462.969 316.733L505 382.394L462.969 406.386C462.969 406.386 403.972 444.001 361.393 455C306.034 469.301 272.161 455 214.984 455C163.28 455 133.213 465.502 82.5859 455C34.6377 445.053 -33 406.386 -33 406.386L32.849 306C32.849 306 135.82 345.565 205.177 352.089C244.126 355.753 266.37 355.385 305.352 352.089Z" fill="url(#paint11_linear_1512_2741)"/>
<path d="M206.5 72.5C161.421 68.2993 94 44.5 94 44.5L64 96.5C64 96.5 82.1163 108.352 94 115.5C121.471 132.023 135.638 145.326 166.5 154C205.788 165.042 230.19 154 271 154C307.905 154 329.505 162.142 365.5 154C400.178 146.156 448 115.5 448 115.5L401 36C401 36 327.839 67.3499 278 72.5C250.225 75.37 234.302 75.0908 206.5 72.5Z" fill="url(#paint12_linear_1512_2741)"/>
<path d="M291.352 309.089C354.21 303.773 448.969 273.733 448.969 273.733L491 339.394L448.969 363.386C448.969 363.386 389.972 401.001 347.393 412C292.034 426.301 258.161 412 200.984 412C149.28 412 119.213 422.502 68.5859 412C20.6377 402.053 -47 363.386 -47 363.386L18.849 263C18.849 263 121.82 302.565 191.177 309.089C230.126 312.753 252.37 312.385 291.352 309.089Z" fill="url(#paint13_linear_1512_2741)"/>
<path d="M112.5 228.5C74.8054 221.626 17 206 17 206V282C48.8333 296.5 81.5003 323.17 128 325.5C155.773 326.892 155.5 318.5 198.5 315.5C241.5 312.5 268.643 353.145 309.5 336.5C337.761 324.986 339.126 297.351 365.5 282C385.729 270.226 389.516 272.481 404.5 254.5C407 251.5 409.379 240.107 395.5 228.5C364.794 202.82 339.268 239.437 299.5 244C226.699 252.352 184.59 241.646 112.5 228.5Z" fill="url(#paint14_linear_1512_2741)"/>
<path d="M288.5 128.5C338.203 124.405 412 96 412 96L450 149.5C450 149.5 470 204.167 433 199C396 193.833 350.799 163.707 299.5 176.5C273.654 182.946 264.539 203.71 238 206C200.404 209.245 159.486 201.651 150.5 165C145.875 146.137 149.24 132.791 159 116C184.534 72.0744 237.864 132.672 288.5 128.5Z" fill="url(#paint15_linear_1512_2741)"/>
<path d="M214.5 424.5C189.5 419.667 149.86 360.222 120 386.5C111.218 394.228 103.19 399.806 103.5 411.5C103.912 427.047 134.5 436.5 134.5 436.5C166.667 443.333 232.4 457 238 457C243.6 457 293.667 449.667 318 446L390 400.5C363.167 411.667 337.337 432.61 299.5 436.5C266.152 439.928 239.5 429.333 214.5 424.5Z" fill="url(#paint16_linear_1512_2741)"/>
<path d="M358.413 81.5C328.553 107.778 288.913 48.3333 263.913 43.5C238.913 38.6667 212.261 28.0718 178.913 31.5C141.076 35.3896 115.246 56.3333 88.4128 67.5L160.413 22C184.746 18.3333 234.813 11 240.413 11C246.013 11 311.746 24.6667 343.913 31.5C343.913 31.5 374.501 40.953 374.913 56.5C375.223 68.1937 367.194 73.7719 358.413 81.5Z" fill="url(#paint17_linear_1512_2741)"/>
<path d="M27.4535 360.059C27.4535 360.059 146.857 327.858 167.944 336.214C189.032 344.569 207.625 359.186 235.609 359.869C283.998 361.05 300.374 311.747 342.239 296.685C384.105 281.623 407.037 295.633 434.104 291.039L463.095 247" stroke="#D3A34D" stroke-width="2.61468"/>
<path d="M6.09651 220.577C6.09651 220.577 80.7548 168.495 119.76 188.664C158.765 208.833 200.268 234.58 256.119 232.212C342.952 228.53 353.885 123.357 438.883 105.228C495.993 93.0474 546.296 153.774 588.202 113.108C603.498 98.2649 609.264 78.1284 615.767 66.0035" stroke="#D3A34D" stroke-width="2.91054"/>
<path d="M-45.4926 148.083C-45.4926 148.083 24.536 106.178 58.157 126.657C91.778 147.136 127.284 172.76 177.381 174.138C255.268 176.28 271.628 82.9045 348.779 72.0115C400.616 64.6927 441.803 122.151 481.826 88.4049C496.434 76.0875 502.851 58.4398 509.426 48.0033" stroke="#D3A34D" stroke-width="2.60934"/>
<path d="M124.744 362.082C132.082 372.378 118.299 379.045 111.136 384.15C103.973 389.254 93.6006 392.474 86.2627 382.178C78.9247 371.882 77.4003 351.97 84.563 346.865C91.7256 341.76 117.406 351.786 124.744 362.082Z" fill="url(#paint18_linear_1512_2741)"/>
<path d="M397 109.5C404.338 119.796 408.663 131.895 401.5 137C394.337 142.105 364.6 140.474 357.263 130.178C349.925 119.882 357.837 90.1049 365 85C372.163 79.8951 389.662 99.2041 397 109.5Z" fill="url(#paint19_linear_1512_2741)"/>
</g>
<defs>
<filter id="filter0_df_1512_2741" x="0" y="0" width="472" height="472" filterUnits="userSpaceOnUse" color-interpolation-filters="sRGB">
<feFlood flood-opacity="0" result="BackgroundImageFix"/>
<feColorMatrix in="SourceAlpha" type="matrix" values="0 0 0 0 0 0 0 0 0 0 0 0 0 0 0 0 0 0 127 0" result="hardAlpha"/>
<feOffset dy="4"/>
<feGaussianBlur stdDeviation="2"/>
<feComposite in2="hardAlpha" operator="out"/>
<feColorMatrix type="matrix" values="0 0 0 0 0 0 0 0 0 0 0 0 0 0 0 0 0 0 0.25 0"/>
<feBlend mode="normal" in2="BackgroundImageFix" result="effect1_dropShadow_1512_2741"/>
<feBlend mode="normal" in="SourceGraphic" in2="effect1_dropShadow_1512_2741" result="shape"/>
<feGaussianBlur stdDeviation="5.5" result="effect2_foregroundBlur_1512_2741"/>
</filter>
<linearGradient id="paint0_linear_1512_2741" x1="129.5" y1="141" x2="384.5" y2="316" gradientUnits="userSpaceOnUse">
<stop stop-color="#F5D59C"/>
<stop offset="1" stop-color="#CC993E"/>
</linearGradient>
<linearGradient id="paint1_linear_1512_2741" x1="129.5" y1="381" x2="384.5" y2="556" gradientUnits="userSpaceOnUse">
<stop stop-color="#F5D59C"/>
<stop offset="1" stop-color="#CC993E"/>
</linearGradient>
<linearGradient id="paint2_linear_1512_2741" x1="64" y1="95" x2="439" y2="172" gradientUnits="userSpaceOnUse">
<stop stop-color="#F5D59C"/>
<stop offset="1" stop-color="#CC993E"/>
</linearGradient>
<linearGradient id="paint3_linear_1512_2741" x1="115.5" y1="338" x2="370.5" y2="513" gradientUnits="userSpaceOnUse">
<stop stop-color="#F5D59C"/>
<stop offset="1" stop-color="#CC993E"/>
</linearGradient>
<linearGradient id="paint4_linear_1512_2741" x1="236.5" y1="117" x2="303" y2="339.5" gradientUnits="userSpaceOnUse">
<stop stop-color="#FEFFFE"/>
<stop offset="1" stop-color="#FAF1D1"/>
</linearGradient>
<linearGradient id="paint5_linear_1512_2741" x1="236.5" y1="117" x2="303" y2="339.5" gradientUnits="userSpaceOnUse">
<stop stop-color="#FEFFFE"/>
<stop offset="1" stop-color="#FAF1D1"/>
</linearGradient>
<linearGradient id="paint6_linear_1512_2741" x1="236.5" y1="117" x2="303" y2="339.5" gradientUnits="userSpaceOnUse">
<stop stop-color="#FEFFFE"/>
<stop offset="1" stop-color="#FAF1D1"/>
</linearGradient>
<linearGradient id="paint7_linear_1512_2741" x1="241.913" y1="350" x2="175.413" y2="127.5" gradientUnits="userSpaceOnUse">
<stop stop-color="#FEFFFE"/>
<stop offset="1" stop-color="#FAF1D1"/>
</linearGradient>
<linearGradient id="paint8_linear_1512_2741" x1="86.5084" y1="345.478" x2="113.206" y2="382.938" gradientUnits="userSpaceOnUse">
<stop stop-color="#E9C789"/>
<stop offset="1" stop-color="#BE9B5C"/>
</linearGradient>
<linearGradient id="paint9_linear_1512_2741" x1="357.508" y1="93.4783" x2="384.206" y2="130.938" gradientUnits="userSpaceOnUse">
<stop stop-color="#E9C789"/>
<stop offset="1" stop-color="#BE9B5C"/>
</linearGradient>
<linearGradient id="paint10_linear_1512_2741" x1="129.5" y1="141" x2="384.5" y2="316" gradientUnits="userSpaceOnUse">
<stop stop-color="#F5D59C"/>
<stop offset="1" stop-color="#CC993E"/>
</linearGradient>
<linearGradient id="paint11_linear_1512_2741" x1="129.5" y1="381" x2="384.5" y2="556" gradientUnits="userSpaceOnUse">
<stop stop-color="#F5D59C"/>
<stop offset="1" stop-color="#CC993E"/>
</linearGradient>
<linearGradient id="paint12_linear_1512_2741" x1="64" y1="95" x2="439" y2="172" gradientUnits="userSpaceOnUse">
<stop stop-color="#F5D59C"/>
<stop offset="1" stop-color="#CC993E"/>
</linearGradient>
<linearGradient id="paint13_linear_1512_2741" x1="115.5" y1="338" x2="370.5" y2="513" gradientUnits="userSpaceOnUse">
<stop stop-color="#F5D59C"/>
<stop offset="1" stop-color="#CC993E"/>
</linearGradient>
<linearGradient id="paint14_linear_1512_2741" x1="236.5" y1="118" x2="303" y2="340.5" gradientUnits="userSpaceOnUse">
<stop stop-color="#FEFFFE"/>
<stop offset="1" stop-color="#FAF1D1"/>
</linearGradient>
<linearGradient id="paint15_linear_1512_2741" x1="236.5" y1="118" x2="303" y2="340.5" gradientUnits="userSpaceOnUse">
<stop stop-color="#FEFFFE"/>
<stop offset="1" stop-color="#FAF1D1"/>
</linearGradient>
<linearGradient id="paint16_linear_1512_2741" x1="236.5" y1="118" x2="303" y2="340.5" gradientUnits="userSpaceOnUse">
<stop stop-color="#FEFFFE"/>
<stop offset="1" stop-color="#FAF1D1"/>
</linearGradient>
<linearGradient id="paint17_linear_1512_2741" x1="241.913" y1="350" x2="175.413" y2="127.5" gradientUnits="userSpaceOnUse">
<stop stop-color="#FEFFFE"/>
<stop offset="1" stop-color="#FAF1D1"/>
</linearGradient>
<linearGradient id="paint18_linear_1512_2741" x1="86.5084" y1="345.478" x2="113.206" y2="382.938" gradientUnits="userSpaceOnUse">
<stop stop-color="#E9C789"/>
<stop offset="1" stop-color="#BE9B5C"/>
</linearGradient>
<linearGradient id="paint19_linear_1512_2741" x1="357.508" y1="93.4783" x2="384.206" y2="130.938" gradientUnits="userSpaceOnUse">
<stop stop-color="#E9C789"/>
<stop offset="1" stop-color="#BE9B5C"/>
</linearGradient>
</defs>
</svg>
