<svg width="687" height="492" viewBox="0 0 687 492" fill="none" xmlns="http://www.w3.org/2000/svg">
<g filter="url(#filter0_df_250_2258)">
<path d="M354.992 16C482.018 16 584.992 118.975 584.992 246C584.992 373.025 482.018 476 354.992 476C227.967 476 124.992 373.025 124.992 246C124.992 118.975 227.967 16 354.992 16Z" fill="url(#paint0_linear_250_2258)" stroke="white" stroke-width="10"/>
<path d="M553.957 110.382C585.461 110.405 612.161 113.471 631.987 119.769C651.562 125.986 665.882 135.85 669.881 150.529V150.53C673.837 165.058 666.997 181.626 653.803 198.181C640.43 214.961 619.639 232.886 593.108 250.632C539.998 286.156 463.041 321.52 373.807 345.824C284.572 370.129 199.692 378.843 135.288 375.331C103.116 373.576 75.8005 368.758 55.5361 361.148C35.56 353.647 21.0595 342.89 17.0928 328.327V328.326C13.0951 313.647 20.4361 297.882 34.1543 282.598C48.0491 267.116 69.5059 250.934 96.6465 234.938C150.992 202.907 229.147 171.029 318.248 146.761C407.35 122.493 490.875 110.335 553.957 110.382ZM548.68 149.732C534.735 147.462 515.062 147.225 490.923 149.054C442.727 152.706 377.762 164.506 307.511 183.64C237.259 202.774 175.283 225.549 131.892 246.843C110.159 257.508 93.3227 267.688 82.4561 276.717C77.0097 281.242 73.2951 285.289 71.1689 288.759C69.0422 292.23 68.8158 294.579 69.2432 296.149C69.6708 297.719 71.0577 299.631 74.6514 301.544C78.2435 303.457 83.4969 305.061 90.4854 306.199C104.43 308.47 124.104 308.706 148.243 306.877C196.439 303.225 261.405 291.426 331.656 272.292C401.907 253.158 463.884 230.382 507.274 209.089C529.008 198.424 545.844 188.242 556.711 179.214C562.157 174.689 565.872 170.642 567.998 167.172C570.125 163.701 570.35 161.351 569.923 159.781L569.831 159.482C569.313 157.972 567.884 156.18 564.515 154.387C560.922 152.474 555.668 150.87 548.68 149.732Z" fill="#D96E7C" stroke="white" stroke-width="10"/>
<mask id="mask0_250_2258" style="mask-type:alpha" maskUnits="userSpaceOnUse" x="129" y="21" width="451" height="450">
<circle cx="354.992" cy="246" r="225" fill="white"/>
</mask>
<g mask="url(#mask0_250_2258)">
<path fill-rule="evenodd" clip-rule="evenodd" d="M272.215 401.849C297.019 421.978 396.171 319.263 359.176 415.809C353.09 431.691 411.325 468.362 467.637 472.089C523.95 475.816 494.725 378.352 500.964 347.937C507.204 317.523 539.769 369.214 558.616 374.626C631.226 395.474 630.613 276.427 676.741 244.526C612.956 223.96 602.883 228.937 574.049 296.139L573.628 297.12C560.044 328.773 447.855 281.912 445.337 303.593C443.17 322.259 460.823 358.712 446.239 374.872C426.143 397.139 383.668 383.7 375.172 358.56C348.455 279.499 262.381 393.868 272.215 401.849Z" fill="url(#paint1_linear_250_2258)"/>
<path fill-rule="evenodd" clip-rule="evenodd" d="M319.562 151.585C497.16 103.213 651.843 103.329 665.057 151.844C678.27 200.358 550.09 292.628 372.492 341C194.894 389.372 35.1309 375.527 21.9172 327.013C8.70446 278.498 141.964 199.957 319.562 151.585ZM574.747 158.467C567.353 131.322 447.119 140.433 306.196 178.815C165.273 217.198 57.0257 270.319 64.4191 297.464C71.813 324.609 192.047 315.499 332.97 277.116C473.893 238.733 582.141 185.612 574.747 158.467Z" fill="#D96E7C"/>
<path fill-rule="evenodd" clip-rule="evenodd" d="M319.562 151.585C497.16 103.213 651.843 103.329 665.057 151.844C678.27 200.358 550.09 292.628 372.492 341C194.894 389.372 35.1309 375.527 21.9172 327.013C8.70446 278.498 141.964 199.957 319.562 151.585ZM574.747 158.467C567.353 131.322 447.119 140.433 306.196 178.815C165.273 217.198 57.0257 270.319 64.4191 297.464C71.813 324.609 192.047 315.499 332.97 277.116C473.893 238.733 582.141 185.612 574.747 158.467Z" fill="#D96E7C"/>
<path d="M354.992 21C450.707 21 532.461 80.7656 564.976 165.014L538.992 188L504.992 219L305.492 279.5C270.659 282.333 248.192 289.3 140.992 308.5L134.972 293.292C131.71 278.043 129.992 262.222 129.992 246C129.992 121.736 230.728 21 354.992 21Z" fill="#FFB3BD"/>
<path d="M644.492 201.323C638.491 207.164 630.72 229.467 620.133 253.439C619.17 256.582 617.803 259.544 616.108 262.311C600.274 296.183 578.653 329.769 548.365 322.295C493.824 308.835 456.492 342.084 456.492 368.5C455.364 391.243 425.516 436 346.992 411.823C268.469 387.646 181.492 472.322 158.492 411.823L98.992 330.823C156.779 282.52 279.493 327.102 258.992 278.5C233.366 217.747 365.111 208.889 561.903 287.089C579.796 290.178 604.996 280.448 616.108 262.311C617.493 259.347 618.835 256.381 620.133 253.439C621.9 247.678 622.309 241.311 620.893 234.436C615.091 206.272 628.375 169.44 644.492 201.323Z" fill="url(#paint2_linear_250_2258)"/>
<path d="M619.492 61.323C613.492 67.1639 605.721 89.4673 595.134 113.44C594.17 116.582 592.803 119.544 591.108 122.311C575.274 156.183 553.653 189.769 523.365 182.295C468.824 168.836 426.178 194.823 426.178 221.239C425.049 243.983 403.162 283.425 324.638 259.249C246.115 235.072 156.492 332.323 133.492 271.823L73.9922 190.823C131.78 142.52 352.281 249.095 331.78 200.492C306.153 139.739 340.111 68.8889 536.904 147.089C554.796 150.178 579.996 140.448 591.108 122.311C592.494 119.347 593.835 116.381 595.134 113.44C596.9 107.678 597.309 101.311 595.893 94.4363C590.091 66.2718 603.375 29.4406 619.492 61.323Z" fill="url(#paint3_linear_250_2258)"/>
<path fill-rule="evenodd" clip-rule="evenodd" d="M110.492 174.5C134.082 196.038 239.047 99.2719 196.492 193.5C189.492 209 245.492 249 301.492 256C357.492 263 333.992 164 341.992 134C349.992 104 379.492 157.5 397.992 164C469.265 189.041 475.586 70.1606 523.492 41C461.014 16.7544 450.668 21.1359 417.97 86.5452L417.492 87.5C402.088 118.308 292.818 64.9941 289.042 86.4914C285.792 105 301.292 142.418 285.792 157.702C264.433 178.761 222.813 162.871 215.795 137.279C193.727 56.7968 101.139 165.96 110.492 174.5Z" fill="url(#paint4_linear_250_2258)"/>
</g>
<path fill-rule="evenodd" clip-rule="evenodd" d="M536.993 115.652C608.82 113.386 657.869 125.453 665.057 151.843C678.27 200.358 550.09 292.628 372.493 341C194.895 389.372 35.1313 375.527 21.9176 327.012C14.2227 298.757 56.2115 260.317 127.707 223.584L125.876 244.245C84.4775 265 60.8319 284.29 64.4195 297.464C71.8134 324.608 192.047 315.499 332.97 277.116C473.894 238.733 582.141 185.612 574.748 158.467C572.416 149.909 558.868 144.956 536.993 143.386V115.652Z" fill="url(#paint5_linear_250_2258)"/>
<path d="M590.28 258.729C536.986 293.116 462.163 326.826 376.099 350.267C298.831 371.312 224.72 380.754 164.1 380.695L159.921 370.674C220.271 371.183 295.136 361.954 373.471 340.618C460.986 316.782 536.5 282.285 589.01 247.618L590.28 258.729ZM561.751 181.947C528.46 210.226 440.555 247.698 333.948 276.734C256.473 297.836 185.251 310.089 135.595 312.335L131.491 302.493C136.956 302.298 142.746 301.972 148.844 301.51C196.637 297.889 261.279 286.163 331.32 267.086C401.362 248.009 463.022 225.334 506.051 204.218C527.64 193.623 544.071 183.646 554.494 174.986C554.802 174.731 555.102 174.477 555.396 174.227L561.751 181.947Z" fill="white"/>
<path d="M556.492 146.5L536.492 113L527.992 123L530.992 142L541.492 147L556.492 146.5Z" fill="#FFB3BD"/>
</g>
<path d="M354.992 16C482.018 16 584.992 118.975 584.992 246C584.992 373.025 482.018 476 354.992 476C227.967 476 124.992 373.025 124.992 246C124.992 118.975 227.967 16 354.992 16Z" fill="url(#paint6_linear_250_2258)" stroke="white" stroke-width="10"/>
<path d="M553.957 110.382C585.461 110.405 612.161 113.471 631.987 119.769C651.562 125.986 665.882 135.85 669.881 150.529V150.53C673.837 165.058 666.997 181.626 653.803 198.181C640.43 214.961 619.639 232.886 593.108 250.632C539.998 286.156 463.041 321.52 373.807 345.824C284.572 370.129 199.692 378.843 135.288 375.331C103.116 373.576 75.8005 368.758 55.5361 361.148C35.56 353.647 21.0595 342.89 17.0928 328.327V328.326C13.0951 313.647 20.4361 297.882 34.1543 282.598C48.0491 267.116 69.5059 250.934 96.6465 234.938C150.992 202.907 229.147 171.029 318.248 146.761C407.35 122.493 490.875 110.335 553.957 110.382ZM548.68 149.732C534.735 147.462 515.062 147.225 490.923 149.054C442.727 152.706 377.762 164.506 307.511 183.64C237.259 202.774 175.283 225.549 131.892 246.843C110.159 257.508 93.3227 267.688 82.4561 276.717C77.0097 281.242 73.2951 285.289 71.1689 288.759C69.0422 292.23 68.8158 294.579 69.2432 296.149C69.6708 297.719 71.0577 299.631 74.6514 301.544C78.2435 303.457 83.4969 305.061 90.4854 306.199C104.43 308.47 124.104 308.706 148.243 306.877C196.439 303.225 261.405 291.426 331.656 272.292C401.907 253.158 463.884 230.382 507.274 209.089C529.008 198.424 545.844 188.242 556.711 179.214C562.157 174.689 565.872 170.642 567.998 167.172C570.125 163.701 570.35 161.351 569.923 159.781L569.831 159.482C569.313 157.972 567.884 156.18 564.515 154.387C560.922 152.474 555.668 150.87 548.68 149.732Z" fill="#D96E7C" stroke="white" stroke-width="10"/>
<mask id="mask1_250_2258" style="mask-type:alpha" maskUnits="userSpaceOnUse" x="129" y="21" width="451" height="450">
<circle cx="354.992" cy="246" r="225" fill="white"/>
</mask>
<g mask="url(#mask1_250_2258)">
<path fill-rule="evenodd" clip-rule="evenodd" d="M272.215 401.849C297.019 421.978 396.171 319.263 359.176 415.809C353.09 431.691 411.325 468.362 467.637 472.089C523.95 475.816 494.725 378.352 500.964 347.937C507.204 317.523 539.769 369.214 558.616 374.626C631.226 395.474 630.613 276.427 676.741 244.526C612.956 223.96 602.883 228.937 574.049 296.139L573.628 297.12C560.044 328.773 447.855 281.912 445.337 303.593C443.17 322.259 460.823 358.712 446.239 374.872C426.143 397.139 383.668 383.7 375.172 358.56C348.455 279.499 262.381 393.868 272.215 401.849Z" fill="url(#paint7_linear_250_2258)"/>
<path fill-rule="evenodd" clip-rule="evenodd" d="M319.562 151.585C497.16 103.213 651.843 103.329 665.057 151.844C678.27 200.358 550.09 292.628 372.492 341C194.894 389.372 35.1309 375.527 21.9172 327.013C8.70446 278.498 141.964 199.957 319.562 151.585ZM574.747 158.467C567.353 131.322 447.119 140.433 306.196 178.815C165.273 217.198 57.0257 270.319 64.4191 297.464C71.813 324.609 192.047 315.499 332.97 277.116C473.893 238.733 582.141 185.612 574.747 158.467Z" fill="#D96E7C"/>
<path fill-rule="evenodd" clip-rule="evenodd" d="M319.562 151.585C497.16 103.213 651.843 103.329 665.057 151.844C678.27 200.358 550.09 292.628 372.492 341C194.894 389.372 35.1309 375.527 21.9172 327.013C8.70446 278.498 141.964 199.957 319.562 151.585ZM574.747 158.467C567.353 131.322 447.119 140.433 306.196 178.815C165.273 217.198 57.0257 270.319 64.4191 297.464C71.813 324.609 192.047 315.499 332.97 277.116C473.893 238.733 582.141 185.612 574.747 158.467Z" fill="#D96E7C"/>
<path d="M354.992 21C450.707 21 532.461 80.7656 564.976 165.014L538.992 188L504.992 219L305.492 279.5C270.659 282.333 248.192 289.3 140.992 308.5L134.972 293.292C131.71 278.043 129.992 262.222 129.992 246C129.992 121.736 230.728 21 354.992 21Z" fill="#FFB3BD"/>
<path d="M644.492 201.323C638.491 207.164 630.72 229.467 620.133 253.439C619.17 256.582 617.803 259.544 616.108 262.311C600.274 296.183 578.653 329.769 548.365 322.295C493.824 308.835 456.492 342.084 456.492 368.5C455.364 391.243 425.516 436 346.992 411.823C268.469 387.646 181.492 472.322 158.492 411.823L98.992 330.823C156.779 282.52 279.493 327.102 258.992 278.5C233.366 217.747 365.111 208.889 561.903 287.089C579.796 290.178 604.996 280.448 616.108 262.311C617.493 259.347 618.835 256.381 620.133 253.439C621.9 247.678 622.309 241.311 620.893 234.436C615.091 206.272 628.375 169.44 644.492 201.323Z" fill="url(#paint8_linear_250_2258)"/>
<path d="M619.492 61.323C613.492 67.1639 605.721 89.4673 595.134 113.44C594.17 116.582 592.803 119.544 591.108 122.311C575.274 156.183 553.653 189.769 523.365 182.295C468.824 168.836 426.178 194.823 426.178 221.239C425.049 243.983 403.162 283.425 324.638 259.249C246.115 235.072 156.492 332.323 133.492 271.823L73.9922 190.823C131.78 142.52 352.281 249.095 331.78 200.492C306.153 139.739 340.111 68.8889 536.904 147.089C554.796 150.178 579.996 140.448 591.108 122.311C592.494 119.347 593.835 116.381 595.134 113.44C596.9 107.678 597.309 101.311 595.893 94.4363C590.091 66.2718 603.375 29.4406 619.492 61.323Z" fill="url(#paint9_linear_250_2258)"/>
<path fill-rule="evenodd" clip-rule="evenodd" d="M110.492 174.5C134.082 196.038 239.047 99.2719 196.492 193.5C189.492 209 245.492 249 301.492 256C357.492 263 333.992 164 341.992 134C349.992 104 379.492 157.5 397.992 164C469.265 189.041 475.586 70.1606 523.492 41C461.014 16.7544 450.668 21.1359 417.97 86.5452L417.492 87.5C402.088 118.308 292.818 64.9941 289.042 86.4914C285.792 105 301.292 142.418 285.792 157.702C264.433 178.761 222.813 162.871 215.795 137.279C193.727 56.7968 101.139 165.96 110.492 174.5Z" fill="url(#paint10_linear_250_2258)"/>
</g>
<path fill-rule="evenodd" clip-rule="evenodd" d="M536.993 115.652C608.82 113.386 657.869 125.453 665.057 151.843C678.27 200.358 550.09 292.628 372.493 341C194.895 389.372 35.1313 375.527 21.9176 327.012C14.2227 298.757 56.2115 260.317 127.707 223.584L125.876 244.245C84.4775 265 60.8319 284.29 64.4195 297.464C71.8134 324.608 192.047 315.499 332.97 277.116C473.894 238.733 582.141 185.612 574.748 158.467C572.416 149.909 558.868 144.956 536.993 143.386V115.652Z" fill="url(#paint11_linear_250_2258)"/>
<path d="M590.28 258.729C536.986 293.116 462.163 326.826 376.099 350.267C298.831 371.312 224.72 380.754 164.1 380.695L159.921 370.674C220.271 371.183 295.136 361.954 373.471 340.618C460.986 316.782 536.5 282.285 589.01 247.618L590.28 258.729ZM561.751 181.947C528.46 210.226 440.555 247.698 333.948 276.734C256.473 297.836 185.251 310.089 135.595 312.335L131.491 302.493C136.956 302.298 142.746 301.972 148.844 301.51C196.637 297.889 261.279 286.163 331.32 267.086C401.362 248.009 463.022 225.334 506.051 204.218C527.64 193.623 544.071 183.646 554.494 174.986C554.802 174.731 555.102 174.477 555.396 174.227L561.751 181.947Z" fill="white"/>
<path d="M556.492 146.5L536.492 113L527.992 123L530.992 142L541.492 147L556.492 146.5Z" fill="#FFB3BD"/>
<defs>
<filter id="filter0_df_250_2258" x="0" y="0" width="687.003" height="492" filterUnits="userSpaceOnUse" color-interpolation-filters="sRGB">
<feFlood flood-opacity="0" result="BackgroundImageFix"/>
<feColorMatrix in="SourceAlpha" type="matrix" values="0 0 0 0 0 0 0 0 0 0 0 0 0 0 0 0 0 0 127 0" result="hardAlpha"/>
<feOffset dy="4"/>
<feGaussianBlur stdDeviation="2"/>
<feComposite in2="hardAlpha" operator="out"/>
<feColorMatrix type="matrix" values="0 0 0 0 0 0 0 0 0 0 0 0 0 0 0 0 0 0 0.25 0"/>
<feBlend mode="normal" in2="BackgroundImageFix" result="effect1_dropShadow_250_2258"/>
<feBlend mode="normal" in="SourceGraphic" in2="effect1_dropShadow_250_2258" result="shape"/>
<feGaussianBlur stdDeviation="5.5" result="effect2_foregroundBlur_250_2258"/>
</filter>
<linearGradient id="paint0_linear_250_2258" x1="263.992" y1="34" x2="528.992" y2="411.5" gradientUnits="userSpaceOnUse">
<stop stop-color="#FFB3BD"/>
<stop offset="0.997658" stop-color="#B85864"/>
</linearGradient>
<linearGradient id="paint1_linear_250_2258" x1="467.921" y1="234.774" x2="481.736" y2="471.62" gradientUnits="userSpaceOnUse">
<stop stop-color="#FFDFEE"/>
<stop offset="1" stop-color="#E681A1"/>
</linearGradient>
<linearGradient id="paint2_linear_250_2258" x1="414.188" y1="406.822" x2="414.188" y2="226.822" gradientUnits="userSpaceOnUse">
<stop stop-color="#E28090"/>
<stop offset="1" stop-color="#FFDEEE"/>
</linearGradient>
<linearGradient id="paint3_linear_250_2258" x1="389.188" y1="266.822" x2="389.188" y2="86.8224" gradientUnits="userSpaceOnUse">
<stop stop-color="#E28090"/>
<stop offset="1" stop-color="#FFDEEE"/>
</linearGradient>
<linearGradient id="paint4_linear_250_2258" x1="315.595" y1="19.1047" x2="315.595" y2="256.353" gradientUnits="userSpaceOnUse">
<stop stop-color="#FFDFEE"/>
<stop offset="1" stop-color="#E681A1"/>
</linearGradient>
<linearGradient id="paint5_linear_250_2258" x1="343.504" y1="115.382" x2="553.493" y2="392.5" gradientUnits="userSpaceOnUse">
<stop stop-color="#D96E7C"/>
<stop offset="0.988255" stop-color="#733A42"/>
</linearGradient>
<linearGradient id="paint6_linear_250_2258" x1="263.992" y1="34" x2="528.992" y2="411.5" gradientUnits="userSpaceOnUse">
<stop stop-color="#FFB3BD"/>
<stop offset="0.997658" stop-color="#B85864"/>
</linearGradient>
<linearGradient id="paint7_linear_250_2258" x1="467.921" y1="234.774" x2="481.736" y2="471.62" gradientUnits="userSpaceOnUse">
<stop stop-color="#FFDFEE"/>
<stop offset="1" stop-color="#E681A1"/>
</linearGradient>
<linearGradient id="paint8_linear_250_2258" x1="414.188" y1="406.822" x2="414.188" y2="226.822" gradientUnits="userSpaceOnUse">
<stop stop-color="#E28090"/>
<stop offset="1" stop-color="#FFDEEE"/>
</linearGradient>
<linearGradient id="paint9_linear_250_2258" x1="389.188" y1="266.822" x2="389.188" y2="86.8224" gradientUnits="userSpaceOnUse">
<stop stop-color="#E28090"/>
<stop offset="1" stop-color="#FFDEEE"/>
</linearGradient>
<linearGradient id="paint10_linear_250_2258" x1="315.595" y1="19.1047" x2="315.595" y2="256.353" gradientUnits="userSpaceOnUse">
<stop stop-color="#FFDFEE"/>
<stop offset="1" stop-color="#E681A1"/>
</linearGradient>
<linearGradient id="paint11_linear_250_2258" x1="343.504" y1="115.382" x2="553.493" y2="392.5" gradientUnits="userSpaceOnUse">
<stop stop-color="#D96E7C"/>
<stop offset="0.988255" stop-color="#733A42"/>
</linearGradient>
</defs>
</svg>
