<svg width="625" height="436" viewBox="0 0 625 436" fill="none" xmlns="http://www.w3.org/2000/svg">
<rect width="625" height="436" fill="#817D7C"/>
<path d="M355.27 152.38C355.27 140.303 351.271 130.614 343.273 123.312C335.274 116.01 324.669 112.359 311.458 112.359C303.314 112.359 295.945 114.117 289.35 117.633C282.756 121.149 277.066 126.272 272.28 133.001C267.787 139.461 261.676 143.185 253.947 144.173C246.218 145.162 239.551 143.123 233.945 138.056C230.013 134.405 227.839 129.912 227.424 124.576C227.008 119.24 228.339 114.184 231.417 109.41C240.404 95.9295 251.852 85.4708 265.759 78.034C279.667 70.5972 294.9 66.8732 311.458 66.8619C338.701 66.8619 360.82 74.5852 377.817 90.0317C394.814 105.478 403.306 125.699 403.295 150.694C403.295 163.333 400.627 174.707 395.291 184.817C389.955 194.928 380.125 206.864 365.802 220.625C355.411 230.455 348.39 238.111 344.739 243.593C341.088 249.075 338.701 255.321 337.577 262.331C336.454 269.071 333.572 274.688 328.933 279.181C324.293 283.675 318.749 285.922 312.301 285.922C305.853 285.922 300.309 283.748 295.669 279.401C291.03 275.053 288.71 269.644 288.71 263.173C288.71 252.22 291.097 242.183 295.872 233.061C300.646 223.939 308.65 214.317 319.884 204.196C334.207 191.558 343.688 181.801 348.328 174.926C352.968 168.051 355.282 160.535 355.27 152.38ZM311.458 387.026C302.191 387.026 294.259 383.729 287.665 377.135C281.071 370.541 277.768 362.604 277.757 353.325C277.746 344.046 281.049 336.115 287.665 329.531C294.282 322.948 302.213 319.646 311.458 319.623C320.704 319.601 328.641 322.904 335.269 329.531C341.897 336.159 345.194 344.091 345.16 353.325C345.126 362.559 341.829 370.496 335.269 377.135C328.708 383.774 320.771 387.071 311.458 387.026Z" fill="#F9FEFE"/>
</svg>
