<svg width="674" height="354" viewBox="0 0 674 354" fill="none" xmlns="http://www.w3.org/2000/svg">
<g filter="url(#filter0_f_3585_2323)">
<path d="M445.379 13.1936V8.79576V8.79576V13.1936ZM552.687 120.501L557.084 120.501V120.501H552.687ZM552.557 125.779L548.164 125.566L547.94 130.182L552.562 130.176L552.557 125.779ZM552.688 125.779L552.688 121.381H552.688V125.779ZM659.994 233.086L664.392 233.086V233.086H659.994ZM559.723 340.164L559.439 335.776L555.325 336.042V340.164H559.723ZM559.723 340.393V344.791H564.121V340.393H559.723ZM177.11 340.393H172.713V344.791H177.11V340.393ZM177.11 340.387H181.508V335.944L177.065 335.989L177.11 340.387ZM176.231 340.393V344.791H176.231L176.231 340.393ZM92.6719 256.834H88.274V256.834H92.6719ZM176.231 173.275L176.231 168.877H176.231V173.275ZM209.506 180.164L207.753 184.198L217.984 188.644L213.54 178.412L209.506 180.164ZM202.662 149.602L198.267 149.745V149.745L202.662 149.602ZM283.463 63.3733L283.32 58.9778H283.32L283.463 63.3733ZM343.657 86.2424L340.632 89.4345L345.629 94.1701L347.825 87.6456L343.657 86.2424ZM445.379 13.1936V17.5914C502.214 17.5914 548.289 63.6658 548.289 120.501H552.687H557.084C557.084 58.8081 507.072 8.79576 445.379 8.79576V13.1936ZM552.687 120.501L548.289 120.501C548.289 122.196 548.245 123.884 548.164 125.566L552.557 125.779L556.949 125.991C557.037 124.176 557.084 122.346 557.084 120.501L552.687 120.501ZM552.557 125.779L552.562 130.176C552.602 130.176 552.637 130.176 552.688 130.176V125.779V121.381C552.651 121.381 552.598 121.381 552.551 121.381L552.557 125.779ZM552.688 125.779L552.687 130.176C609.523 130.177 655.596 176.251 655.596 233.086H659.994H664.392C664.392 171.393 614.38 121.381 552.688 121.381L552.688 125.779ZM659.994 233.086L655.596 233.086C655.596 287.653 613.125 332.301 559.439 335.776L559.723 340.164L560.007 344.553C618.29 340.781 664.392 292.32 664.392 233.086L659.994 233.086ZM559.723 340.164H555.325V340.393H559.723H564.121V340.164H559.723ZM559.723 340.393V335.995H177.11V340.393V344.791H559.723V340.393ZM177.11 340.393H181.508V340.387H177.11H172.713V340.393H177.11ZM177.11 340.387L177.065 335.989C176.771 335.992 176.499 335.995 176.231 335.995L176.231 340.393L176.231 344.791C176.55 344.791 176.864 344.788 177.156 344.785L177.11 340.387ZM176.231 340.393V335.995C132.512 335.995 97.0698 300.554 97.0697 256.834H92.6719H88.274C88.2741 305.412 127.654 344.791 176.231 344.791V340.393ZM92.6719 256.834H97.0697C97.0697 213.115 132.512 177.673 176.231 177.673V173.275V168.877C127.654 168.877 88.274 208.257 88.274 256.834H92.6719ZM176.231 173.275L176.231 177.673C187.443 177.673 198.099 180.002 207.753 184.198L209.506 180.164L211.259 176.131C200.52 171.464 188.672 168.877 176.231 168.877L176.231 173.275ZM209.506 180.164L213.54 178.412C209.676 169.518 207.392 159.755 207.058 149.459L202.662 149.602L198.267 149.745C198.638 161.168 201.174 172.021 205.472 181.916L209.506 180.164ZM202.662 149.602L207.058 149.459C205.638 105.763 239.909 69.1888 283.606 67.7688L283.463 63.3733L283.32 58.9778C234.769 60.5555 196.689 101.193 198.267 149.745L202.662 149.602ZM283.463 63.3733L283.606 67.7688C305.617 67.0536 325.813 75.3901 340.632 89.4345L343.657 86.2424L346.682 83.0504C330.228 67.4561 307.775 58.1832 283.32 58.9778L283.463 63.3733ZM343.657 86.2424L347.825 87.6456C361.537 46.9159 400.039 17.5915 445.379 17.5914V13.1936V8.79576C396.149 8.79584 354.37 40.6391 339.489 84.8392L343.657 86.2424Z" fill="#F9FEFE"/>
</g>
<path d="M445.379 13.1936V8.79576V8.79576V13.1936ZM552.687 120.501L557.084 120.501V120.501H552.687ZM552.557 125.779L548.164 125.566L547.94 130.182L552.562 130.176L552.557 125.779ZM552.688 125.779L552.688 121.381H552.688V125.779ZM659.994 233.086L664.392 233.086V233.086H659.994ZM559.723 340.164L559.439 335.776L555.325 336.042V340.164H559.723ZM559.723 340.393V344.791H564.121V340.393H559.723ZM177.11 340.393H172.713V344.791H177.11V340.393ZM177.11 340.387H181.508V335.944L177.065 335.989L177.11 340.387ZM176.231 340.393V344.791H176.231L176.231 340.393ZM92.6719 256.834H88.274V256.834H92.6719ZM176.231 173.275L176.231 168.877H176.231V173.275ZM209.506 180.164L207.753 184.198L217.984 188.644L213.54 178.412L209.506 180.164ZM202.662 149.602L198.267 149.745V149.745L202.662 149.602ZM283.463 63.3733L283.32 58.9778H283.32L283.463 63.3733ZM343.657 86.2424L340.632 89.4345L345.629 94.1701L347.825 87.6456L343.657 86.2424ZM445.379 13.1936V17.5914C502.214 17.5914 548.289 63.6658 548.289 120.501H552.687H557.084C557.084 58.8081 507.072 8.79576 445.379 8.79576V13.1936ZM552.687 120.501L548.289 120.501C548.289 122.196 548.245 123.884 548.164 125.566L552.557 125.779L556.949 125.991C557.037 124.176 557.084 122.346 557.084 120.501L552.687 120.501ZM552.557 125.779L552.562 130.176C552.602 130.176 552.637 130.176 552.688 130.176V125.779V121.381C552.651 121.381 552.598 121.381 552.551 121.381L552.557 125.779ZM552.688 125.779L552.687 130.176C609.523 130.177 655.596 176.251 655.596 233.086H659.994H664.392C664.392 171.393 614.38 121.381 552.688 121.381L552.688 125.779ZM659.994 233.086L655.596 233.086C655.596 287.653 613.125 332.301 559.439 335.776L559.723 340.164L560.007 344.553C618.29 340.781 664.392 292.32 664.392 233.086L659.994 233.086ZM559.723 340.164H555.325V340.393H559.723H564.121V340.164H559.723ZM559.723 340.393V335.995H177.11V340.393V344.791H559.723V340.393ZM177.11 340.393H181.508V340.387H177.11H172.713V340.393H177.11ZM177.11 340.387L177.065 335.989C176.771 335.992 176.499 335.995 176.231 335.995L176.231 340.393L176.231 344.791C176.55 344.791 176.864 344.788 177.156 344.785L177.11 340.387ZM176.231 340.393V335.995C132.512 335.995 97.0698 300.554 97.0697 256.834H92.6719H88.274C88.2741 305.412 127.654 344.791 176.231 344.791V340.393ZM92.6719 256.834H97.0697C97.0697 213.115 132.512 177.673 176.231 177.673V173.275V168.877C127.654 168.877 88.274 208.257 88.274 256.834H92.6719ZM176.231 173.275L176.231 177.673C187.443 177.673 198.099 180.002 207.753 184.198L209.506 180.164L211.259 176.131C200.52 171.464 188.672 168.877 176.231 168.877L176.231 173.275ZM209.506 180.164L213.54 178.412C209.676 169.518 207.392 159.755 207.058 149.459L202.662 149.602L198.267 149.745C198.638 161.168 201.174 172.021 205.472 181.916L209.506 180.164ZM202.662 149.602L207.058 149.459C205.638 105.763 239.909 69.1888 283.606 67.7688L283.463 63.3733L283.32 58.9778C234.769 60.5555 196.689 101.193 198.267 149.745L202.662 149.602ZM283.463 63.3733L283.606 67.7688C305.617 67.0536 325.813 75.3901 340.632 89.4345L343.657 86.2424L346.682 83.0504C330.228 67.4561 307.775 58.1832 283.32 58.9778L283.463 63.3733ZM343.657 86.2424L347.825 87.6456C361.537 46.9159 400.039 17.5915 445.379 17.5914V13.1936V8.79576C396.149 8.79584 354.37 40.6391 339.489 84.8392L343.657 86.2424Z" fill="#F9FEFE"/>
<path d="M220.672 97.1934H156.221V60.1934H85.6719" stroke="#F9FEFE" stroke-width="4.608"/>
<circle cx="64.5917" cy="61.1134" r="23.616" transform="rotate(180 64.5917 61.1134)" stroke="#F9FEFE" stroke-width="4.608"/>
<g filter="url(#filter1_f_3585_2323)">
<path d="M220.672 97.1934H156.223V60.1934H85.6719" stroke="#F9FEFE" stroke-width="4.608"/>
<circle cx="64.5966" cy="61.1134" r="23.616" transform="rotate(180 64.5966 61.1134)" stroke="#F9FEFE" stroke-width="4.608"/>
</g>
<line y1="-2.304" x2="150" y2="-2.304" transform="matrix(-1 0 0 1 209.672 177.194)" stroke="white" stroke-width="4.608"/>
<circle cx="25.92" cy="25.92" r="23.616" transform="matrix(-1 0 0 1 64.5117 149.194)" stroke="#F9FEFE" stroke-width="4.608"/>
<g filter="url(#filter2_f_3585_2323)">
<line y1="-2.304" x2="150" y2="-2.304" transform="matrix(-1 0 0 1 209.672 177.194)" stroke="white" stroke-width="4.608"/>
<circle cx="25.92" cy="25.92" r="23.616" transform="matrix(-1 0 0 1 64.5117 149.194)" stroke="#F9FEFE" stroke-width="4.608"/>
</g>
<defs>
<filter id="filter0_f_3585_2323" x="79.4787" y="-3.8147e-05" width="593.709" height="353.587" filterUnits="userSpaceOnUse" color-interpolation-filters="sRGB">
<feFlood flood-opacity="0" result="BackgroundImageFix"/>
<feBlend mode="normal" in="SourceGraphic" in2="BackgroundImageFix" result="shape"/>
<feGaussianBlur stdDeviation="4.39785" result="effect1_foregroundBlur_3585_2323"/>
</filter>
<filter id="filter1_f_3585_2323" x="26.0048" y="22.5214" width="207.339" height="89.648" filterUnits="userSpaceOnUse" color-interpolation-filters="sRGB">
<feFlood flood-opacity="0" result="BackgroundImageFix"/>
<feBlend mode="normal" in="SourceGraphic" in2="BackgroundImageFix" result="shape"/>
<feGaussianBlur stdDeviation="6.336" result="effect1_foregroundBlur_3585_2323"/>
</filter>
<filter id="filter2_f_3585_2323" x="-0.000125885" y="136.522" width="222.344" height="77.1841" filterUnits="userSpaceOnUse" color-interpolation-filters="sRGB">
<feFlood flood-opacity="0" result="BackgroundImageFix"/>
<feBlend mode="normal" in="SourceGraphic" in2="BackgroundImageFix" result="shape"/>
<feGaussianBlur stdDeviation="6.336" result="effect1_foregroundBlur_3585_2323"/>
</filter>
</defs>
</svg>
