<svg width="537" height="513" viewBox="0 0 537 513" fill="none" xmlns="http://www.w3.org/2000/svg">
<path fill-rule="evenodd" clip-rule="evenodd" d="M89.168 17.2277C147.805 15.3224 198.409 53.6579 214.433 107.352C221.977 104.89 230.034 103.56 238.4 103.56C281.037 103.56 315.6 138.124 315.6 180.76C315.6 186.49 314.974 192.075 313.79 197.449C324.514 193.613 336.065 191.522 348.103 191.522C404.492 191.522 450.205 237.367 450.205 293.921C450.205 298.173 449.944 302.365 449.442 306.482C492.044 317.13 523.6 355.659 523.6 401.56C523.6 454.209 482.082 497.159 430 499.46V499.56H-98.7998L-98.7871 499.521C-98.7913 499.521 -98.7956 499.522 -98.7998 499.522C-173.469 499.522 -234 438.99 -234 364.321C-234 310.688 -202.77 264.348 -157.503 242.495C-157.68 240.652 -157.799 238.791 -157.86 236.914C-159.423 188.836 -121.714 148.595 -73.6357 147.032C-58.9197 146.554 -44.9383 149.756 -32.5752 155.808C-32.8324 153.13 -33.0052 150.427 -33.0938 147.701C-35.3613 77.9103 19.377 19.4955 89.168 17.2277Z" fill="#F9F6EC" fill-opacity="0.15"/>
<g filter="url(#filter0_f_2077_5485)">
<path fill-rule="evenodd" clip-rule="evenodd" d="M89.168 13.266C149.12 11.318 200.677 51.4353 215.46 107.025C222.707 104.773 230.412 103.56 238.4 103.56C281.036 103.56 315.599 138.123 315.6 180.759C315.6 186.49 314.974 192.074 313.79 197.449C324.514 193.612 336.065 191.522 348.103 191.522C404.492 191.522 450.205 237.367 450.205 293.921C450.205 298.174 449.944 302.365 449.442 306.482C492.044 317.131 523.6 355.659 523.6 401.56C523.599 454.209 482.082 497.159 430 499.46V499.56H-98.7998L-98.7871 499.521C-98.7913 499.521 -98.7956 499.522 -98.7998 499.522C-173.469 499.522 -234 438.99 -234 364.322C-234 310.688 -202.77 264.348 -157.503 242.495C-157.68 240.652 -157.799 238.791 -157.86 236.914C-159.423 188.836 -121.714 148.595 -73.6357 147.033C-58.7303 146.548 -44.5786 149.84 -32.0986 156.043C-32.6228 152.001 -32.9587 147.897 -33.0938 143.74C-35.3613 73.9486 19.377 15.5338 89.168 13.266Z" fill="#F9F6EC" fill-opacity="0.15"/>
<path d="M89.168 13.266L89.0251 8.87046V8.87046L89.168 13.266ZM215.46 107.025L211.21 108.155L212.388 112.585L216.765 111.224L215.46 107.025ZM238.4 103.56L238.4 99.1621H238.4V103.56ZM315.6 180.759H319.997V180.759L315.6 180.759ZM313.79 197.449L309.495 196.502L307.784 204.268L315.272 201.589L313.79 197.449ZM348.103 191.522V187.124V187.124V191.522ZM450.205 293.921H454.603V293.921H450.205ZM449.442 306.482L445.077 305.949L444.607 309.806L448.376 310.748L449.442 306.482ZM523.6 401.56H527.997V401.56H523.6ZM430 499.46L429.806 495.067L425.602 495.253V499.46H430ZM430 499.56V503.958H434.398V499.56H430ZM-98.7998 499.56L-102.982 498.201L-104.853 503.958H-98.7998V499.56ZM-98.7871 499.521L-94.6046 500.88L-92.7334 495.122L-98.7875 495.123L-98.7871 499.521ZM-98.7998 499.522V503.92V503.92V499.522ZM-234 364.322H-238.398V364.322H-234ZM-157.503 242.495L-155.591 246.456L-152.832 245.124L-153.125 242.075L-157.503 242.495ZM-157.86 236.914L-162.256 237.057V237.057L-157.86 236.914ZM-73.6357 147.033L-73.7786 142.637V142.637L-73.6357 147.033ZM-32.0986 156.043L-34.0562 159.981L-26.6776 163.649L-27.7373 155.478L-32.0986 156.043ZM-33.0938 143.74L-37.4893 143.882V143.882L-33.0938 143.74ZM89.168 13.266L89.3108 17.6615C147.172 15.7815 196.941 54.4996 211.21 108.155L215.46 107.025L219.71 105.895C204.412 48.3711 151.068 6.85454 89.0251 8.87046L89.168 13.266ZM215.46 107.025L216.765 111.224C223.594 109.102 230.86 107.958 238.4 107.958V103.56V99.1621C229.965 99.1621 221.82 100.443 214.155 102.825L215.46 107.025ZM238.4 103.56L238.4 107.958C278.608 107.958 311.202 140.552 311.202 180.759L315.6 180.759L319.997 180.759C319.997 135.694 283.465 99.1623 238.4 99.1621L238.4 103.56ZM315.6 180.759H311.202C311.202 186.169 310.612 191.436 309.495 196.502L313.79 197.449L318.085 198.395C319.337 192.712 319.997 186.81 319.997 180.759H315.6ZM313.79 197.449L315.272 201.589C325.527 197.92 336.577 195.92 348.103 195.92V191.522V187.124C335.552 187.124 323.501 189.304 312.309 193.308L313.79 197.449ZM348.103 191.522V195.92C402.051 195.92 445.807 239.784 445.807 293.921H450.205H454.603C454.603 234.951 406.933 187.124 348.103 187.124V191.522ZM450.205 293.921H445.807C445.807 297.994 445.558 302.008 445.077 305.949L449.442 306.482L453.808 307.014C454.331 302.723 454.603 298.354 454.603 293.921H450.205ZM449.442 306.482L448.376 310.748C489.066 320.919 519.202 357.725 519.202 401.56H523.6H527.997C527.997 353.594 495.021 313.342 450.509 302.215L449.442 306.482ZM523.6 401.56H519.202C519.202 451.845 479.547 492.869 429.806 495.067L430 499.46L430.194 503.854C484.616 501.449 527.997 456.573 527.997 401.56H523.6ZM430 499.46H425.602V499.56H430H434.398V499.46H430ZM430 499.56V495.162H-98.7998V499.56V503.958H430V499.56ZM-98.7998 499.56L-94.6173 500.919L-94.6046 500.88L-98.7871 499.521L-102.97 498.162L-102.982 498.201L-98.7998 499.56ZM-98.7871 499.521L-98.7875 495.123C-98.8722 495.123 -98.9473 495.125 -99.0106 495.129C-99.0737 495.132 -99.1278 495.136 -99.1695 495.14C-99.1906 495.141 -99.2093 495.143 -99.2251 495.145C-99.2408 495.146 -99.2543 495.148 -99.2649 495.149C-99.2753 495.15 -99.2838 495.151 -99.289 495.152C-99.2916 495.152 -99.2938 495.152 -99.2952 495.152C-99.2959 495.152 -99.2965 495.152 -99.2968 495.152C-99.2972 495.152 -99.2975 495.152 -99.2975 495.152C-99.2984 495.153 -99.2948 495.152 -99.2905 495.152C-99.2858 495.151 -99.2778 495.15 -99.2679 495.149C-99.2579 495.148 -99.2449 495.147 -99.2297 495.145C-99.2144 495.144 -99.1962 495.142 -99.1757 495.14C-99.1349 495.137 -99.0819 495.133 -99.0198 495.13C-98.9576 495.126 -98.8835 495.124 -98.7998 495.124V499.522V503.92C-98.7151 503.92 -98.6399 503.917 -98.5766 503.914C-98.5134 503.911 -98.4594 503.907 -98.4176 503.903C-98.3965 503.901 -98.3778 503.9 -98.362 503.898C-98.3462 503.896 -98.3327 503.895 -98.3222 503.894C-98.3117 503.893 -98.3032 503.892 -98.298 503.891C-98.2953 503.891 -98.2931 503.891 -98.2917 503.891C-98.291 503.89 -98.2905 503.89 -98.2901 503.89C-98.2897 503.89 -98.2894 503.89 -98.2894 503.89C-98.2885 503.89 -98.2921 503.891 -98.2964 503.891C-98.301 503.892 -98.309 503.892 -98.3189 503.894C-98.3289 503.895 -98.3419 503.896 -98.3571 503.897C-98.3723 503.899 -98.3905 503.901 -98.411 503.902C-98.4517 503.906 -98.5047 503.91 -98.5668 503.913C-98.629 503.916 -98.7031 503.919 -98.7867 503.919L-98.7871 499.521ZM-98.7998 499.522V495.124C-171.04 495.124 -229.602 436.562 -229.602 364.322H-234H-238.398C-238.398 441.419 -175.898 503.92 -98.7998 503.92V499.522ZM-234 364.322H-229.602C-229.602 312.439 -199.396 267.603 -155.591 246.456L-157.503 242.495L-159.415 238.535C-206.144 261.093 -238.398 308.937 -238.398 364.322H-234ZM-157.503 242.495L-153.125 242.075C-153.293 240.325 -153.407 238.556 -153.465 236.772L-157.86 236.914L-162.256 237.057C-162.192 239.026 -162.067 240.979 -161.881 242.916L-157.503 242.495ZM-157.86 236.914L-153.465 236.772C-154.948 191.121 -119.143 152.911 -73.4929 151.428L-73.6357 147.033L-73.7786 142.637C-124.284 144.278 -163.897 186.552 -162.256 237.057L-157.86 236.914ZM-73.6357 147.033L-73.4929 151.428C-59.3327 150.968 -45.901 154.094 -34.0562 159.981L-32.0986 156.043L-30.141 152.105C-43.2562 145.586 -58.1279 142.129 -73.7786 142.637L-73.6357 147.033ZM-32.0986 156.043L-27.7373 155.478C-28.2434 151.575 -28.5678 147.612 -28.6982 143.597L-33.0938 143.74L-37.4893 143.882C-37.3495 148.183 -37.0021 152.428 -36.46 156.609L-32.0986 156.043ZM-33.0938 143.74L-28.6982 143.597C-30.8869 76.2334 21.9474 19.8504 89.3108 17.6615L89.168 13.266L89.0251 8.87046C16.8066 11.2172 -39.8357 71.6638 -37.4893 143.882L-33.0938 143.74Z" fill="#F9FEFE" fill-opacity="0.15"/>
</g>
<defs>
<filter id="filter0_f_2077_5485" x="-247.198" y="4.86374e-05" width="783.995" height="512.758" filterUnits="userSpaceOnUse" color-interpolation-filters="sRGB">
<feFlood flood-opacity="0" result="BackgroundImageFix"/>
<feBlend mode="normal" in="SourceGraphic" in2="BackgroundImageFix" result="shape"/>
<feGaussianBlur stdDeviation="4.4" result="effect1_foregroundBlur_2077_5485"/>
</filter>
</defs>
</svg>
