<svg width="862" height="443" viewBox="0 0 862 443" fill="none" xmlns="http://www.w3.org/2000/svg">
<line x1="463" y1="181.542" x2="719.906" y2="181.542" stroke="white" stroke-width="4.608"/>
<circle cx="744.669" cy="182.118" r="23.616" stroke="#F9FEFE" stroke-width="4.608"/>
<g filter="url(#filter0_f_3357_2298)">
<line x1="463" y1="181.542" x2="719.906" y2="181.542" stroke="white" stroke-width="4.608"/>
<circle cx="744.669" cy="182.118" r="23.616" stroke="#F9FEFE" stroke-width="4.608"/>
</g>
<path d="M542.005 298.999H700.036V260.599H798.805" stroke="#F9FEFE" stroke-width="4.8"/>
<circle cx="27" cy="27" r="24.6" transform="matrix(1 0 0 -1 794.005 288.198)" stroke="#F9FEFE" stroke-width="4.8"/>
<g filter="url(#filter1_f_3357_2298)">
<path d="M542 298.999H700.031V260.599H798.8" stroke="#F9FEFE" stroke-width="4.8"/>
<circle cx="27" cy="27" r="24.6" transform="matrix(1 0 0 -1 794 288.198)" stroke="#F9FEFE" stroke-width="4.8"/>
</g>
<g filter="url(#filter2_f_3357_2298)">
<path d="M214.415 13.198V8.80015V8.80015V13.198ZM340.914 96.571L336.873 98.3057L339.116 103.533L343.61 100.046L340.914 96.571ZM388.2 80.3982V76.0003V76.0003V80.3982ZM465.4 157.598L469.798 157.598V157.598H465.4ZM465.397 157.889L461 157.873L460.983 162.284L465.395 162.287L465.397 157.889ZM600.508 293.09H604.906V293.09H600.508ZM465.308 428.29V432.688V432.688V428.29ZM444.451 426.689L445.124 422.343L440.053 421.558V426.689H444.451ZM444.451 428.29V432.688H448.849V428.29H444.451ZM-45.5049 428.29V423.892H-45.9256L-46.3387 423.972L-45.5049 428.29ZM-61.4414 429.808L-61.4414 434.206H-61.4414V429.808ZM-145 346.249L-149.398 346.249V346.249H-145ZM-64.6865 262.752L-64.5187 267.146L-59.2422 266.945L-60.3947 261.792L-64.6865 262.752ZM-67.5156 240.397L-71.9111 240.54V240.54L-67.5156 240.397ZM48.1387 116.974L47.9958 112.579V112.579L48.1387 116.974ZM80.2188 120.253L79.1846 124.527L83.5215 125.576L84.5078 121.225L80.2188 120.253ZM214.415 13.198V17.5958C269.333 17.5959 316.496 50.8327 336.873 98.3057L340.914 96.571L344.955 94.8364C323.241 44.2474 272.974 8.80023 214.415 8.80015V13.198ZM340.914 96.571L343.61 100.046C355.93 90.4855 371.395 84.796 388.2 84.796V80.3982V76.0003C369.374 76.0003 352.026 82.382 338.218 93.0965L340.914 96.571ZM388.2 80.3982V84.796C428.408 84.7961 461.003 117.391 461.003 157.598H465.4H469.798C469.798 112.533 433.265 76.0005 388.2 76.0003V80.3982ZM465.4 157.598L461.003 157.598C461.003 157.859 461.001 157.468 461 157.873L465.397 157.889L469.795 157.906C469.795 157.885 469.796 157.863 469.796 157.806C469.797 157.759 469.798 157.682 469.798 157.598L465.4 157.598ZM465.397 157.889L465.395 162.287C537.595 162.334 596.11 220.879 596.11 293.09H600.508H604.906C604.906 216.023 542.456 153.542 465.4 153.492L465.397 157.889ZM600.508 293.09H596.11C596.11 365.33 537.548 423.892 465.308 423.892V428.29V432.688C542.405 432.688 604.906 370.187 604.906 293.09H600.508ZM465.308 428.29V423.892C458.441 423.892 451.701 423.362 445.124 422.343L444.451 426.689L443.778 431.035C450.797 432.122 457.988 432.688 465.308 432.688V428.29ZM444.451 426.689H440.053V428.29H444.451H448.849V426.689H444.451ZM444.451 428.29V423.892H-45.5049V428.29V432.688H444.451V428.29ZM-45.5049 428.29L-46.3387 423.972C-51.2244 424.915 -56.2734 425.41 -61.4414 425.41V429.808V434.206C-55.7101 434.206 -50.1028 433.657 -44.671 432.608L-45.5049 428.29ZM-61.4414 429.808L-61.4414 425.41C-105.161 425.41 -140.602 389.968 -140.602 346.249H-145H-149.398C-149.398 394.826 -110.018 434.206 -61.4414 434.206L-61.4414 429.808ZM-145 346.249L-140.602 346.249C-140.602 303.56 -106.81 268.762 -64.5187 267.146L-64.6865 262.752L-64.8544 258.357C-111.851 260.152 -149.398 298.815 -149.398 346.249L-145 346.249ZM-64.6865 262.752L-60.3947 261.792C-61.9494 254.84 -62.8801 247.642 -63.1201 240.254L-67.5156 240.397L-71.9111 240.54C-71.6531 248.481 -70.6524 256.227 -68.9783 263.712L-64.6865 262.752ZM-67.5156 240.397L-63.1201 240.254C-65.1863 176.663 -15.3103 123.436 48.2815 121.37L48.1387 116.974L47.9958 112.579C-20.4511 114.803 -74.1351 172.093 -71.9111 240.54L-67.5156 240.397ZM48.1387 116.974L48.2815 121.37C58.9433 121.023 69.3072 122.138 79.1846 124.527L80.2188 120.253L81.2529 115.978C70.6134 113.404 59.4579 112.206 47.9958 112.579L48.1387 116.974ZM80.2188 120.253L84.5078 121.225C97.9562 61.8906 151.017 17.5958 214.415 17.5958V13.198V8.80015C146.82 8.80015 90.2665 56.027 75.9297 119.281L80.2188 120.253Z" fill="#F9FEFE"/>
</g>
<path d="M214.415 13.198C271.154 13.1981 319.868 47.54 340.914 96.571C353.978 86.4338 370.384 80.3982 388.2 80.3982C430.836 80.3983 465.4 114.962 465.4 157.598C465.4 157.695 465.398 157.792 465.397 157.889C540.025 157.938 600.508 218.451 600.508 293.09C600.508 367.758 539.977 428.29 465.308 428.29C458.215 428.29 451.249 427.742 444.451 426.689V428.29H-45.5049C-50.6636 429.286 -55.9918 429.808 -61.4414 429.808C-107.59 429.808 -145 392.397 -145 346.249C-145 301.187 -109.331 264.457 -64.6865 262.752C-66.3009 255.533 -67.2666 248.061 -67.5156 240.397C-69.6607 174.378 -17.8807 119.12 48.1387 116.974C59.2006 116.615 69.9603 117.771 80.2188 120.253C94.1113 58.9588 148.918 13.198 214.415 13.198Z" fill="url(#paint0_radial_3357_2298)"/>
<path d="M214.415 13.198V8.80015V8.80015V13.198ZM340.914 96.571L336.873 98.3057L339.116 103.533L343.61 100.046L340.914 96.571ZM388.2 80.3982V76.0003V76.0003V80.3982ZM465.4 157.598L469.798 157.598V157.598H465.4ZM465.397 157.889L461 157.873L460.983 162.284L465.395 162.287L465.397 157.889ZM600.508 293.09H604.906V293.09H600.508ZM465.308 428.29V432.688V432.688V428.29ZM444.451 426.689L445.124 422.343L440.053 421.558V426.689H444.451ZM444.451 428.29V432.688H448.849V428.29H444.451ZM-45.5049 428.29V423.892H-45.9256L-46.3387 423.972L-45.5049 428.29ZM-61.4414 429.808L-61.4414 434.206H-61.4414V429.808ZM-145 346.249L-149.398 346.249V346.249H-145ZM-64.6865 262.752L-64.5187 267.146L-59.2422 266.945L-60.3947 261.792L-64.6865 262.752ZM-67.5156 240.397L-71.9111 240.54V240.54L-67.5156 240.397ZM48.1387 116.974L47.9958 112.579V112.579L48.1387 116.974ZM80.2188 120.253L79.1846 124.527L83.5215 125.576L84.5078 121.225L80.2188 120.253ZM214.415 13.198V17.5958C269.333 17.5959 316.496 50.8327 336.873 98.3057L340.914 96.571L344.955 94.8364C323.241 44.2474 272.974 8.80023 214.415 8.80015V13.198ZM340.914 96.571L343.61 100.046C355.93 90.4855 371.395 84.796 388.2 84.796V80.3982V76.0003C369.374 76.0003 352.026 82.382 338.218 93.0965L340.914 96.571ZM388.2 80.3982V84.796C428.408 84.7961 461.003 117.391 461.003 157.598H465.4H469.798C469.798 112.533 433.265 76.0005 388.2 76.0003V80.3982ZM465.4 157.598L461.003 157.598C461.003 157.859 461.001 157.468 461 157.873L465.397 157.889L469.795 157.906C469.795 157.885 469.796 157.863 469.796 157.806C469.797 157.759 469.798 157.682 469.798 157.598L465.4 157.598ZM465.397 157.889L465.395 162.287C537.595 162.334 596.11 220.879 596.11 293.09H600.508H604.906C604.906 216.023 542.456 153.542 465.4 153.492L465.397 157.889ZM600.508 293.09H596.11C596.11 365.33 537.548 423.892 465.308 423.892V428.29V432.688C542.405 432.688 604.906 370.187 604.906 293.09H600.508ZM465.308 428.29V423.892C458.441 423.892 451.701 423.362 445.124 422.343L444.451 426.689L443.778 431.035C450.797 432.122 457.988 432.688 465.308 432.688V428.29ZM444.451 426.689H440.053V428.29H444.451H448.849V426.689H444.451ZM444.451 428.29V423.892H-45.5049V428.29V432.688H444.451V428.29ZM-45.5049 428.29L-46.3387 423.972C-51.2244 424.915 -56.2734 425.41 -61.4414 425.41V429.808V434.206C-55.7101 434.206 -50.1028 433.657 -44.671 432.608L-45.5049 428.29ZM-61.4414 429.808L-61.4414 425.41C-105.161 425.41 -140.602 389.968 -140.602 346.249H-145H-149.398C-149.398 394.826 -110.018 434.206 -61.4414 434.206L-61.4414 429.808ZM-145 346.249L-140.602 346.249C-140.602 303.56 -106.81 268.762 -64.5187 267.146L-64.6865 262.752L-64.8544 258.357C-111.851 260.152 -149.398 298.815 -149.398 346.249L-145 346.249ZM-64.6865 262.752L-60.3947 261.792C-61.9494 254.84 -62.8801 247.642 -63.1201 240.254L-67.5156 240.397L-71.9111 240.54C-71.6531 248.481 -70.6524 256.227 -68.9783 263.712L-64.6865 262.752ZM-67.5156 240.397L-63.1201 240.254C-65.1863 176.663 -15.3103 123.436 48.2815 121.37L48.1387 116.974L47.9958 112.579C-20.4511 114.803 -74.1351 172.093 -71.9111 240.54L-67.5156 240.397ZM48.1387 116.974L48.2815 121.37C58.9433 121.023 69.3072 122.138 79.1846 124.527L80.2188 120.253L81.2529 115.978C70.6134 113.404 59.4579 112.206 47.9958 112.579L48.1387 116.974ZM80.2188 120.253L84.5078 121.225C97.9562 61.8906 151.017 17.5958 214.415 17.5958V13.198V8.80015C146.82 8.80015 90.2665 56.027 75.9297 119.281L80.2188 120.253Z" fill="#F9FEFE"/>
<defs>
<filter id="filter0_f_3357_2298" x="450.328" y="143.526" width="332.933" height="77.1841" filterUnits="userSpaceOnUse" color-interpolation-filters="sRGB">
<feFlood flood-opacity="0" result="BackgroundImageFix"/>
<feBlend mode="normal" in="SourceGraphic" in2="BackgroundImageFix" result="shape"/>
<feGaussianBlur stdDeviation="6.336" result="effect1_foregroundBlur_3357_2298"/>
</filter>
<filter id="filter1_f_3357_2298" x="528.8" y="220.998" width="332.4" height="93.6" filterUnits="userSpaceOnUse" color-interpolation-filters="sRGB">
<feFlood flood-opacity="0" result="BackgroundImageFix"/>
<feBlend mode="normal" in="SourceGraphic" in2="BackgroundImageFix" result="shape"/>
<feGaussianBlur stdDeviation="6.6" result="effect1_foregroundBlur_3357_2298"/>
</filter>
<filter id="filter2_f_3357_2298" x="-158.198" y="4.86374e-05" width="771.903" height="443.006" filterUnits="userSpaceOnUse" color-interpolation-filters="sRGB">
<feFlood flood-opacity="0" result="BackgroundImageFix"/>
<feBlend mode="normal" in="SourceGraphic" in2="BackgroundImageFix" result="shape"/>
<feGaussianBlur stdDeviation="4.4" result="effect1_foregroundBlur_3357_2298"/>
</filter>
<radialGradient id="paint0_radial_3357_2298" cx="0" cy="0" r="1" gradientTransform="matrix(275.6 322.8 -380.121 259.89 98.6 83.8902)" gradientUnits="userSpaceOnUse">
<stop stop-color="#F6F2E9"/>
<stop offset="0.6" stop-color="#FAD075"/>
<stop offset="1" stop-color="#EBA64B"/>
</radialGradient>
</defs>
</svg>
