<svg width="472" height="554" viewBox="0 0 472 554" fill="none" xmlns="http://www.w3.org/2000/svg">
<g filter="url(#filter0_f_1512_2477)">
<path d="M465.266 16.4973V11V11V16.4973ZM623.172 121.276L618.111 123.421L620.925 130.063L626.583 125.587L623.172 121.276ZM779.494 197.363L773.997 197.342L773.977 202.856L779.491 202.86L779.494 197.363ZM948.382 366.363H953.879V366.363H948.382ZM753.312 533.362L754.153 527.929L747.814 526.948V533.362H753.312ZM753.312 535.363V540.86H758.809V535.363H753.312ZM140.862 535.363V529.865H140.336L139.82 529.965L140.862 535.363ZM120.947 537.26V542.757H120.947L120.947 537.26ZM16.4973 432.812H11V432.812L16.4973 432.812ZM116.889 328.439L117.099 333.932L123.694 333.68L122.254 327.239L116.889 328.439ZM113.353 300.496L107.858 300.675V300.675L113.353 300.496ZM257.921 146.218L257.743 140.724H257.743L257.921 146.218ZM298.009 150.314L296.717 155.657L302.141 156.969L303.371 151.526L298.009 150.314ZM465.266 16.4973V21.9946C533.908 21.9946 592.839 63.7852 618.111 123.421L623.172 121.276L628.234 119.131C601.307 55.5886 538.491 11 465.266 11V16.4973ZM623.172 121.276L626.583 125.587C642.092 113.317 661.682 105.995 682.997 105.995V100.497V95C659.118 95 637.142 103.214 619.761 116.964L623.172 121.276ZM682.997 100.497V105.995C733.257 105.995 774 146.738 774 196.997H779.497H784.995C784.995 140.666 739.329 95 682.997 95V100.497ZM779.497 196.997H774C774 197.214 773.998 196.99 773.997 197.342L779.494 197.363L784.992 197.383C784.992 197.347 784.992 197.311 784.993 197.241C784.994 197.18 784.995 197.092 784.995 196.997H779.497ZM779.494 197.363L779.491 202.86C869.741 202.919 942.885 276.099 942.885 366.363H948.382H953.879C953.879 270.029 875.817 191.928 779.498 191.865L779.494 197.363ZM948.382 366.363H942.885C942.885 456.662 869.682 529.865 779.382 529.865V535.363V540.86C875.754 540.86 953.879 462.735 953.879 366.363H948.382ZM779.382 535.363V529.865C770.799 529.865 762.374 529.202 754.153 527.929L753.312 533.362L752.471 538.794C761.245 540.153 770.232 540.86 779.382 540.86V535.363ZM753.312 533.362H747.814V535.363H753.312H758.809V533.362H753.312ZM753.312 535.363V529.865H140.862V535.363V540.86H753.312V535.363ZM140.862 535.363L139.82 529.965C133.714 531.144 127.405 531.763 120.947 531.763L120.947 537.26L120.947 542.757C128.109 542.757 135.116 542.071 141.904 540.76L140.862 535.363ZM120.947 537.26V531.763C66.2972 531.763 21.9948 487.461 21.9946 432.812L16.4973 432.812L11 432.812C11.0002 493.533 60.2251 542.757 120.947 542.757V537.26ZM16.4973 432.812H21.9946C21.9946 379.451 64.2346 335.951 117.099 333.932L116.889 328.439L116.679 322.945C57.933 325.189 11 373.519 11 432.812H16.4973ZM116.889 328.439L122.254 327.239C120.31 318.55 119.147 309.552 118.847 300.318L113.353 300.496L107.858 300.675C108.181 310.601 109.432 320.282 111.524 329.639L116.889 328.439ZM113.353 300.496L118.847 300.318C116.264 220.828 178.61 154.295 258.1 151.712L257.921 146.218L257.743 140.724C172.184 143.504 105.078 215.116 107.858 300.675L113.353 300.496ZM257.921 146.218L258.1 151.712C271.423 151.28 284.373 152.672 296.717 155.657L298.009 150.314L299.301 144.97C286.006 141.755 272.066 140.258 257.743 140.724L257.921 146.218ZM298.009 150.314L303.371 151.526C320.135 77.3502 386.269 21.9946 465.266 21.9946V16.4973V11C380.999 11 310.515 70.0447 292.647 149.102L298.009 150.314Z" fill="#F9FEFE" fill-opacity="0.25"/>
</g>
<path d="M465.266 16.4973C536.199 16.4973 597.073 59.6869 623.172 121.276C639.617 108.265 660.4 100.497 682.997 100.497C736.293 100.497 779.497 143.702 779.497 196.997C779.497 197.119 779.495 197.241 779.494 197.363C872.779 197.423 948.382 273.064 948.382 366.363C948.382 459.698 872.718 535.363 779.382 535.363C770.516 535.363 761.809 534.677 753.312 533.362V535.363H140.862C134.415 536.607 127.757 537.26 120.947 537.26C63.2612 537.26 16.4975 490.497 16.4973 432.812C16.4973 376.485 61.0838 330.57 116.889 328.439C114.871 319.416 113.664 310.076 113.353 300.496C110.671 217.972 175.397 148.899 257.921 146.218C271.744 145.769 285.189 147.213 298.009 150.314C315.325 73.6974 383.634 16.4973 465.266 16.4973Z" fill="url(#paint0_radial_1512_2477)" fill-opacity="0.25"/>
<defs>
<filter id="filter0_f_1512_2477" x="0" y="0" width="964.879" height="553.757" filterUnits="userSpaceOnUse" color-interpolation-filters="sRGB">
<feFlood flood-opacity="0" result="BackgroundImageFix"/>
<feBlend mode="normal" in="SourceGraphic" in2="BackgroundImageFix" result="shape"/>
<feGaussianBlur stdDeviation="5.5" result="effect1_foregroundBlur_1512_2477"/>
</filter>
<radialGradient id="paint0_radial_1512_2477" cx="0" cy="0" r="1" gradientTransform="matrix(344.5 403.5 -475.151 324.863 320.997 104.863)" gradientUnits="userSpaceOnUse">
<stop stop-color="#F9F6EC"/>
</radialGradient>
</defs>
</svg>
