<svg width="869" height="152" viewBox="0 0 869 152" fill="none" xmlns="http://www.w3.org/2000/svg">
<path d="M515.2 75.8403H388.776V32.6403H309.76" stroke="#F9FEFE" stroke-width="3.84"/>
<circle cx="288.161" cy="32.1603" r="19.68" transform="rotate(180 288.161 32.1603)" stroke="#F9FEFE" stroke-width="3.84"/>
<g filter="url(#filter0_f_3316_2296)">
<path d="M309.76 32.6403H388.48V75.8403" stroke="#F9FEFE" stroke-width="3.84"/>
<circle cx="288.161" cy="32.1603" r="19.68" transform="rotate(180 288.161 32.1603)" stroke="#F9FEFE" stroke-width="3.84"/>
</g>
<path d="M349.56 75.8403H475.984V32.6403H555" stroke="#F9FEFE" stroke-width="3.84"/>
<circle cx="21.6" cy="21.6" r="19.68" transform="matrix(1 0 0 -1 554.999 53.7603)" stroke="#F9FEFE" stroke-width="3.84"/>
<g filter="url(#filter1_f_3316_2296)">
<path d="M554.999 32.6403H476.279V75.8403" stroke="#F9FEFE" stroke-width="3.84"/>
<circle cx="21.6" cy="21.6" r="19.68" transform="matrix(1 0 0 -1 554.999 53.7603)" stroke="#F9FEFE" stroke-width="3.84"/>
</g>
<path d="M288.12 80.3999H215.936V49.6799H136.92" stroke="#F9FEFE" stroke-width="3.84"/>
<circle cx="119.16" cy="50.1603" r="19.68" transform="rotate(180 119.16 50.1603)" stroke="#F9FEFE" stroke-width="3.84"/>
<g filter="url(#filter2_f_3316_2296)">
<path d="M288.12 80.3999H215.94V49.6799H136.924" stroke="#F9FEFE" stroke-width="3.84"/>
<circle cx="119.165" cy="50.1603" r="19.68" transform="rotate(180 119.165 50.1603)" stroke="#F9FEFE" stroke-width="3.84"/>
</g>
<path d="M588.56 84.3999H660.744V53.6799H739.76" stroke="#F9FEFE" stroke-width="3.84"/>
<circle cx="21.6" cy="21.6" r="19.68" transform="matrix(1 0 0 -1 735.92 75.7603)" stroke="#F9FEFE" stroke-width="3.84"/>
<g filter="url(#filter3_f_3316_2296)">
<path d="M588.56 84.3999H660.74V53.6799H739.755" stroke="#F9FEFE" stroke-width="3.84"/>
<circle cx="21.6" cy="21.6" r="19.68" transform="matrix(1 0 0 -1 735.915 75.7603)" stroke="#F9FEFE" stroke-width="3.84"/>
</g>
<line y1="-1.92" x2="214.089" y2="-1.92" transform="matrix(-1 0 0 1 266.884 119.6)" stroke="white" stroke-width="3.84"/>
<circle cx="21.6" cy="21.6" r="19.68" transform="matrix(-1 0 0 1 53.7598 96.5601)" stroke="#F9FEFE" stroke-width="3.84"/>
<g filter="url(#filter4_f_3316_2296)">
<line y1="-1.92" x2="214.089" y2="-1.92" transform="matrix(-1 0 0 1 266.884 119.6)" stroke="white" stroke-width="3.84"/>
<circle cx="21.6" cy="21.6" r="19.68" transform="matrix(-1 0 0 1 53.7598 96.5601)" stroke="#F9FEFE" stroke-width="3.84"/>
</g>
<line x1="601.56" y1="118.68" x2="815.648" y2="118.68" stroke="white" stroke-width="3.84"/>
<circle cx="836.284" cy="119.16" r="19.68" stroke="#F9FEFE" stroke-width="3.84"/>
<g filter="url(#filter5_f_3316_2296)">
<line x1="601.56" y1="118.68" x2="815.648" y2="118.68" stroke="white" stroke-width="3.84"/>
<circle cx="836.284" cy="119.16" r="19.68" stroke="#F9FEFE" stroke-width="3.84"/>
</g>
<defs>
<filter id="filter0_f_3316_2296" x="256.001" y="5.81741e-05" width="144.96" height="86.4003" filterUnits="userSpaceOnUse" color-interpolation-filters="sRGB">
<feFlood flood-opacity="0" result="BackgroundImageFix"/>
<feBlend mode="normal" in="SourceGraphic" in2="BackgroundImageFix" result="shape"/>
<feGaussianBlur stdDeviation="5.28" result="effect1_foregroundBlur_3316_2296"/>
</filter>
<filter id="filter1_f_3316_2296" x="463.799" y="5.81741e-05" width="144.96" height="86.4003" filterUnits="userSpaceOnUse" color-interpolation-filters="sRGB">
<feFlood flood-opacity="0" result="BackgroundImageFix"/>
<feBlend mode="normal" in="SourceGraphic" in2="BackgroundImageFix" result="shape"/>
<feGaussianBlur stdDeviation="5.28" result="effect1_foregroundBlur_3316_2296"/>
</filter>
<filter id="filter2_f_3316_2296" x="87.0045" y="18.0001" width="211.676" height="74.8798" filterUnits="userSpaceOnUse" color-interpolation-filters="sRGB">
<feFlood flood-opacity="0" result="BackgroundImageFix"/>
<feBlend mode="normal" in="SourceGraphic" in2="BackgroundImageFix" result="shape"/>
<feGaussianBlur stdDeviation="5.28" result="effect1_foregroundBlur_3316_2296"/>
</filter>
<filter id="filter3_f_3316_2296" x="578" y="22.0001" width="211.676" height="74.8798" filterUnits="userSpaceOnUse" color-interpolation-filters="sRGB">
<feFlood flood-opacity="0" result="BackgroundImageFix"/>
<feBlend mode="normal" in="SourceGraphic" in2="BackgroundImageFix" result="shape"/>
<feGaussianBlur stdDeviation="5.28" result="effect1_foregroundBlur_3316_2296"/>
</filter>
<filter id="filter4_f_3316_2296" x="-0.000430107" y="86.0001" width="277.444" height="64.3202" filterUnits="userSpaceOnUse" color-interpolation-filters="sRGB">
<feFlood flood-opacity="0" result="BackgroundImageFix"/>
<feBlend mode="normal" in="SourceGraphic" in2="BackgroundImageFix" result="shape"/>
<feGaussianBlur stdDeviation="5.28" result="effect1_foregroundBlur_3316_2296"/>
</filter>
<filter id="filter5_f_3316_2296" x="591" y="87.0001" width="277.444" height="64.3202" filterUnits="userSpaceOnUse" color-interpolation-filters="sRGB">
<feFlood flood-opacity="0" result="BackgroundImageFix"/>
<feBlend mode="normal" in="SourceGraphic" in2="BackgroundImageFix" result="shape"/>
<feGaussianBlur stdDeviation="5.28" result="effect1_foregroundBlur_3316_2296"/>
</filter>
</defs>
</svg>
