<svg width="687" height="472" viewBox="0 0 687 472" fill="none" xmlns="http://www.w3.org/2000/svg">
<g filter="url(#filter0_df_2077_5135)">
<circle cx="343.014" cy="236" r="220" fill="url(#paint0_radial_2077_5135)" stroke="white" stroke-width="10"/>
<mask id="mask0_2077_5135" style="mask-type:alpha" maskUnits="userSpaceOnUse" x="128" y="21" width="431" height="430">
<circle cx="343.014" cy="236" r="210" fill="#FBF1AA" stroke="white" stroke-width="10"/>
</mask>
<g mask="url(#mask0_2077_5135)">
<path opacity="0.46" d="M273.473 247.672C237.15 231.443 147.014 262.707 147.014 262.707L169.884 309.244C169.884 309.244 186.476 298.505 227.733 316.404C268.989 334.303 307.437 369.368 364.282 370.101C402.46 370.593 432.22 355.304 459.799 347.906C487.378 340.508 615.856 388 615.856 388L655.543 347.906L671.014 316.404C588.277 313.063 503.946 330.515 402.623 301.369C350.351 286.332 309.797 263.9 273.473 247.672Z" fill="#F1FFDA"/>
<path opacity="0.46" d="M237.473 337.672C201.15 321.443 111.014 352.707 111.014 352.707L133.884 399.244C133.884 399.244 150.476 388.505 191.733 406.404C232.989 424.303 271.437 459.368 328.282 460.101C366.46 460.593 396.22 445.304 423.799 437.906C451.378 430.508 579.856 478 579.856 478L619.543 437.906L635.014 406.404C552.277 403.063 467.946 420.515 366.623 391.369C314.351 376.332 273.797 353.9 237.473 337.672Z" fill="#F1FFDA"/>
<path opacity="0.7" d="M417.068 40.2531C461.638 10.5595 545.601 15.2738 545.601 15.2738L597.014 85.3545C564.262 121.898 543.877 190.465 489.047 194.986C452.797 197.974 427.161 170.469 401.073 158.211C374.986 145.952 316.032 233.282 253.118 235.924C202.55 238.048 128.014 194.986 128.014 194.986L140.01 149.19C140.01 149.19 175.052 132.164 198.278 124.211C258.103 103.727 302.307 140.336 356.515 103.395C383.696 84.8725 389.743 58.4583 417.068 40.2531Z" fill="url(#paint1_linear_2077_5135)"/>
<path opacity="0.7" d="M417.068 213.253C461.638 183.56 545.601 188.274 545.601 188.274L597.014 258.355C564.262 294.898 543.877 363.465 489.047 367.986C452.797 370.974 416.601 369.758 390.514 357.5C364.426 345.242 324.927 394.358 262.014 397C211.446 399.124 128.014 367.986 128.014 367.986L140.01 322.19C140.01 322.19 175.052 305.164 198.278 297.211C258.103 276.727 302.307 313.336 356.515 276.395C383.696 257.872 389.743 231.458 417.068 213.253Z" fill="url(#paint2_linear_2077_5135)"/>
<path d="M250.014 260.5C202.374 249.955 161.18 250.833 125.514 250L131.514 298.5L164.514 366.5C164.514 366.5 204.067 401.409 235.014 412.5C280.048 428.64 309.715 414.463 357.514 412.5C409.798 410.353 450.906 434.609 491.014 401C504.313 389.855 519.014 366.5 519.014 366.5L547.514 321.5V298.5C547.514 298.5 477.78 318.953 432.514 315.5C402.568 313.216 387.514 308.5 357.514 298.5C327.514 288.5 293.488 270.123 250.014 260.5Z" fill="url(#paint3_linear_2077_5135)"/>
<path d="M-190.986 123.637C-190.986 123.637 -61.8809 95.9707 21.8741 101.633C128.848 108.866 162.474 171.368 269.583 177.752C351.041 182.607 452.265 114.81 525.769 92.1186C591.646 71.782 619.014 77.8464 619.014 77.8464" stroke="#F1FFDA" stroke-width="2"/>
<path opacity="0.7" d="M400.014 389.197C439.024 367.8 512.514 371.197 512.514 371.197L557.514 421.697C528.847 448.031 511.005 497.44 463.014 500.697C431.285 502.851 408.847 483.031 386.014 474.197C363.18 465.364 311.58 528.293 256.514 530.197C212.253 531.728 147.014 500.697 147.014 500.697L157.514 467.697C157.514 467.697 188.185 455.428 208.514 449.697C260.877 434.937 299.567 461.317 347.014 434.697C370.804 421.35 376.096 402.316 400.014 389.197Z" fill="url(#paint4_linear_2077_5135)"/>
<path d="M307.514 202.5C255.514 137 138.514 155 138.514 155L152.014 122L188.014 81.9998C213.788 78.2898 227.514 71.9998 254.014 72.4998C280.514 72.9998 294.602 73.4761 307.514 91.4998C318.502 106.838 302.709 123.694 313.014 139.5C332.315 169.106 382.726 168.083 403.514 139.5C415.514 123 428.155 105.059 452.014 96.9998C476.702 88.6603 518.514 102.5 518.514 102.5L544.014 150L556.514 197.5C556.514 197.5 543.115 232.721 525.014 246.5C499.416 265.986 470.652 275.441 438.514 274C381.134 271.427 359.514 268 307.514 202.5Z" fill="url(#paint5_linear_2077_5135)"/>
<path d="M360.514 -6.73758C387.514 -18.0709 454.514 3.76242 454.514 3.76242L437.514 36.2624C437.514 36.2624 425.18 28.7624 394.514 41.2624C363.847 53.7624 335.268 78.2505 293.014 78.7624C264.635 79.1062 242.514 68.4291 222.014 63.2624C201.514 58.0958 106.014 91.2624 106.014 91.2624L76.5137 63.2624L65.0137 41.2624C126.514 38.9291 189.198 51.1169 264.514 30.7624C303.369 20.2615 333.514 4.59575 360.514 -6.73758Z" stroke="#F1FFDA" stroke-width="2"/>
<path d="M360.514 -6.73758C387.514 -18.0709 454.514 3.76242 454.514 3.76242L437.514 36.2624C437.514 36.2624 425.18 28.7624 394.514 41.2624C363.847 53.7624 335.268 78.2505 293.014 78.7624C264.635 79.1062 242.514 68.4291 222.014 63.2624C201.514 58.0958 106.014 91.2624 106.014 91.2624L76.5137 63.2624L65.0137 41.2624C126.514 38.9291 189.198 51.1169 264.514 30.7624C303.369 20.2615 333.514 4.59575 360.514 -6.73758Z" stroke="#F1FFDA" stroke-width="2"/>
<path d="M232.014 308C205.014 296.666 138.014 318.5 138.014 318.5L155.014 351C155.014 351 167.347 343.5 198.014 356C228.68 368.5 257.26 392.988 299.514 393.5C327.892 393.844 350.014 383.166 370.514 378C391.014 372.833 486.514 406 486.514 406L516.014 378L527.514 356C466.014 353.666 403.329 365.854 328.014 345.5C289.159 334.999 259.014 319.333 232.014 308Z" stroke="#F1FFDA" stroke-width="2"/>
<path d="M232.014 308C205.014 296.666 138.014 318.5 138.014 318.5L155.014 351C155.014 351 167.347 343.5 198.014 356C228.68 368.5 257.26 392.988 299.514 393.5C327.892 393.844 350.014 383.166 370.514 378C391.014 372.833 486.514 406 486.514 406L516.014 378L527.514 356C466.014 353.666 403.329 365.854 328.014 345.5C289.159 334.999 259.014 319.333 232.014 308Z" stroke="#F1FFDA" stroke-width="2"/>
<g opacity="0.43">
<path d="M467.514 123C481.865 122.896 488.895 135.074 503.014 132.5C514.38 130.428 528.514 117.5 528.514 117.5L554.014 162.5C542.347 185.833 539.707 220.289 511.514 240.5C473.744 267.576 429.68 243.167 392.514 240.5C355.347 237.833 352.821 220.718 354.014 198.5C355.329 173.997 375.282 173.693 405.514 162.5C432.436 152.532 438.806 123.209 467.514 123Z" fill="#F1FFDA"/>
<path d="M263.514 106.5C229.431 86.1278 162.014 112.5 162.014 112.5L141.514 140.5L129.514 187C129.514 187 140.707 189.885 148.014 191C180.911 196.017 200.999 169.312 232.514 180C264.157 190.732 259.645 238.77 293.014 240.5C309.246 241.341 326.046 243.684 333.014 229C341.606 210.891 311.45 209.153 307.514 189.5C304.916 176.53 305.153 170.625 303.514 157.5C300.377 132.383 285.24 119.486 263.514 106.5Z" fill="#F1FFDA"/>
</g>
<path d="M122.514 213.5C122.514 213.5 191.051 190.239 235.514 195C292.302 201.081 310.153 253.633 367.014 259C410.257 263.082 463.993 206.079 503.014 187C537.985 169.901 552.514 175 552.514 175" stroke="#F1FFDA" stroke-width="2"/>
</g>
</g>
<g filter="url(#filter1_f_2077_5135)">
<path fill-rule="evenodd" clip-rule="evenodd" d="M319.562 159.203C497.16 110.831 651.843 110.947 665.057 159.462C678.27 207.977 550.09 300.246 372.492 348.618C194.894 396.99 35.1309 383.145 21.9172 334.631C8.70446 286.116 141.964 207.575 319.562 159.203ZM574.747 166.085C567.353 138.94 447.119 148.051 306.196 186.434C165.273 224.816 57.0257 277.937 64.4191 305.082C71.813 332.227 192.047 323.117 332.97 284.734C473.893 246.352 582.141 193.23 574.747 166.085Z" fill="#D96E7C"/>
<path d="M553.957 118C585.461 118.024 612.161 121.09 631.987 127.387C651.562 133.604 665.882 143.468 669.881 158.147V158.148C673.837 172.676 666.997 189.244 653.803 205.799C640.43 222.579 619.639 240.504 593.108 258.25C539.998 293.774 463.041 329.138 373.807 353.442C284.572 377.747 199.692 386.462 135.288 382.949C103.116 381.195 75.8005 376.376 55.5361 368.767C35.56 361.265 21.0595 350.508 17.0928 335.945V335.944C13.0951 321.265 20.4361 305.501 34.1543 290.216C48.0491 274.734 69.5059 258.552 96.6465 242.556C150.992 210.525 229.147 178.647 318.248 154.379C407.35 130.111 490.875 117.953 553.957 118ZM548.68 157.351C534.735 155.08 515.062 154.843 490.923 156.672C442.727 160.324 377.762 172.124 307.511 191.258C237.259 210.392 175.283 233.168 131.892 254.461C110.159 265.126 93.3227 275.307 82.4561 284.335C77.0097 288.86 73.2951 292.907 71.1689 296.377C69.0422 299.848 68.8158 302.198 69.2432 303.768C69.6708 305.338 71.0577 307.249 74.6514 309.162C78.2435 311.075 83.4969 312.679 90.4854 313.817C104.43 316.088 124.104 316.324 148.243 314.495C196.439 310.843 261.405 299.044 331.656 279.91C401.907 260.776 463.884 238.001 507.274 216.707C529.008 206.042 545.844 195.861 556.711 186.832C562.157 182.307 565.872 178.26 567.998 174.79C570.125 171.319 570.35 168.969 569.923 167.399L569.831 167.101C569.313 165.59 567.884 163.799 564.515 162.005C560.922 160.092 555.668 158.489 548.68 157.351Z" stroke="white" stroke-width="10"/>
</g>
<path d="M553.957 118C585.461 118.024 612.161 121.09 631.987 127.387C651.562 133.604 665.882 143.468 669.881 158.147V158.148C673.837 172.676 666.997 189.244 653.803 205.799C640.43 222.579 619.639 240.504 593.108 258.25C539.998 293.774 463.041 329.138 373.807 353.442C284.572 377.747 199.692 386.462 135.288 382.949C103.116 381.195 75.8005 376.376 55.5361 368.767C35.56 361.265 21.0595 350.508 17.0928 335.945V335.944C13.0951 321.265 20.4361 305.501 34.1543 290.216C48.0491 274.734 69.5059 258.552 96.6465 242.556C150.992 210.525 229.147 178.647 318.248 154.379C407.35 130.111 490.875 117.953 553.957 118ZM548.68 157.351C534.735 155.08 515.062 154.843 490.923 156.672C442.727 160.324 377.762 172.124 307.511 191.258C237.259 210.392 175.283 233.168 131.892 254.461C110.159 265.126 93.3227 275.307 82.4561 284.335C77.0097 288.86 73.2951 292.907 71.1689 296.377C69.0422 299.848 68.8158 302.198 69.2432 303.768C69.6708 305.338 71.0577 307.249 74.6514 309.162C78.2435 311.075 83.4969 312.679 90.4854 313.817C104.43 316.088 124.104 316.324 148.243 314.495C196.439 310.843 261.405 299.044 331.656 279.91C401.907 260.776 463.884 238.001 507.274 216.707C529.008 206.042 545.844 195.861 556.711 186.832C562.157 182.307 565.872 178.26 567.998 174.79C570.125 171.319 570.35 168.969 569.923 167.399L569.831 167.101C569.313 165.59 567.884 163.799 564.515 162.005C560.922 160.092 555.668 158.489 548.68 157.351Z" fill="#D96E7C" stroke="white" stroke-width="10"/>
<circle cx="343.014" cy="236" r="220" fill="url(#paint6_radial_2077_5135)" stroke="white" stroke-width="10"/>
<mask id="mask1_2077_5135" style="mask-type:alpha" maskUnits="userSpaceOnUse" x="128" y="21" width="431" height="430">
<circle cx="343.014" cy="236" r="210" fill="#FBF1AA" stroke="white" stroke-width="10"/>
</mask>
<g mask="url(#mask1_2077_5135)">
<path opacity="0.46" d="M273.473 247.672C237.15 231.443 147.014 262.707 147.014 262.707L169.884 309.244C169.884 309.244 186.476 298.505 227.733 316.404C268.989 334.303 307.437 369.368 364.282 370.101C402.46 370.593 432.22 355.304 459.799 347.906C487.378 340.508 615.856 388 615.856 388L655.543 347.906L671.014 316.404C588.277 313.063 503.946 330.515 402.623 301.369C350.351 286.332 309.797 263.9 273.473 247.672Z" fill="#F1FFDA"/>
<path opacity="0.46" d="M237.473 337.672C201.15 321.443 111.014 352.707 111.014 352.707L133.884 399.244C133.884 399.244 150.476 388.505 191.733 406.404C232.989 424.303 271.437 459.368 328.282 460.101C366.46 460.593 396.22 445.304 423.799 437.906C451.378 430.508 579.856 478 579.856 478L619.543 437.906L635.014 406.404C552.277 403.063 467.946 420.515 366.623 391.369C314.351 376.332 273.797 353.9 237.473 337.672Z" fill="#F1FFDA"/>
<path opacity="0.7" d="M417.068 40.2531C461.638 10.5595 545.601 15.2738 545.601 15.2738L597.014 85.3545C564.262 121.898 543.877 190.465 489.047 194.986C452.797 197.974 427.161 170.469 401.073 158.211C374.986 145.952 316.032 233.282 253.118 235.924C202.55 238.048 128.014 194.986 128.014 194.986L140.01 149.19C140.01 149.19 175.052 132.164 198.278 124.211C258.103 103.727 302.307 140.336 356.515 103.395C383.696 84.8725 389.743 58.4583 417.068 40.2531Z" fill="url(#paint7_linear_2077_5135)"/>
<path opacity="0.7" d="M417.068 213.253C461.638 183.56 545.601 188.274 545.601 188.274L597.014 258.355C564.262 294.898 543.877 363.465 489.047 367.986C452.797 370.974 416.601 369.758 390.514 357.5C364.426 345.242 324.927 394.358 262.014 397C211.446 399.124 128.014 367.986 128.014 367.986L140.01 322.19C140.01 322.19 175.052 305.164 198.278 297.211C258.103 276.727 302.307 313.336 356.515 276.395C383.696 257.872 389.743 231.458 417.068 213.253Z" fill="url(#paint8_linear_2077_5135)"/>
<path d="M250.014 260.5C202.374 249.955 161.18 250.833 125.514 250L131.514 298.5L164.514 366.5C164.514 366.5 204.067 401.409 235.014 412.5C280.048 428.64 309.715 414.463 357.514 412.5C409.798 410.353 450.906 434.609 491.014 401C504.313 389.855 519.014 366.5 519.014 366.5L547.514 321.5V298.5C547.514 298.5 477.78 318.953 432.514 315.5C402.568 313.216 387.514 308.5 357.514 298.5C327.514 288.5 293.488 270.123 250.014 260.5Z" fill="url(#paint9_linear_2077_5135)"/>
<path d="M-190.986 123.637C-190.986 123.637 -61.8809 95.9707 21.8741 101.633C128.848 108.866 162.474 171.368 269.583 177.752C351.041 182.607 452.265 114.81 525.769 92.1186C591.646 71.782 619.014 77.8464 619.014 77.8464" stroke="#F1FFDA" stroke-width="2"/>
<path opacity="0.7" d="M400.014 389.197C439.024 367.8 512.514 371.197 512.514 371.197L557.514 421.697C528.847 448.031 511.005 497.44 463.014 500.697C431.285 502.851 408.847 483.031 386.014 474.197C363.18 465.364 311.58 528.293 256.514 530.197C212.253 531.728 147.014 500.697 147.014 500.697L157.514 467.697C157.514 467.697 188.185 455.428 208.514 449.697C260.877 434.937 299.567 461.317 347.014 434.697C370.804 421.35 376.096 402.316 400.014 389.197Z" fill="url(#paint10_linear_2077_5135)"/>
<path d="M307.514 202.5C255.514 137 138.514 155 138.514 155L152.014 122L188.014 81.9998C213.788 78.2898 227.514 71.9998 254.014 72.4998C280.514 72.9998 294.602 73.4761 307.514 91.4998C318.502 106.838 302.709 123.694 313.014 139.5C332.315 169.106 382.726 168.083 403.514 139.5C415.514 123 428.155 105.059 452.014 96.9998C476.702 88.6603 518.514 102.5 518.514 102.5L544.014 150L556.514 197.5C556.514 197.5 543.115 232.721 525.014 246.5C499.416 265.986 470.652 275.441 438.514 274C381.134 271.427 359.514 268 307.514 202.5Z" fill="url(#paint11_linear_2077_5135)"/>
<path d="M360.514 -6.73758C387.514 -18.0709 454.514 3.76242 454.514 3.76242L437.514 36.2624C437.514 36.2624 425.18 28.7624 394.514 41.2624C363.847 53.7624 335.268 78.2505 293.014 78.7624C264.635 79.1062 242.514 68.4291 222.014 63.2624C201.514 58.0958 106.014 91.2624 106.014 91.2624L76.5137 63.2624L65.0137 41.2624C126.514 38.9291 189.198 51.1169 264.514 30.7624C303.369 20.2615 333.514 4.59575 360.514 -6.73758Z" stroke="#F1FFDA" stroke-width="2"/>
<path d="M360.514 -6.73758C387.514 -18.0709 454.514 3.76242 454.514 3.76242L437.514 36.2624C437.514 36.2624 425.18 28.7624 394.514 41.2624C363.847 53.7624 335.268 78.2505 293.014 78.7624C264.635 79.1062 242.514 68.4291 222.014 63.2624C201.514 58.0958 106.014 91.2624 106.014 91.2624L76.5137 63.2624L65.0137 41.2624C126.514 38.9291 189.198 51.1169 264.514 30.7624C303.369 20.2615 333.514 4.59575 360.514 -6.73758Z" stroke="#F1FFDA" stroke-width="2"/>
<path d="M232.014 308C205.014 296.666 138.014 318.5 138.014 318.5L155.014 351C155.014 351 167.347 343.5 198.014 356C228.68 368.5 257.26 392.988 299.514 393.5C327.892 393.844 350.014 383.166 370.514 378C391.014 372.833 486.514 406 486.514 406L516.014 378L527.514 356C466.014 353.666 403.329 365.854 328.014 345.5C289.159 334.999 259.014 319.333 232.014 308Z" stroke="#F1FFDA" stroke-width="2"/>
<path d="M232.014 308C205.014 296.666 138.014 318.5 138.014 318.5L155.014 351C155.014 351 167.347 343.5 198.014 356C228.68 368.5 257.26 392.988 299.514 393.5C327.892 393.844 350.014 383.166 370.514 378C391.014 372.833 486.514 406 486.514 406L516.014 378L527.514 356C466.014 353.666 403.329 365.854 328.014 345.5C289.159 334.999 259.014 319.333 232.014 308Z" stroke="#F1FFDA" stroke-width="2"/>
<g opacity="0.43">
<path d="M467.514 123C481.865 122.896 488.895 135.074 503.014 132.5C514.38 130.428 528.514 117.5 528.514 117.5L554.014 162.5C542.347 185.833 539.707 220.289 511.514 240.5C473.744 267.576 429.68 243.167 392.514 240.5C355.347 237.833 352.821 220.718 354.014 198.5C355.329 173.997 375.282 173.693 405.514 162.5C432.436 152.532 438.806 123.209 467.514 123Z" fill="#F1FFDA"/>
<path d="M263.514 106.5C229.431 86.1278 162.014 112.5 162.014 112.5L141.514 140.5L129.514 187C129.514 187 140.707 189.885 148.014 191C180.911 196.017 200.999 169.312 232.514 180C264.157 190.732 259.645 238.77 293.014 240.5C309.246 241.341 326.046 243.684 333.014 229C341.606 210.891 311.45 209.153 307.514 189.5C304.916 176.53 305.153 170.625 303.514 157.5C300.377 132.383 285.24 119.486 263.514 106.5Z" fill="#F1FFDA"/>
</g>
<path d="M122.514 213.5C122.514 213.5 191.051 190.239 235.514 195C292.302 201.081 310.153 253.633 367.014 259C410.257 263.082 463.993 206.079 503.014 187C537.985 169.901 552.514 175 552.514 175" stroke="#F1FFDA" stroke-width="2"/>
</g>
<path fill-rule="evenodd" clip-rule="evenodd" d="M526.204 123.707C603.881 119.846 657.514 131.769 665.056 159.46C678.269 207.975 550.089 300.245 372.492 348.616C194.894 396.988 35.1301 383.143 21.9164 334.629C14.2037 306.309 56.4038 267.757 128.199 230.947C128.429 237.493 128.489 246.33 128.505 250.554C85.482 271.805 60.7554 291.63 64.4183 305.08C71.8122 332.225 192.046 323.115 332.969 284.732C473.892 246.35 582.14 193.228 574.746 166.083C572.547 158.011 560.37 153.145 540.638 151.302L540.513 151L535.013 139.5L528.513 127.5L526.204 123.707Z" fill="url(#paint12_linear_2077_5135)"/>
<path d="M590.28 266.345C536.986 300.733 462.163 334.442 376.098 357.883C298.83 378.929 224.719 388.371 164.099 388.312L159.92 378.291C220.27 378.799 295.135 369.571 373.47 348.235C460.985 324.399 536.499 289.902 589.009 255.235L590.28 266.345ZM561.75 189.564C528.46 217.843 440.554 255.315 333.948 284.351C256.473 305.453 185.251 317.705 135.594 319.952L131.491 310.11C136.955 309.914 142.745 309.588 148.843 309.126C196.637 305.505 261.279 293.779 331.32 274.703C401.361 255.626 463.022 232.95 506.05 211.834C527.64 201.24 544.071 191.263 554.494 182.603C554.801 182.347 555.102 182.094 555.396 181.843L561.75 189.564Z" fill="white"/>
<defs>
<filter id="filter0_df_2077_5135" x="107.014" y="0" width="472" height="472" filterUnits="userSpaceOnUse" color-interpolation-filters="sRGB">
<feFlood flood-opacity="0" result="BackgroundImageFix"/>
<feColorMatrix in="SourceAlpha" type="matrix" values="0 0 0 0 0 0 0 0 0 0 0 0 0 0 0 0 0 0 127 0" result="hardAlpha"/>
<feOffset dy="4"/>
<feGaussianBlur stdDeviation="2"/>
<feComposite in2="hardAlpha" operator="out"/>
<feColorMatrix type="matrix" values="0 0 0 0 0 0 0 0 0 0 0 0 0 0 0 0 0 0 0.25 0"/>
<feBlend mode="normal" in2="BackgroundImageFix" result="effect1_dropShadow_2077_5135"/>
<feBlend mode="normal" in="SourceGraphic" in2="effect1_dropShadow_2077_5135" result="shape"/>
<feGaussianBlur stdDeviation="5.5" result="effect2_foregroundBlur_2077_5135"/>
</filter>
<filter id="filter1_f_2077_5135" x="0" y="102" width="687.003" height="297.696" filterUnits="userSpaceOnUse" color-interpolation-filters="sRGB">
<feFlood flood-opacity="0" result="BackgroundImageFix"/>
<feBlend mode="normal" in="SourceGraphic" in2="BackgroundImageFix" result="shape"/>
<feGaussianBlur stdDeviation="5.5" result="effect1_foregroundBlur_2077_5135"/>
</filter>
<radialGradient id="paint0_radial_2077_5135" cx="0" cy="0" r="1" gradientUnits="userSpaceOnUse" gradientTransform="translate(246.514 57) rotate(61.7477) scale(440.473)">
<stop stop-color="#F4F3CC"/>
<stop offset="1" stop-color="#35978C"/>
</radialGradient>
<linearGradient id="paint1_linear_2077_5135" x1="362.514" y1="15" x2="526.428" y2="230.67" gradientUnits="userSpaceOnUse">
<stop stop-color="#B9FDF0"/>
<stop offset="1" stop-color="#EABC5A"/>
</linearGradient>
<linearGradient id="paint2_linear_2077_5135" x1="362.514" y1="188" x2="526.428" y2="403.67" gradientUnits="userSpaceOnUse">
<stop stop-color="#B9FDF0"/>
<stop offset="1" stop-color="#EABC5A"/>
</linearGradient>
<linearGradient id="paint3_linear_2077_5135" x1="336.514" y1="250" x2="336.514" y2="420.13" gradientUnits="userSpaceOnUse">
<stop stop-color="#B7EED4"/>
<stop offset="1" stop-color="#178371"/>
</linearGradient>
<linearGradient id="paint4_linear_2077_5135" x1="352.264" y1="371" x2="462.514" y2="547.197" gradientUnits="userSpaceOnUse">
<stop stop-color="#B9FDF0"/>
<stop offset="1" stop-color="#EABC5A"/>
</linearGradient>
<linearGradient id="paint5_linear_2077_5135" x1="347.514" y1="72.4717" x2="347.514" y2="274.143" gradientUnits="userSpaceOnUse">
<stop stop-color="#B7EED4"/>
<stop offset="1" stop-color="#178371"/>
</linearGradient>
<radialGradient id="paint6_radial_2077_5135" cx="0" cy="0" r="1" gradientUnits="userSpaceOnUse" gradientTransform="translate(246.514 57) rotate(61.7477) scale(440.473)">
<stop stop-color="#F4F3CC"/>
<stop offset="1" stop-color="#35978C"/>
</radialGradient>
<linearGradient id="paint7_linear_2077_5135" x1="362.514" y1="15" x2="526.428" y2="230.67" gradientUnits="userSpaceOnUse">
<stop stop-color="#B9FDF0"/>
<stop offset="1" stop-color="#EABC5A"/>
</linearGradient>
<linearGradient id="paint8_linear_2077_5135" x1="362.514" y1="188" x2="526.428" y2="403.67" gradientUnits="userSpaceOnUse">
<stop stop-color="#B9FDF0"/>
<stop offset="1" stop-color="#EABC5A"/>
</linearGradient>
<linearGradient id="paint9_linear_2077_5135" x1="336.514" y1="250" x2="336.514" y2="420.13" gradientUnits="userSpaceOnUse">
<stop stop-color="#B7EED4"/>
<stop offset="1" stop-color="#178371"/>
</linearGradient>
<linearGradient id="paint10_linear_2077_5135" x1="352.264" y1="371" x2="462.514" y2="547.197" gradientUnits="userSpaceOnUse">
<stop stop-color="#B9FDF0"/>
<stop offset="1" stop-color="#EABC5A"/>
</linearGradient>
<linearGradient id="paint11_linear_2077_5135" x1="347.514" y1="72.4717" x2="347.514" y2="274.143" gradientUnits="userSpaceOnUse">
<stop stop-color="#B7EED4"/>
<stop offset="1" stop-color="#178371"/>
</linearGradient>
<linearGradient id="paint12_linear_2077_5135" x1="343.502" y1="122.997" x2="553.493" y2="400.115" gradientUnits="userSpaceOnUse">
<stop stop-color="#F6F7E4"/>
<stop offset="1" stop-color="#81DBC6"/>
</linearGradient>
</defs>
</svg>
