<svg width="300" height="420" viewBox="0 0 300 420" fill="none" xmlns="http://www.w3.org/2000/svg">
<rect width="300" height="420" fill="#817D7C"/>
<path d="M179.291 165.526C179.291 157.314 176.572 150.726 171.133 145.76C165.694 140.795 158.483 138.312 149.5 138.312C143.962 138.312 138.95 139.508 134.466 141.899C129.982 144.29 126.113 147.773 122.859 152.349C119.804 156.741 115.648 159.274 110.392 159.946C105.137 160.618 100.603 159.232 96.7915 155.786C94.1178 153.304 92.6397 150.248 92.3571 146.62C92.0744 142.991 92.9796 139.554 95.0727 136.307C101.184 127.141 108.968 120.029 118.425 114.972C127.882 109.915 138.24 107.383 149.5 107.375C168.024 107.375 183.065 112.627 194.623 123.13C206.18 133.634 211.955 147.384 211.948 164.38C211.948 172.974 210.133 180.708 206.505 187.583C202.877 194.458 196.192 202.575 186.453 211.932C179.387 218.616 174.613 223.822 172.13 227.55C169.647 231.278 168.024 235.525 167.26 240.292C166.496 244.875 164.537 248.694 161.382 251.75C158.227 254.806 154.457 256.333 150.073 256.333C145.688 256.333 141.918 254.855 138.763 251.899C135.608 248.943 134.031 245.265 134.031 240.865C134.031 233.417 135.654 226.591 138.901 220.389C142.147 214.186 147.59 207.643 155.229 200.76C164.969 192.167 171.416 185.532 174.571 180.857C177.725 176.182 179.299 171.072 179.291 165.526ZM149.5 325.083C143.198 325.083 137.805 322.841 133.321 318.357C128.837 313.873 126.591 308.476 126.583 302.167C126.575 295.857 128.821 290.464 133.321 285.987C137.82 281.511 143.213 279.265 149.5 279.25C155.787 279.235 161.183 281.481 165.69 285.987C170.197 290.494 172.439 295.887 172.416 302.167C172.394 308.446 170.152 313.843 165.69 318.357C161.229 322.872 155.832 325.114 149.5 325.083Z" fill="#F9FEFE"/>
</svg>
