<svg width="648" height="354" viewBox="0 0 648 354" fill="none" xmlns="http://www.w3.org/2000/svg">
<g filter="url(#filter0_f_3360_2299)">
<path d="M419.374 13.1936V8.79576V8.79576V13.1936ZM526.682 120.501L531.079 120.501V120.501H526.682ZM526.552 125.779L522.159 125.566L521.935 130.182L526.557 130.176L526.552 125.779ZM526.683 125.779L526.683 121.381H526.683V125.779ZM633.989 233.086L638.387 233.086V233.086H633.989ZM533.718 340.164L533.434 335.776L529.32 336.042V340.164H533.718ZM533.718 340.393V344.791H538.116V340.393H533.718ZM151.105 340.393H146.708V344.791H151.105V340.393ZM151.105 340.387H155.503V335.944L151.06 335.989L151.105 340.387ZM150.227 340.393V344.791H150.227L150.227 340.393ZM66.667 256.834H62.2691V256.834H66.667ZM150.227 173.275L150.227 168.877H150.227V173.275ZM183.501 180.164L181.748 184.198L191.979 188.644L187.535 178.412L183.501 180.164ZM176.657 149.602L172.262 149.745V149.745L176.657 149.602ZM257.458 63.3733L257.315 58.9778H257.315L257.458 63.3733ZM317.652 86.2424L314.627 89.4345L319.624 94.1701L321.82 87.6456L317.652 86.2424ZM419.374 13.1936V17.5914C476.209 17.5914 522.284 63.6658 522.284 120.501H526.682H531.079C531.079 58.8081 481.067 8.79576 419.374 8.79576V13.1936ZM526.682 120.501L522.284 120.501C522.284 122.196 522.241 123.884 522.159 125.566L526.552 125.779L530.944 125.991C531.032 124.176 531.079 122.346 531.079 120.501L526.682 120.501ZM526.552 125.779L526.557 130.176C526.597 130.176 526.632 130.176 526.683 130.176V125.779V121.381C526.647 121.381 526.593 121.381 526.547 121.381L526.552 125.779ZM526.683 125.779L526.683 130.176C583.518 130.177 629.591 176.251 629.591 233.086H633.989H638.387C638.387 171.393 588.376 121.381 526.683 121.381L526.683 125.779ZM633.989 233.086L629.591 233.086C629.591 287.653 587.12 332.301 533.434 335.776L533.718 340.164L534.002 344.553C592.285 340.781 638.387 292.32 638.387 233.086L633.989 233.086ZM533.718 340.164H529.32V340.393H533.718H538.116V340.164H533.718ZM533.718 340.393V335.995H151.105V340.393V344.791H533.718V340.393ZM151.105 340.393H155.503V340.387H151.105H146.708V340.393H151.105ZM151.105 340.387L151.06 335.989C150.766 335.992 150.494 335.995 150.227 335.995L150.227 340.393L150.227 344.791C150.545 344.791 150.859 344.788 151.151 344.785L151.105 340.387ZM150.227 340.393V335.995C106.507 335.995 71.0649 300.554 71.0648 256.834H66.667H62.2691C62.2692 305.412 101.649 344.791 150.227 344.791V340.393ZM66.667 256.834H71.0648C71.0648 213.115 106.507 177.673 150.227 177.673V173.275V168.877C101.649 168.877 62.2691 208.257 62.2691 256.834H66.667ZM150.227 173.275L150.227 177.673C161.438 177.673 172.094 180.002 181.748 184.198L183.501 180.164L185.254 176.131C174.515 171.464 162.668 168.877 150.227 168.877L150.227 173.275ZM183.501 180.164L187.535 178.412C183.671 169.518 181.387 159.755 181.053 149.459L176.657 149.602L172.262 149.745C172.633 161.168 175.169 172.021 179.467 181.916L183.501 180.164ZM176.657 149.602L181.053 149.459C179.633 105.763 213.905 69.1888 257.601 67.7688L257.458 63.3733L257.315 58.9778C208.764 60.5555 170.684 101.193 172.262 149.745L176.657 149.602ZM257.458 63.3733L257.601 67.7688C279.612 67.0536 299.808 75.3901 314.627 89.4345L317.652 86.2424L320.678 83.0504C304.223 67.4561 281.77 58.1832 257.315 58.9778L257.458 63.3733ZM317.652 86.2424L321.82 87.6456C335.532 46.9159 374.034 17.5915 419.374 17.5914V13.1936V8.79576C370.145 8.79584 328.365 40.6391 313.484 84.8392L317.652 86.2424Z" fill="#F9FEFE"/>
</g>
<path d="M419.374 13.1936V8.79576V8.79576V13.1936ZM526.682 120.501L531.079 120.501V120.501H526.682ZM526.552 125.779L522.159 125.566L521.935 130.182L526.557 130.176L526.552 125.779ZM526.683 125.779L526.683 121.381H526.683V125.779ZM633.989 233.086L638.387 233.086V233.086H633.989ZM533.718 340.164L533.434 335.776L529.32 336.042V340.164H533.718ZM533.718 340.393V344.791H538.116V340.393H533.718ZM151.105 340.393H146.708V344.791H151.105V340.393ZM151.105 340.387H155.503V335.944L151.06 335.989L151.105 340.387ZM150.227 340.393V344.791H150.227L150.227 340.393ZM66.667 256.834H62.2691V256.834H66.667ZM150.227 173.275L150.227 168.877H150.227V173.275ZM183.501 180.164L181.748 184.198L191.979 188.644L187.535 178.412L183.501 180.164ZM176.657 149.602L172.262 149.745V149.745L176.657 149.602ZM257.458 63.3733L257.315 58.9778H257.315L257.458 63.3733ZM317.652 86.2424L314.627 89.4345L319.624 94.1701L321.82 87.6456L317.652 86.2424ZM419.374 13.1936V17.5914C476.209 17.5914 522.284 63.6658 522.284 120.501H526.682H531.079C531.079 58.8081 481.067 8.79576 419.374 8.79576V13.1936ZM526.682 120.501L522.284 120.501C522.284 122.196 522.241 123.884 522.159 125.566L526.552 125.779L530.944 125.991C531.032 124.176 531.079 122.346 531.079 120.501L526.682 120.501ZM526.552 125.779L526.557 130.176C526.597 130.176 526.632 130.176 526.683 130.176V125.779V121.381C526.647 121.381 526.593 121.381 526.547 121.381L526.552 125.779ZM526.683 125.779L526.683 130.176C583.518 130.177 629.591 176.251 629.591 233.086H633.989H638.387C638.387 171.393 588.376 121.381 526.683 121.381L526.683 125.779ZM633.989 233.086L629.591 233.086C629.591 287.653 587.12 332.301 533.434 335.776L533.718 340.164L534.002 344.553C592.285 340.781 638.387 292.32 638.387 233.086L633.989 233.086ZM533.718 340.164H529.32V340.393H533.718H538.116V340.164H533.718ZM533.718 340.393V335.995H151.105V340.393V344.791H533.718V340.393ZM151.105 340.393H155.503V340.387H151.105H146.708V340.393H151.105ZM151.105 340.387L151.06 335.989C150.766 335.992 150.494 335.995 150.227 335.995L150.227 340.393L150.227 344.791C150.545 344.791 150.859 344.788 151.151 344.785L151.105 340.387ZM150.227 340.393V335.995C106.507 335.995 71.0649 300.554 71.0648 256.834H66.667H62.2691C62.2692 305.412 101.649 344.791 150.227 344.791V340.393ZM66.667 256.834H71.0648C71.0648 213.115 106.507 177.673 150.227 177.673V173.275V168.877C101.649 168.877 62.2691 208.257 62.2691 256.834H66.667ZM150.227 173.275L150.227 177.673C161.438 177.673 172.094 180.002 181.748 184.198L183.501 180.164L185.254 176.131C174.515 171.464 162.668 168.877 150.227 168.877L150.227 173.275ZM183.501 180.164L187.535 178.412C183.671 169.518 181.387 159.755 181.053 149.459L176.657 149.602L172.262 149.745C172.633 161.168 175.169 172.021 179.467 181.916L183.501 180.164ZM176.657 149.602L181.053 149.459C179.633 105.763 213.905 69.1888 257.601 67.7688L257.458 63.3733L257.315 58.9778C208.764 60.5555 170.684 101.193 172.262 149.745L176.657 149.602ZM257.458 63.3733L257.601 67.7688C279.612 67.0536 299.808 75.3901 314.627 89.4345L317.652 86.2424L320.678 83.0504C304.223 67.4561 281.77 58.1832 257.315 58.9778L257.458 63.3733ZM317.652 86.2424L321.82 87.6456C335.532 46.9159 374.034 17.5915 419.374 17.5914V13.1936V8.79576C370.145 8.79584 328.365 40.6391 313.484 84.8392L317.652 86.2424Z" fill="#F9FEFE"/>
<path d="M194.667 97.1934H130.216V60.1934H59.667" stroke="#F9FEFE" stroke-width="4.608"/>
<circle cx="38.5868" cy="61.1134" r="23.616" transform="rotate(180 38.5868 61.1134)" stroke="#F9FEFE" stroke-width="4.608"/>
<g filter="url(#filter1_f_3360_2299)">
<path d="M194.667 97.1934H130.218V60.1934H59.667" stroke="#F9FEFE" stroke-width="4.608"/>
<circle cx="38.5917" cy="61.1134" r="23.616" transform="rotate(180 38.5917 61.1134)" stroke="#F9FEFE" stroke-width="4.608"/>
</g>
<defs>
<filter id="filter0_f_3360_2299" x="53.4738" y="-3.8147e-05" width="593.709" height="353.587" filterUnits="userSpaceOnUse" color-interpolation-filters="sRGB">
<feFlood flood-opacity="0" result="BackgroundImageFix"/>
<feBlend mode="normal" in="SourceGraphic" in2="BackgroundImageFix" result="shape"/>
<feGaussianBlur stdDeviation="4.39785" result="effect1_foregroundBlur_3360_2299"/>
</filter>
<filter id="filter1_f_3360_2299" x="-0.000125885" y="22.5214" width="207.339" height="89.648" filterUnits="userSpaceOnUse" color-interpolation-filters="sRGB">
<feFlood flood-opacity="0" result="BackgroundImageFix"/>
<feBlend mode="normal" in="SourceGraphic" in2="BackgroundImageFix" result="shape"/>
<feGaussianBlur stdDeviation="6.336" result="effect1_foregroundBlur_3360_2299"/>
</filter>
</defs>
</svg>
